M48
; DRILL file {KiCad (6.0.6)} date Sun Jul 31 20:56:35 2022
; FORMAT={-:-/ absolute / metric / decimal}
; #@! TF.CreationDate,2022-07-31T20:56:35+02:00
; #@! TF.GenerationSoftware,Kicad,Pcbnew,(6.0.6)
; #@! TF.FileFunction,Plated,1,2,PTH
FMAT,2
METRIC
; #@! TA.AperFunction,Plated,PTH,ViaDrill
T1C0.400
; #@! TA.AperFunction,Plated,PTH,ComponentDrill
T2C0.800
; #@! TA.AperFunction,Plated,PTH,ComponentDrill
T3C1.000
%
G90
G05
T1
X84.744Y-107.348
X91.613Y-102.796
X92.338Y-109.144
X103.085Y-74.342
X104.529Y-106.359
X105.259Y-102.296
X106.598Y-100.982
X106.627Y-78.305
X112.399Y-76.19
X121.374Y-59.308
T2
X87.005Y-80.015
X87.005Y-82.555
X87.005Y-85.095
X87.005Y-87.635
X87.005Y-90.175
X87.005Y-92.715
X87.005Y-95.255
X87.005Y-97.795
X87.005Y-100.335
X87.005Y-102.875
X87.63Y-75.565
X92.63Y-75.565
X94.625Y-80.015
X94.625Y-82.555
X94.625Y-85.095
X94.625Y-87.635
X94.625Y-90.175
X94.625Y-92.715
X94.625Y-95.255
X94.625Y-97.795
X94.625Y-100.335
X94.625Y-102.875
X100.975Y-80.015
X100.975Y-82.555
X100.975Y-85.095
X100.975Y-87.635
X100.975Y-90.175
X100.975Y-92.715
X100.975Y-95.255
X100.975Y-97.795
X100.975Y-100.335
X100.975Y-102.875
X102.275Y-75.565
X107.275Y-75.565
X108.595Y-80.015
X108.595Y-82.555
X108.595Y-85.095
X108.595Y-87.635
X108.595Y-90.175
X108.595Y-92.715
X108.595Y-95.255
X108.595Y-97.795
X108.595Y-100.335
X108.595Y-102.875
X114.935Y-82.55
X114.935Y-85.09
X114.935Y-87.63
X114.935Y-90.17
X114.935Y-92.71
X114.935Y-95.25
X114.935Y-97.79
X114.935Y-100.33
X114.935Y-102.87
X118.12Y-58.41
X118.12Y-60.95
X118.12Y-63.49
X118.12Y-66.03
X118.12Y-68.57
X118.12Y-71.11
X118.12Y-73.65
X118.12Y-76.19
X119.42Y-53.975
X124.42Y-53.975
X125.74Y-58.41
X125.74Y-60.95
X125.74Y-63.49
X125.74Y-66.03
X125.74Y-68.57
X125.74Y-71.11
X125.74Y-73.65
X125.74Y-76.19
T3
X86.985Y-46.304
X86.985Y-48.844
X89.525Y-46.304
X89.525Y-48.844
X92.065Y-46.304
X92.065Y-48.844
X94.605Y-46.304
X94.605Y-48.844
X97.145Y-46.304
X97.145Y-48.844
X99.685Y-46.304
X99.685Y-48.844
X102.225Y-46.304
X102.225Y-48.844
X104.765Y-46.304
X104.765Y-48.844
X107.305Y-46.304
X107.305Y-48.844
X109.845Y-46.304
X109.845Y-48.844
X112.385Y-46.304
X112.385Y-48.844
X114.925Y-46.304
X114.925Y-48.844
X117.465Y-46.304
X117.465Y-48.844
X120.005Y-46.304
X120.005Y-48.844
X122.545Y-46.304
X122.545Y-48.844
X125.085Y-46.304
X125.085Y-48.844
X127.625Y-46.304
X127.625Y-48.844
T0
M30
