%TF.GenerationSoftware,KiCad,Pcbnew,(6.0.6)*%
%TF.CreationDate,2022-07-31T20:56:31+02:00*%
%TF.ProjectId,SF-7326,53462d37-3332-4362-9e6b-696361645f70,rev?*%
%TF.SameCoordinates,Original*%
%TF.FileFunction,Copper,L1,Top*%
%TF.FilePolarity,Positive*%
%FSLAX46Y46*%
G04 Gerber Fmt 4.6, Leading zero omitted, Abs format (unit mm)*
G04 Created by KiCad (PCBNEW (6.0.6)) date 2022-07-31 20:56:31*
%MOMM*%
%LPD*%
G01*
G04 APERTURE LIST*
G04 Aperture macros list*
%AMRoundRect*
0 Rectangle with rounded corners*
0 $1 Rounding radius*
0 $2 $3 $4 $5 $6 $7 $8 $9 X,Y pos of 4 corners*
0 Add a 4 corners polygon primitive as box body*
4,1,4,$2,$3,$4,$5,$6,$7,$8,$9,$2,$3,0*
0 Add four circle primitives for the rounded corners*
1,1,$1+$1,$2,$3*
1,1,$1+$1,$4,$5*
1,1,$1+$1,$6,$7*
1,1,$1+$1,$8,$9*
0 Add four rect primitives between the rounded corners*
20,1,$1+$1,$2,$3,$4,$5,0*
20,1,$1+$1,$4,$5,$6,$7,0*
20,1,$1+$1,$6,$7,$8,$9,0*
20,1,$1+$1,$8,$9,$2,$3,0*%
G04 Aperture macros list end*
%TA.AperFunction,ComponentPad*%
%ADD10C,1.600000*%
%TD*%
%TA.AperFunction,ComponentPad*%
%ADD11R,1.600000X1.600000*%
%TD*%
%TA.AperFunction,ComponentPad*%
%ADD12O,1.600000X1.600000*%
%TD*%
%TA.AperFunction,ComponentPad*%
%ADD13RoundRect,0.250000X0.600000X-0.600000X0.600000X0.600000X-0.600000X0.600000X-0.600000X-0.600000X0*%
%TD*%
%TA.AperFunction,ComponentPad*%
%ADD14C,1.700000*%
%TD*%
%TA.AperFunction,SMDPad,CuDef*%
%ADD15O,2.032000X5.080000*%
%TD*%
%TA.AperFunction,ViaPad*%
%ADD16C,0.800000*%
%TD*%
%TA.AperFunction,Conductor*%
%ADD17C,0.250000*%
%TD*%
G04 APERTURE END LIST*
%TO.C,CON1*%
G36*
X139152520Y-122132920D02*
G01*
X137252490Y-122132920D01*
X137252490Y-115180950D01*
X139152520Y-115180950D01*
X139152520Y-122132920D01*
G37*
G36*
X123252520Y-122132920D02*
G01*
X121352500Y-122132920D01*
X121352500Y-115180950D01*
X123252520Y-115180950D01*
X123252520Y-122132920D01*
G37*
G36*
X110532510Y-122132920D02*
G01*
X108632490Y-122132920D01*
X108632490Y-115180950D01*
X110532510Y-115180950D01*
X110532510Y-122132920D01*
G37*
G36*
X129612500Y-122132920D02*
G01*
X127712480Y-122132920D01*
X127712480Y-115180950D01*
X129612500Y-115180950D01*
X129612500Y-122132920D01*
G37*
G36*
X126432530Y-122132920D02*
G01*
X124532500Y-122132920D01*
X124532500Y-115180950D01*
X126432530Y-115180950D01*
X126432530Y-122132920D01*
G37*
G36*
X135972510Y-122132920D02*
G01*
X134072490Y-122132920D01*
X134072490Y-115180950D01*
X135972510Y-115180950D01*
X135972510Y-122132920D01*
G37*
G36*
X91452510Y-122132920D02*
G01*
X89552490Y-122132920D01*
X89552490Y-115180950D01*
X91452510Y-115180950D01*
X91452510Y-122132920D01*
G37*
G36*
X113712510Y-122132920D02*
G01*
X111812490Y-122132920D01*
X111812490Y-115180950D01*
X113712510Y-115180950D01*
X113712510Y-122132920D01*
G37*
G36*
X104172520Y-122132920D02*
G01*
X102272500Y-122132920D01*
X102272500Y-115180950D01*
X104172520Y-115180950D01*
X104172520Y-122132920D01*
G37*
G36*
X132792510Y-122132920D02*
G01*
X130892490Y-122132920D01*
X130892490Y-115180950D01*
X132792510Y-115180950D01*
X132792510Y-122132920D01*
G37*
G36*
X78732520Y-122132920D02*
G01*
X76832500Y-122132920D01*
X76832500Y-115434950D01*
X78732520Y-115434950D01*
X78732520Y-122132920D01*
G37*
G36*
X116892510Y-122132920D02*
G01*
X114992490Y-122132920D01*
X114992490Y-115180950D01*
X116892510Y-115180950D01*
X116892510Y-122132920D01*
G37*
G36*
X88272510Y-122132920D02*
G01*
X86372480Y-122132920D01*
X86372480Y-115180950D01*
X88272510Y-115180950D01*
X88272510Y-122132920D01*
G37*
G36*
X75491500Y-122235800D02*
G01*
X73591480Y-122235800D01*
X73591480Y-115283830D01*
X75491500Y-115283830D01*
X75491500Y-122235800D01*
G37*
G36*
X81912520Y-122132920D02*
G01*
X80012500Y-122132920D01*
X80012500Y-115434950D01*
X81912520Y-115434950D01*
X81912520Y-122132920D01*
G37*
G36*
X85092530Y-122132920D02*
G01*
X83192510Y-122132920D01*
X83192510Y-115180950D01*
X85092530Y-115180950D01*
X85092530Y-122132920D01*
G37*
G36*
X97812520Y-122132920D02*
G01*
X95912500Y-122132920D01*
X95912500Y-115180950D01*
X97812520Y-115180950D01*
X97812520Y-122132920D01*
G37*
G36*
X107352530Y-122132920D02*
G01*
X105452510Y-122132920D01*
X105452510Y-115180950D01*
X107352530Y-115180950D01*
X107352530Y-122132920D01*
G37*
G36*
X100992520Y-122132920D02*
G01*
X99092500Y-122132920D01*
X99092500Y-115434950D01*
X100992520Y-115434950D01*
X100992520Y-122132920D01*
G37*
G36*
X94632510Y-122132920D02*
G01*
X92732490Y-122132920D01*
X92732490Y-115180950D01*
X94632510Y-115180950D01*
X94632510Y-122132920D01*
G37*
G36*
X142332520Y-122132920D02*
G01*
X140432500Y-122132920D01*
X140432500Y-115180950D01*
X142332520Y-115180950D01*
X142332520Y-122132920D01*
G37*
G36*
X120072520Y-122132920D02*
G01*
X118172500Y-122132920D01*
X118172500Y-115180950D01*
X120072520Y-115180950D01*
X120072520Y-122132920D01*
G37*
%TD*%
D10*
%TO.P,C1,1*%
%TO.N,+5V*%
X87630000Y-75565000D03*
%TO.P,C1,2*%
%TO.N,GND*%
X92630000Y-75565000D03*
%TD*%
D11*
%TO.P,U28,1,OEa*%
%TO.N,GND*%
X100975000Y-80015000D03*
D12*
%TO.P,U28,2,I0a*%
%TO.N,A8*%
X100975000Y-82555000D03*
%TO.P,U28,3,O3b*%
%TO.N,A9b*%
X100975000Y-85095000D03*
%TO.P,U28,4,I1a*%
%TO.N,A10*%
X100975000Y-87635000D03*
%TO.P,U28,5,O2b*%
%TO.N,A11b*%
X100975000Y-90175000D03*
%TO.P,U28,6,I2a*%
%TO.N,A12*%
X100975000Y-92715000D03*
%TO.P,U28,7,O1b*%
%TO.N,A13b*%
X100975000Y-95255000D03*
%TO.P,U28,8,I3a*%
%TO.N,A14*%
X100975000Y-97795000D03*
%TO.P,U28,9,O0b*%
%TO.N,A15b*%
X100975000Y-100335000D03*
%TO.P,U28,10,GND*%
%TO.N,GND*%
X100975000Y-102875000D03*
%TO.P,U28,11,I0b*%
%TO.N,A15*%
X108595000Y-102875000D03*
%TO.P,U28,12,O3a*%
%TO.N,A14b*%
X108595000Y-100335000D03*
%TO.P,U28,13,I1b*%
%TO.N,A13*%
X108595000Y-97795000D03*
%TO.P,U28,14,O2a*%
%TO.N,A12b*%
X108595000Y-95255000D03*
%TO.P,U28,15,I2b*%
%TO.N,A11*%
X108595000Y-92715000D03*
%TO.P,U28,16,O1a*%
%TO.N,A10b*%
X108595000Y-90175000D03*
%TO.P,U28,17,I3b*%
%TO.N,A9*%
X108595000Y-87635000D03*
%TO.P,U28,18,O0a*%
%TO.N,A8b*%
X108595000Y-85095000D03*
%TO.P,U28,19,OEb*%
%TO.N,GND*%
X108595000Y-82555000D03*
%TO.P,U28,20,VCC*%
%TO.N,+5V*%
X108595000Y-80015000D03*
%TD*%
D10*
%TO.P,C2,1*%
%TO.N,+5V*%
X102275000Y-75565000D03*
%TO.P,C2,2*%
%TO.N,GND*%
X107275000Y-75565000D03*
%TD*%
D13*
%TO.P,J2,1,Pin_1*%
%TO.N,A0b*%
X86985000Y-48843900D03*
D14*
%TO.P,J2,2,Pin_2*%
%TO.N,A1b*%
X86985000Y-46303900D03*
%TO.P,J2,3,Pin_3*%
%TO.N,A2b*%
X89525000Y-48843900D03*
%TO.P,J2,4,Pin_4*%
%TO.N,A3b*%
X89525000Y-46303900D03*
%TO.P,J2,5,Pin_5*%
%TO.N,A4b*%
X92065000Y-48843900D03*
%TO.P,J2,6,Pin_6*%
%TO.N,A5b*%
X92065000Y-46303900D03*
%TO.P,J2,7,Pin_7*%
%TO.N,A6b*%
X94605000Y-48843900D03*
%TO.P,J2,8,Pin_8*%
%TO.N,A7b*%
X94605000Y-46303900D03*
%TO.P,J2,9,Pin_9*%
%TO.N,A8b*%
X97145000Y-48843900D03*
%TO.P,J2,10,Pin_10*%
%TO.N,A9b*%
X97145000Y-46303900D03*
%TO.P,J2,11,Pin_11*%
%TO.N,A10b*%
X99685000Y-48843900D03*
%TO.P,J2,12,Pin_12*%
%TO.N,A11b*%
X99685000Y-46303900D03*
%TO.P,J2,13,Pin_13*%
%TO.N,A12b*%
X102225000Y-48843900D03*
%TO.P,J2,14,Pin_14*%
%TO.N,A13b*%
X102225000Y-46303900D03*
%TO.P,J2,15,Pin_15*%
%TO.N,A14b*%
X104765000Y-48843900D03*
%TO.P,J2,16,Pin_16*%
%TO.N,A15b*%
X104765000Y-46303900D03*
%TO.P,J2,17,Pin_17*%
%TO.N,D0*%
X107305000Y-48843900D03*
%TO.P,J2,18,Pin_18*%
%TO.N,D1*%
X107305000Y-46303900D03*
%TO.P,J2,19,Pin_19*%
%TO.N,D2*%
X109845000Y-48843900D03*
%TO.P,J2,20,Pin_20*%
%TO.N,D3*%
X109845000Y-46303900D03*
%TO.P,J2,21,Pin_21*%
%TO.N,D4*%
X112385000Y-48843900D03*
%TO.P,J2,22,Pin_22*%
%TO.N,D5*%
X112385000Y-46303900D03*
%TO.P,J2,23,Pin_23*%
%TO.N,D6*%
X114925000Y-48843900D03*
%TO.P,J2,24,Pin_24*%
%TO.N,D7*%
X114925000Y-46303900D03*
%TO.P,J2,25,Pin_25*%
%TO.N,unconnected-(J2-Pad25)*%
X117465000Y-48843900D03*
%TO.P,J2,26,Pin_26*%
%TO.N,IORb*%
X117465000Y-46303900D03*
%TO.P,J2,27,Pin_27*%
%TO.N,unconnected-(J2-Pad27)*%
X120005000Y-48843900D03*
%TO.P,J2,28,Pin_28*%
%TO.N,IOWb*%
X120005000Y-46303900D03*
%TO.P,J2,29,Pin_29*%
%TO.N,unconnected-(J2-Pad29)*%
X122545000Y-48843900D03*
%TO.P,J2,30,Pin_30*%
%TO.N,MEMRb*%
X122545000Y-46303900D03*
%TO.P,J2,31,Pin_31*%
%TO.N,unconnected-(J2-Pad31)*%
X125085000Y-48843900D03*
%TO.P,J2,32,Pin_32*%
%TO.N,MEMWb*%
X125085000Y-46303900D03*
%TO.P,J2,33,Pin_33*%
%TO.N,unconnected-(J2-Pad33)*%
X127625000Y-48843900D03*
%TO.P,J2,34,Pin_34*%
%TO.N,WREQb*%
X127625000Y-46303900D03*
%TD*%
D10*
%TO.P,C3,1*%
%TO.N,+5V*%
X119420000Y-53975000D03*
%TO.P,C3,2*%
%TO.N,GND*%
X124420000Y-53975000D03*
%TD*%
D11*
%TO.P,U30,1,OEa*%
%TO.N,GND*%
X118120000Y-58410000D03*
D12*
%TO.P,U30,2,I1*%
%TO.N,~{MEMR}*%
X118120000Y-60950000D03*
%TO.P,U30,3,O1a*%
%TO.N,MEMRb*%
X118120000Y-63490000D03*
%TO.P,U30,4,I2*%
%TO.N,~{MEMW}*%
X118120000Y-66030000D03*
%TO.P,U30,5,O2a*%
%TO.N,MEMWb*%
X118120000Y-68570000D03*
%TO.P,U30,6,I3*%
%TO.N,~{IOR}*%
X118120000Y-71110000D03*
%TO.P,U30,7,O3a*%
%TO.N,IORb*%
X118120000Y-73650000D03*
%TO.P,U30,8,GND*%
%TO.N,GND*%
X118120000Y-76190000D03*
%TO.P,U30,9,O4a*%
%TO.N,IOWb*%
X125740000Y-76190000D03*
%TO.P,U30,10,I4*%
%TO.N,~{IOW}*%
X125740000Y-73650000D03*
%TO.P,U30,11,O5b*%
%TO.N,WREQb*%
X125740000Y-71110000D03*
%TO.P,U30,12,I5*%
%TO.N,~{WREQ}*%
X125740000Y-68570000D03*
%TO.P,U30,13,O6b*%
%TO.N,unconnected-(U30-Pad13)*%
X125740000Y-66030000D03*
%TO.P,U30,14,I6*%
%TO.N,unconnected-(U30-Pad14)*%
X125740000Y-63490000D03*
%TO.P,U30,15,OEb*%
%TO.N,GND*%
X125740000Y-60950000D03*
%TO.P,U30,16,VCC*%
%TO.N,+5V*%
X125740000Y-58410000D03*
%TD*%
D11*
%TO.P,RN1,1,common*%
%TO.N,+5V*%
X114935000Y-82550000D03*
D12*
%TO.P,RN1,2,R1*%
%TO.N,D0*%
X114935000Y-85090000D03*
%TO.P,RN1,3,R2*%
%TO.N,D1*%
X114935000Y-87630000D03*
%TO.P,RN1,4,R3*%
%TO.N,D2*%
X114935000Y-90170000D03*
%TO.P,RN1,5,R4*%
%TO.N,D3*%
X114935000Y-92710000D03*
%TO.P,RN1,6,R5*%
%TO.N,D4*%
X114935000Y-95250000D03*
%TO.P,RN1,7,R6*%
%TO.N,D5*%
X114935000Y-97790000D03*
%TO.P,RN1,8,R7*%
%TO.N,D6*%
X114935000Y-100330000D03*
%TO.P,RN1,9,R8*%
%TO.N,D7*%
X114935000Y-102870000D03*
%TD*%
D15*
%TO.P,CON1,B1,5V*%
%TO.N,+5V*%
X74475500Y-113599800D03*
%TO.P,CON1,B2,5V*%
X77777500Y-113599800D03*
%TO.P,CON1,B3,~{DSRAM}*%
X80825500Y-113599800D03*
%TO.P,CON1,B4,~{CEROM2}*%
%TO.N,unconnected-(CON1-PadB4)*%
X84127500Y-113599800D03*
%TO.P,CON1,B5,~{MEMR*%
%TO.N,~{MEMR}*%
X87429500Y-113599800D03*
%TO.P,CON1,B6,~{MEMW*%
%TO.N,~{MEMW}*%
X90477500Y-113599800D03*
%TO.P,CON1,B7,~{IOR}*%
%TO.N,~{IOR}*%
X93636531Y-113599800D03*
%TO.P,CON1,B8,~{IOW}*%
%TO.N,~{IOW}*%
X96827500Y-113599800D03*
%TO.P,CON1,B9,N.C.*%
%TO.N,unconnected-(CON1-PadB9)*%
X99986531Y-113599800D03*
%TO.P,CON1,B10,~{MREQ}*%
%TO.N,~{WREQ}*%
X103288531Y-113599800D03*
%TO.P,CON1,B11,CON*%
%TO.N,unconnected-(CON1-PadB11)*%
X106336530Y-113599800D03*
%TO.P,CON1,B12,~{RAS1}*%
%TO.N,unconnected-(CON1-PadB12)*%
X109638531Y-113599800D03*
%TO.P,CON1,B13,~{CAS1}*%
%TO.N,unconnected-(CON1-PadB13)*%
X112686531Y-113599800D03*
%TO.P,CON1,B14,RAMA7*%
%TO.N,unconnected-(CON1-PadB14)*%
X115988531Y-113599800D03*
%TO.P,CON1,B15,~{RAS2}*%
%TO.N,unconnected-(CON1-PadB15)*%
X119179500Y-113599800D03*
%TO.P,CON1,B16,~{CAS2}*%
%TO.N,unconnected-(CON1-PadB16)*%
X122338531Y-113599800D03*
%TO.P,CON1,B17,~{MUX}*%
%TO.N,unconnected-(CON1-PadB17)*%
X125529500Y-113599800D03*
%TO.P,CON1,B18,A14*%
%TO.N,A14*%
X128688531Y-113599800D03*
%TO.P,CON1,B19,A15*%
%TO.N,A15*%
X131879500Y-113599800D03*
%TO.P,CON1,B20,N.C.*%
%TO.N,unconnected-(CON1-PadB20)*%
X134927500Y-113599800D03*
%TO.P,CON1,B21,GND*%
%TO.N,GND*%
X138229500Y-113599800D03*
%TO.P,CON1,B22,GND*%
X141388523Y-113599800D03*
%TD*%
D11*
%TO.P,U27,1,OEa*%
%TO.N,GND*%
X87005000Y-80015000D03*
D12*
%TO.P,U27,2,I0a*%
%TO.N,A0*%
X87005000Y-82555000D03*
%TO.P,U27,3,O3b*%
%TO.N,A1b*%
X87005000Y-85095000D03*
%TO.P,U27,4,I1a*%
%TO.N,A2*%
X87005000Y-87635000D03*
%TO.P,U27,5,O2b*%
%TO.N,A3b*%
X87005000Y-90175000D03*
%TO.P,U27,6,I2a*%
%TO.N,A4*%
X87005000Y-92715000D03*
%TO.P,U27,7,O1b*%
%TO.N,A5b*%
X87005000Y-95255000D03*
%TO.P,U27,8,I3a*%
%TO.N,A6*%
X87005000Y-97795000D03*
%TO.P,U27,9,O0b*%
%TO.N,A7b*%
X87005000Y-100335000D03*
%TO.P,U27,10,GND*%
%TO.N,GND*%
X87005000Y-102875000D03*
%TO.P,U27,11,I0b*%
%TO.N,A7*%
X94625000Y-102875000D03*
%TO.P,U27,12,O3a*%
%TO.N,A6b*%
X94625000Y-100335000D03*
%TO.P,U27,13,I1b*%
%TO.N,A5*%
X94625000Y-97795000D03*
%TO.P,U27,14,O2a*%
%TO.N,A4b*%
X94625000Y-95255000D03*
%TO.P,U27,15,I2b*%
%TO.N,A3*%
X94625000Y-92715000D03*
%TO.P,U27,16,O1a*%
%TO.N,A2b*%
X94625000Y-90175000D03*
%TO.P,U27,17,I3b*%
%TO.N,A1*%
X94625000Y-87635000D03*
%TO.P,U27,18,O0a*%
%TO.N,A0b*%
X94625000Y-85095000D03*
%TO.P,U27,19,OEb*%
%TO.N,GND*%
X94625000Y-82555000D03*
%TO.P,U27,20,VCC*%
%TO.N,+5V*%
X94625000Y-80015000D03*
%TD*%
D16*
%TO.N,A2*%
X84743800Y-107347900D03*
%TO.N,A6*%
X92338300Y-109144500D03*
%TO.N,A9*%
X105259500Y-102295900D03*
%TO.N,A11*%
X106597700Y-100982200D03*
%TO.N,A14*%
X104529100Y-106358800D03*
%TO.N,+5V*%
X106626700Y-78305500D03*
%TO.N,GND*%
X112398600Y-76190000D03*
X91613000Y-102796200D03*
X121373900Y-59307700D03*
X103085100Y-74341700D03*
%TD*%
D17*
%TO.N,A2*%
X87005000Y-87635000D02*
X87005000Y-88760300D01*
X87005000Y-88760300D02*
X86723700Y-88760300D01*
X84743800Y-90740200D02*
X84743800Y-107347900D01*
X86723700Y-88760300D02*
X84743800Y-90740200D01*
%TO.N,A6*%
X92338300Y-102003000D02*
X92338300Y-109144500D01*
X87005000Y-97795000D02*
X88130300Y-97795000D01*
X88130300Y-97795000D02*
X92338300Y-102003000D01*
%TO.N,A9*%
X105872400Y-91201600D02*
X105872400Y-101683000D01*
X108595000Y-87635000D02*
X108595000Y-88760300D01*
X105872400Y-101683000D02*
X105259500Y-102295900D01*
X108595000Y-88760300D02*
X108313700Y-88760300D01*
X108313700Y-88760300D02*
X105872400Y-91201600D01*
%TO.N,A11*%
X108595000Y-92715000D02*
X108595000Y-93840300D01*
X106597700Y-100982200D02*
X106597700Y-95556300D01*
X106597700Y-95556300D02*
X108313700Y-93840300D01*
X108313700Y-93840300D02*
X108595000Y-93840300D01*
%TO.N,~{MEMR}*%
X93253600Y-109267000D02*
X92631700Y-109888900D01*
X118120000Y-60950000D02*
X118120000Y-62075300D01*
X117838700Y-62075300D02*
X114105500Y-65808500D01*
X101357500Y-101605000D02*
X100650300Y-101605000D01*
X93253600Y-109001700D02*
X93253600Y-109267000D01*
X103982800Y-98979700D02*
X101357500Y-101605000D01*
X103982800Y-81975300D02*
X103982800Y-98979700D01*
X92631700Y-109888900D02*
X90764600Y-109888900D01*
X100650300Y-101605000D02*
X93253600Y-109001700D01*
X114105500Y-65808500D02*
X114105500Y-71852600D01*
X87429500Y-113224000D02*
X87429500Y-113599800D01*
X90764600Y-109888900D02*
X87429500Y-113224000D01*
X114105500Y-71852600D02*
X103982800Y-81975300D01*
X118120000Y-62075300D02*
X117838700Y-62075300D01*
%TO.N,~{MEMW}*%
X104596900Y-100822300D02*
X104596900Y-82393700D01*
X116994700Y-68087800D02*
X117927200Y-67155300D01*
X116994700Y-69995900D02*
X116994700Y-68087800D01*
X90477500Y-113282900D02*
X99180400Y-104580000D01*
X102521000Y-102898200D02*
X104596900Y-100822300D01*
X100869100Y-104580000D02*
X102521000Y-102928100D01*
X102521000Y-102928100D02*
X102521000Y-102898200D01*
X118120000Y-66030000D02*
X118120000Y-67155300D01*
X90477500Y-113599800D02*
X90477500Y-113282900D01*
X104596900Y-82393700D02*
X116994700Y-69995900D01*
X117927200Y-67155300D02*
X118120000Y-67155300D01*
X99180400Y-104580000D02*
X100869100Y-104580000D01*
%TO.N,~{IOR}*%
X105293000Y-100763100D02*
X102971300Y-103084800D01*
X116994700Y-78311000D02*
X108940700Y-86365000D01*
X93636500Y-113094300D02*
X93636500Y-113599800D01*
X108208400Y-86365000D02*
X105293000Y-89280400D01*
X118120000Y-72235300D02*
X117838600Y-72235300D01*
X102971300Y-103759500D02*
X93636500Y-113094300D01*
X105293000Y-89280400D02*
X105293000Y-100763100D01*
X118120000Y-71110000D02*
X118120000Y-72235300D01*
X102971300Y-103084800D02*
X102971300Y-103759500D01*
X116994700Y-73079200D02*
X116994700Y-78311000D01*
X108940700Y-86365000D02*
X108208400Y-86365000D01*
X117838600Y-72235300D02*
X116994700Y-73079200D01*
%TO.N,~{IOW}*%
X125740000Y-74775300D02*
X125458600Y-74775300D01*
X112775400Y-95264400D02*
X108974800Y-99065000D01*
X115304300Y-91440000D02*
X114548300Y-91440000D01*
X124164400Y-76069500D02*
X124164400Y-82579900D01*
X97871200Y-110734500D02*
X96827500Y-110734500D01*
X108270600Y-99065000D02*
X107323000Y-100012600D01*
X96827500Y-113599800D02*
X96827500Y-110734500D01*
X108974800Y-99065000D02*
X108270600Y-99065000D01*
X124164400Y-82579900D02*
X115304300Y-91440000D01*
X107323000Y-101282700D02*
X97871200Y-110734500D01*
X125740000Y-73650000D02*
X125740000Y-74775300D01*
X112775400Y-93212900D02*
X112775400Y-95264400D01*
X125458600Y-74775300D02*
X124164400Y-76069500D01*
X107323000Y-100012600D02*
X107323000Y-101282700D01*
X114548300Y-91440000D02*
X112775400Y-93212900D01*
%TO.N,~{WREQ}*%
X113385000Y-95132200D02*
X113385000Y-97167000D01*
X126870600Y-82374900D02*
X115410100Y-93835400D01*
X125740000Y-68570000D02*
X125740000Y-69695300D01*
X113385000Y-97167000D02*
X108947000Y-101605000D01*
X108947000Y-101605000D02*
X108251400Y-101605000D01*
X126021300Y-69695300D02*
X126870600Y-70544600D01*
X114681800Y-93835400D02*
X113385000Y-95132200D01*
X126870600Y-70544600D02*
X126870600Y-82374900D01*
X125740000Y-69695300D02*
X126021300Y-69695300D01*
X108251400Y-101605000D02*
X103288500Y-106567900D01*
X115410100Y-93835400D02*
X114681800Y-93835400D01*
X103288500Y-106567900D02*
X103288500Y-113599800D01*
%TO.N,A14*%
X128688500Y-113270300D02*
X121777000Y-106358800D01*
X128688500Y-113599800D02*
X128688500Y-113270300D01*
X121777000Y-106358800D02*
X104529100Y-106358800D01*
%TO.N,A15*%
X122978300Y-104450600D02*
X131879500Y-113351800D01*
X131879500Y-113351800D02*
X131879500Y-113599800D01*
X108595000Y-102875000D02*
X109720300Y-102875000D01*
X111295900Y-104450600D02*
X122978300Y-104450600D01*
X109720300Y-102875000D02*
X111295900Y-104450600D01*
%TO.N,A9b*%
X100693700Y-83969700D02*
X100975000Y-83969700D01*
X100975000Y-85095000D02*
X100975000Y-83969700D01*
X98493100Y-47652000D02*
X98493100Y-81769100D01*
X98493100Y-81769100D02*
X100693700Y-83969700D01*
X97145000Y-46303900D02*
X98493100Y-47652000D01*
%TO.N,A11b*%
X100874700Y-47493600D02*
X100874700Y-72708200D01*
X100975000Y-90175000D02*
X100975000Y-89049700D01*
X100874700Y-72708200D02*
X100183700Y-73399200D01*
X100183700Y-76358600D02*
X102100300Y-78275200D01*
X102100300Y-78275200D02*
X102100300Y-88205800D01*
X101256400Y-89049700D02*
X100975000Y-89049700D01*
X99685000Y-46303900D02*
X100874700Y-47493600D01*
X100183700Y-73399200D02*
X100183700Y-76358600D01*
X102100300Y-88205800D02*
X101256400Y-89049700D01*
%TO.N,A0b*%
X90186300Y-79736300D02*
X90186300Y-52045200D01*
X94625000Y-83969700D02*
X94419700Y-83969700D01*
X94625000Y-85095000D02*
X94625000Y-83969700D01*
X90186300Y-52045200D02*
X86985000Y-48843900D01*
X94419700Y-83969700D02*
X90186300Y-79736300D01*
%TO.N,A1b*%
X87005000Y-85095000D02*
X87005000Y-83969700D01*
X88755800Y-54338600D02*
X85325400Y-50908200D01*
X85325400Y-47824300D02*
X86845800Y-46303900D01*
X86845800Y-46303900D02*
X86985000Y-46303900D01*
X88755800Y-82500200D02*
X88755800Y-54338600D01*
X87286300Y-83969700D02*
X88755800Y-82500200D01*
X87005000Y-83969700D02*
X87286300Y-83969700D01*
X85325400Y-50908200D02*
X85325400Y-47824300D01*
%TO.N,A2b*%
X94625000Y-90175000D02*
X94625000Y-89049700D01*
X95750400Y-55069300D02*
X95750400Y-88205600D01*
X95750400Y-88205600D02*
X94906300Y-89049700D01*
X89525000Y-48843900D02*
X95750400Y-55069300D01*
X94906300Y-89049700D02*
X94625000Y-89049700D01*
%TO.N,A4b*%
X94813900Y-94129700D02*
X94625000Y-94129700D01*
X92065000Y-48843900D02*
X96209200Y-52988100D01*
X96209200Y-92734400D02*
X94813900Y-94129700D01*
X94625000Y-95255000D02*
X94625000Y-94129700D01*
X96209200Y-52988100D02*
X96209200Y-92734400D01*
%TO.N,A5b*%
X94120900Y-101464400D02*
X95118700Y-101464400D01*
X97121100Y-99462000D02*
X97121100Y-51682000D01*
X95875000Y-50435900D02*
X95875000Y-45811500D01*
X95875000Y-45811500D02*
X95128600Y-45065100D01*
X95128600Y-45065100D02*
X93303800Y-45065100D01*
X93303800Y-45065100D02*
X92065000Y-46303900D01*
X97121100Y-51682000D02*
X95875000Y-50435900D01*
X88130300Y-95255000D02*
X88130300Y-95473800D01*
X88130300Y-95473800D02*
X94120900Y-101464400D01*
X87005000Y-95255000D02*
X88130300Y-95255000D01*
X95118700Y-101464400D02*
X97121100Y-99462000D01*
%TO.N,A6b*%
X94625000Y-100335000D02*
X94625000Y-99209700D01*
X94906300Y-99209700D02*
X96670700Y-97445300D01*
X94605000Y-50500100D02*
X94605000Y-48843900D01*
X94625000Y-99209700D02*
X94906300Y-99209700D01*
X96670700Y-52565800D02*
X94605000Y-50500100D01*
X96670700Y-97445300D02*
X96670700Y-52565800D01*
%TO.N,A13b*%
X101256300Y-94129700D02*
X100975000Y-94129700D01*
X100975000Y-95255000D02*
X100975000Y-94129700D01*
X103415600Y-47494500D02*
X103415600Y-71441100D01*
X102599600Y-92786400D02*
X101256300Y-94129700D01*
X102225000Y-46303900D02*
X103415600Y-47494500D01*
X102599600Y-78137600D02*
X102599600Y-92786400D01*
X100687000Y-76225000D02*
X102599600Y-78137600D01*
X103415600Y-71441100D02*
X100687000Y-74169700D01*
X100687000Y-74169700D02*
X100687000Y-76225000D01*
%TO.N,A15b*%
X103050000Y-97416000D02*
X101256300Y-99209700D01*
X100975000Y-100335000D02*
X100975000Y-99209700D01*
X103050000Y-77951100D02*
X103050000Y-97416000D01*
X105955600Y-47494500D02*
X105955600Y-69763000D01*
X105955600Y-69763000D02*
X101138400Y-74580200D01*
X101138400Y-76039500D02*
X103050000Y-77951100D01*
X101256300Y-99209700D02*
X100975000Y-99209700D01*
X104765000Y-46303900D02*
X105955600Y-47494500D01*
X101138400Y-74580200D02*
X101138400Y-76039500D01*
%TO.N,IORb*%
X123164700Y-68605300D02*
X118120000Y-73650000D01*
X126284200Y-45831300D02*
X126284200Y-50321800D01*
X123164700Y-53441300D02*
X123164700Y-68605300D01*
X118676000Y-45092900D02*
X125545800Y-45092900D01*
X117465000Y-46303900D02*
X118676000Y-45092900D01*
X125545800Y-45092900D02*
X126284200Y-45831300D01*
X126284200Y-50321800D02*
X123164700Y-53441300D01*
%TO.N,MEMRb*%
X121337400Y-51366300D02*
X121337400Y-47511500D01*
X122106600Y-52135500D02*
X121337400Y-51366300D01*
X122106600Y-60628700D02*
X122106600Y-52135500D01*
X118120000Y-63490000D02*
X119245300Y-63490000D01*
X121337400Y-47511500D02*
X122545000Y-46303900D01*
X119245300Y-63490000D02*
X122106600Y-60628700D01*
%TO.N,MEMWb*%
X123815000Y-52154100D02*
X123815000Y-47573900D01*
X122608200Y-53360900D02*
X123815000Y-52154100D01*
X118120000Y-68570000D02*
X122608200Y-64081800D01*
X122608200Y-64081800D02*
X122608200Y-53360900D01*
X123815000Y-47573900D02*
X125085000Y-46303900D01*
%TO.N,A7b*%
X87369200Y-91445000D02*
X89206200Y-89608000D01*
X87005000Y-100335000D02*
X87005000Y-99209700D01*
X85866300Y-92259000D02*
X86680300Y-91445000D01*
X87005000Y-99209700D02*
X86723700Y-99209700D01*
X89206200Y-53852600D02*
X85790500Y-50436900D01*
X85866300Y-98352300D02*
X85866300Y-92259000D01*
X86212800Y-47573900D02*
X93335000Y-47573900D01*
X85790500Y-50436900D02*
X85790500Y-47996200D01*
X85790500Y-47996200D02*
X86212800Y-47573900D01*
X89206200Y-89608000D02*
X89206200Y-53852600D01*
X93335000Y-47573900D02*
X94605000Y-46303900D01*
X86723700Y-99209700D02*
X85866300Y-98352300D01*
X86680300Y-91445000D02*
X87369200Y-91445000D01*
%TO.N,+5V*%
X112117900Y-72814300D02*
X112117900Y-61277100D01*
X106626700Y-78305500D02*
X105015500Y-78305500D01*
X79231600Y-102226000D02*
X74545300Y-97539700D01*
X77777500Y-113599800D02*
X77777500Y-112067500D01*
X74475500Y-113599800D02*
X74475500Y-110944500D01*
X106626700Y-78305500D02*
X112117900Y-72814300D01*
X105015500Y-78305500D02*
X102275000Y-75565000D01*
X112117900Y-61277100D02*
X119420000Y-53975000D01*
X74545300Y-97987100D02*
X74545300Y-97539700D01*
X79231600Y-112005900D02*
X80825500Y-113599800D01*
X74545300Y-88649700D02*
X87630000Y-75565000D01*
X77777500Y-112067500D02*
X78085000Y-111760000D01*
X78085000Y-111105000D02*
X76200000Y-109220000D01*
X78085000Y-111760000D02*
X78085000Y-111105000D01*
X79231600Y-112005900D02*
X79231600Y-102226000D01*
X74475500Y-110944500D02*
X76200000Y-109220000D01*
X74545300Y-97539700D02*
X74545300Y-88649700D01*
%TO.N,GND*%
X107275000Y-75565000D02*
X104308400Y-75565000D01*
X118120000Y-58410000D02*
X119245300Y-58410000D01*
X92630000Y-79716000D02*
X94343700Y-81429700D01*
X121373900Y-59307700D02*
X120143000Y-59307700D01*
X141388500Y-113303400D02*
X141388500Y-113599800D01*
X125740000Y-60950000D02*
X125740000Y-60466100D01*
X125740000Y-60466100D02*
X125740000Y-59824700D01*
X124420000Y-53975000D02*
X124420000Y-58786000D01*
X92630000Y-75565000D02*
X92630000Y-79716000D01*
X94343700Y-81429700D02*
X94625000Y-81429700D01*
X124614700Y-62919200D02*
X124614700Y-68851300D01*
X138819600Y-110734500D02*
X139033100Y-110947900D01*
X138229500Y-113599800D02*
X138229500Y-110734500D01*
X124420000Y-58786000D02*
X125458700Y-59824700D01*
X87005000Y-102875000D02*
X88130300Y-102875000D01*
X120143000Y-59307700D02*
X119245300Y-58410000D01*
X125740000Y-62075300D02*
X125458600Y-62075300D01*
X108595000Y-82555000D02*
X108595000Y-81429700D01*
X125458700Y-59824700D02*
X125740000Y-59824700D01*
X118120000Y-76190000D02*
X118120000Y-75064700D01*
X140960000Y-60466100D02*
X125740000Y-60466100D01*
X125458600Y-62075300D02*
X124614700Y-62919200D01*
X118401300Y-75064700D02*
X118120000Y-75064700D01*
X104308400Y-75565000D02*
X103085100Y-74341700D01*
X125740000Y-60950000D02*
X125740000Y-62075300D01*
X139033100Y-110947900D02*
X141388500Y-113303400D01*
X88130300Y-102875000D02*
X88209100Y-102796200D01*
X108595000Y-81429700D02*
X108876300Y-81429700D01*
X140960000Y-109021000D02*
X139033100Y-110947900D01*
X124614700Y-68851300D02*
X118401300Y-75064700D01*
X88209100Y-102796200D02*
X91613000Y-102796200D01*
X108876300Y-81429700D02*
X112398600Y-77907400D01*
X94625000Y-82555000D02*
X94625000Y-81429700D01*
X112398600Y-77907400D02*
X112398600Y-76190000D01*
X138229500Y-110734500D02*
X138819600Y-110734500D01*
%TD*%
%TA.AperFunction,Conductor*%
%TO.N,+5V*%
G36*
X75497121Y-96211402D02*
G01*
X75543614Y-96265058D01*
X75555000Y-96317400D01*
X75555000Y-107621400D01*
X78332789Y-110399189D01*
X78366815Y-110461501D01*
X78361750Y-110532316D01*
X78319203Y-110589152D01*
X78252683Y-110613963D01*
X78208119Y-110609158D01*
X78204228Y-110608013D01*
X78049236Y-110575633D01*
X78035175Y-110576756D01*
X78031500Y-110586863D01*
X78031500Y-112701400D01*
X77523500Y-112701400D01*
X77523500Y-110589103D01*
X77519364Y-110575017D01*
X77506386Y-110572968D01*
X77485541Y-110575380D01*
X77475665Y-110577336D01*
X77249411Y-110641359D01*
X77239967Y-110644871D01*
X77026865Y-110744243D01*
X77018100Y-110749222D01*
X76823642Y-110881376D01*
X76815766Y-110887708D01*
X76644945Y-111049245D01*
X76638184Y-111056754D01*
X76495382Y-111243531D01*
X76489918Y-111252010D01*
X76378812Y-111459222D01*
X76374773Y-111468468D01*
X76298226Y-111690775D01*
X76295715Y-111700556D01*
X76255510Y-111933317D01*
X76254655Y-111941189D01*
X76253564Y-111965205D01*
X76253500Y-111968038D01*
X76253500Y-112575400D01*
X76233498Y-112643521D01*
X76179842Y-112690014D01*
X76127500Y-112701400D01*
X76125500Y-112701400D01*
X76057379Y-112681398D01*
X76010886Y-112627742D01*
X75999500Y-112575400D01*
X75999500Y-112016696D01*
X75999298Y-112011664D01*
X75985196Y-111836389D01*
X75983584Y-111826437D01*
X75927499Y-111598100D01*
X75924316Y-111588530D01*
X75832444Y-111372095D01*
X75827770Y-111363156D01*
X75702484Y-111164204D01*
X75696439Y-111156123D01*
X75540950Y-110979756D01*
X75533689Y-110972745D01*
X75352007Y-110823509D01*
X75343725Y-110817753D01*
X75140517Y-110699483D01*
X75131412Y-110695121D01*
X74911912Y-110610862D01*
X74902235Y-110608014D01*
X74747236Y-110575633D01*
X74733175Y-110576756D01*
X74729500Y-110586863D01*
X74729500Y-112701400D01*
X74221500Y-112701400D01*
X74221500Y-110589103D01*
X74217364Y-110575017D01*
X74204386Y-110572968D01*
X74183541Y-110575380D01*
X74173665Y-110577336D01*
X73947411Y-110641359D01*
X73937967Y-110644871D01*
X73829250Y-110695567D01*
X73759059Y-110706228D01*
X73694246Y-110677248D01*
X73655389Y-110617829D01*
X73650000Y-110581372D01*
X73650000Y-96317400D01*
X73670002Y-96249279D01*
X73723658Y-96202786D01*
X73776000Y-96191400D01*
X75429000Y-96191400D01*
X75497121Y-96211402D01*
G37*
%TD.AperFunction*%
%TD*%
%TA.AperFunction,Conductor*%
%TO.N,GND*%
G36*
X142807121Y-51761402D02*
G01*
X142853614Y-51815058D01*
X142865000Y-51867400D01*
X142865000Y-111123856D01*
X142844998Y-111191977D01*
X142791342Y-111238470D01*
X142721068Y-111248574D01*
X142656488Y-111219080D01*
X142632379Y-111190998D01*
X142615501Y-111164196D01*
X142609462Y-111156123D01*
X142453973Y-110979756D01*
X142446712Y-110972745D01*
X142265030Y-110823509D01*
X142256748Y-110817753D01*
X142053540Y-110699483D01*
X142044435Y-110695121D01*
X141824935Y-110610862D01*
X141815258Y-110608014D01*
X141660259Y-110575633D01*
X141646198Y-110576756D01*
X141642523Y-110586863D01*
X141642523Y-111431400D01*
X141134523Y-111431400D01*
X141134523Y-110589103D01*
X141130387Y-110575017D01*
X141117409Y-110572968D01*
X141096564Y-110575380D01*
X141086688Y-110577336D01*
X140860434Y-110641359D01*
X140850990Y-110644871D01*
X140637888Y-110744243D01*
X140629123Y-110749222D01*
X140434665Y-110881376D01*
X140426789Y-110887708D01*
X140255968Y-111049245D01*
X140249207Y-111056754D01*
X140106405Y-111243531D01*
X140100941Y-111252010D01*
X140040388Y-111364941D01*
X139990570Y-111415524D01*
X139929344Y-111431400D01*
X139693755Y-111431400D01*
X139625634Y-111411398D01*
X139585088Y-111367049D01*
X139584468Y-111367440D01*
X139582305Y-111364005D01*
X139582091Y-111363771D01*
X139581766Y-111363149D01*
X139456484Y-111164204D01*
X139450439Y-111156123D01*
X139294950Y-110979756D01*
X139287689Y-110972745D01*
X139102097Y-110820297D01*
X139103449Y-110818651D01*
X139064561Y-110770332D01*
X139055000Y-110722187D01*
X139055000Y-63554568D01*
X139407382Y-63554568D01*
X139436208Y-63803699D01*
X139437587Y-63808573D01*
X139437588Y-63808577D01*
X139476526Y-63946181D01*
X139504494Y-64045017D01*
X139506628Y-64049592D01*
X139506630Y-64049599D01*
X139608347Y-64267731D01*
X139610484Y-64272313D01*
X139613326Y-64276494D01*
X139613326Y-64276495D01*
X139748605Y-64475552D01*
X139748608Y-64475556D01*
X139751451Y-64479739D01*
X139754928Y-64483416D01*
X139754929Y-64483417D01*
X139855238Y-64589491D01*
X139923767Y-64661959D01*
X139927793Y-64665037D01*
X139927794Y-64665038D01*
X140118981Y-64811212D01*
X140118985Y-64811215D01*
X140123001Y-64814285D01*
X140344026Y-64932797D01*
X140348807Y-64934443D01*
X140348811Y-64934445D01*
X140574538Y-65012169D01*
X140581156Y-65014448D01*
X140684689Y-65032331D01*
X140824380Y-65056460D01*
X140824386Y-65056461D01*
X140828290Y-65057135D01*
X140832251Y-65057315D01*
X140832252Y-65057315D01*
X140856931Y-65058436D01*
X140856950Y-65058436D01*
X140858350Y-65058500D01*
X141033015Y-65058500D01*
X141035523Y-65058298D01*
X141035528Y-65058298D01*
X141214944Y-65043863D01*
X141214949Y-65043862D01*
X141219985Y-65043457D01*
X141224893Y-65042252D01*
X141224896Y-65042251D01*
X141458625Y-64984841D01*
X141463539Y-64983634D01*
X141468191Y-64981659D01*
X141468195Y-64981658D01*
X141689741Y-64887617D01*
X141689742Y-64887617D01*
X141694396Y-64885641D01*
X141906615Y-64752000D01*
X142094738Y-64586147D01*
X142253924Y-64392351D01*
X142380078Y-64175596D01*
X142469955Y-63941461D01*
X142521241Y-63695967D01*
X142532618Y-63445432D01*
X142503792Y-63196301D01*
X142464810Y-63058539D01*
X142436884Y-62959852D01*
X142436883Y-62959850D01*
X142435506Y-62954983D01*
X142433372Y-62950408D01*
X142433370Y-62950401D01*
X142331653Y-62732269D01*
X142331651Y-62732265D01*
X142329516Y-62727687D01*
X142326674Y-62723505D01*
X142191395Y-62524448D01*
X142191392Y-62524444D01*
X142188549Y-62520261D01*
X142087925Y-62413853D01*
X142019713Y-62341721D01*
X142016233Y-62338041D01*
X142012206Y-62334962D01*
X141821019Y-62188788D01*
X141821015Y-62188785D01*
X141816999Y-62185715D01*
X141595974Y-62067203D01*
X141591193Y-62065557D01*
X141591189Y-62065555D01*
X141363633Y-61987201D01*
X141358844Y-61985552D01*
X141255311Y-61967669D01*
X141115620Y-61943540D01*
X141115614Y-61943539D01*
X141111710Y-61942865D01*
X141107749Y-61942685D01*
X141107748Y-61942685D01*
X141083069Y-61941564D01*
X141083050Y-61941564D01*
X141081650Y-61941500D01*
X140906985Y-61941500D01*
X140904477Y-61941702D01*
X140904472Y-61941702D01*
X140725056Y-61956137D01*
X140725051Y-61956138D01*
X140720015Y-61956543D01*
X140715107Y-61957748D01*
X140715104Y-61957749D01*
X140483326Y-62014680D01*
X140476461Y-62016366D01*
X140471809Y-62018341D01*
X140471805Y-62018342D01*
X140351061Y-62069595D01*
X140245604Y-62114359D01*
X140033385Y-62248000D01*
X139845262Y-62413853D01*
X139686076Y-62607649D01*
X139559922Y-62824404D01*
X139470045Y-63058539D01*
X139418759Y-63304033D01*
X139407382Y-63554568D01*
X139055000Y-63554568D01*
X139055000Y-51867400D01*
X139075002Y-51799279D01*
X139128658Y-51752786D01*
X139181000Y-51741400D01*
X142739000Y-51741400D01*
X142807121Y-51761402D01*
G37*
%TD.AperFunction*%
%TD*%
M02*
