%FSLAX45Y45*%
G04 Gerber Fmt 4.5, Leading zero omitted, Abs format (unit mm)*
G04 Created by KiCad (PCBNEW (6.0.6)) date 2022-07-31 20:56:36*
%MOMM*%
%LPD*%
G01*
G04 APERTURE LIST*
%TA.AperFunction,Profile*%
%ADD10C,0.100000*%
%TD*%
%TA.AperFunction,Profile*%
%ADD11C,0.254000*%
%TD*%
%ADD12C,0.200000*%
%ADD13C,0.040000*%
%ADD14C,0.080000*%
%ADD15C,0.100000*%
G04 APERTURE END LIST*
D10*
X13817500Y-7113140D02*
G75*
G03*
X13817500Y-7113140I-317500J0D01*
G01*
D11*
X7365000Y-3091340D02*
X14265001Y-3091340D01*
X7161801Y-12199440D02*
G75*
G03*
X7361800Y-12399439I199999J0D01*
G01*
D10*
X8517500Y-7113140D02*
G75*
G03*
X8517500Y-7113140I-317500J0D01*
G01*
D11*
X14261802Y-12399440D02*
X7361800Y-12399440D01*
X7365000Y-3091340D02*
G75*
G03*
X7165000Y-3291340I0J-200000D01*
G01*
X14461801Y-12199440D02*
X14465001Y-3291340D01*
X14465000Y-3291340D02*
G75*
G03*
X14265001Y-3091340I-200000J0D01*
G01*
X14261801Y-12399441D02*
G75*
G03*
X14461801Y-12199440I-1J200001D01*
G01*
X7161800Y-12199440D02*
X7165000Y-3291340D01*
D12*
D13*
X8454380Y-10714790D02*
X8494380Y-10754790D01*
X8494380Y-10714790D02*
X8454380Y-10754790D01*
X9141300Y-10259620D02*
X9181300Y-10299620D01*
X9181300Y-10259620D02*
X9141300Y-10299620D01*
X9213830Y-10894450D02*
X9253830Y-10934450D01*
X9253830Y-10894450D02*
X9213830Y-10934450D01*
X10288510Y-7414170D02*
X10328510Y-7454170D01*
X10328510Y-7414170D02*
X10288510Y-7454170D01*
X10432910Y-10615880D02*
X10472910Y-10655880D01*
X10472910Y-10615880D02*
X10432910Y-10655880D01*
X10505950Y-10209590D02*
X10545950Y-10249590D01*
X10545950Y-10209590D02*
X10505950Y-10249590D01*
X10639770Y-10078220D02*
X10679770Y-10118220D01*
X10679770Y-10078220D02*
X10639770Y-10118220D01*
X10642670Y-7810550D02*
X10682670Y-7850550D01*
X10682670Y-7810550D02*
X10642670Y-7850550D01*
X11219860Y-7599000D02*
X11259860Y-7639000D01*
X11259860Y-7599000D02*
X11219860Y-7639000D01*
X12117390Y-5910770D02*
X12157390Y-5950770D01*
X12157390Y-5910770D02*
X12117390Y-5950770D01*
D14*
X8740500Y-8001500D02*
G75*
G03*
X8740500Y-8001500I-40000J0D01*
G01*
X8740500Y-8255500D02*
G75*
G03*
X8740500Y-8255500I-40000J0D01*
G01*
X8740500Y-8509500D02*
G75*
G03*
X8740500Y-8509500I-40000J0D01*
G01*
X8740500Y-8763500D02*
G75*
G03*
X8740500Y-8763500I-40000J0D01*
G01*
X8740500Y-9017500D02*
G75*
G03*
X8740500Y-9017500I-40000J0D01*
G01*
X8740500Y-9271500D02*
G75*
G03*
X8740500Y-9271500I-40000J0D01*
G01*
X8740500Y-9525500D02*
G75*
G03*
X8740500Y-9525500I-40000J0D01*
G01*
X8740500Y-9779500D02*
G75*
G03*
X8740500Y-9779500I-40000J0D01*
G01*
X8740500Y-10033500D02*
G75*
G03*
X8740500Y-10033500I-40000J0D01*
G01*
X8740500Y-10287500D02*
G75*
G03*
X8740500Y-10287500I-40000J0D01*
G01*
X8803000Y-7556500D02*
G75*
G03*
X8803000Y-7556500I-40000J0D01*
G01*
X9303000Y-7556500D02*
G75*
G03*
X9303000Y-7556500I-40000J0D01*
G01*
X9502500Y-8001500D02*
G75*
G03*
X9502500Y-8001500I-40000J0D01*
G01*
X9502500Y-8255500D02*
G75*
G03*
X9502500Y-8255500I-40000J0D01*
G01*
X9502500Y-8509500D02*
G75*
G03*
X9502500Y-8509500I-40000J0D01*
G01*
X9502500Y-8763500D02*
G75*
G03*
X9502500Y-8763500I-40000J0D01*
G01*
X9502500Y-9017500D02*
G75*
G03*
X9502500Y-9017500I-40000J0D01*
G01*
X9502500Y-9271500D02*
G75*
G03*
X9502500Y-9271500I-40000J0D01*
G01*
X9502500Y-9525500D02*
G75*
G03*
X9502500Y-9525500I-40000J0D01*
G01*
X9502500Y-9779500D02*
G75*
G03*
X9502500Y-9779500I-40000J0D01*
G01*
X9502500Y-10033500D02*
G75*
G03*
X9502500Y-10033500I-40000J0D01*
G01*
X9502500Y-10287500D02*
G75*
G03*
X9502500Y-10287500I-40000J0D01*
G01*
X10137500Y-8001500D02*
G75*
G03*
X10137500Y-8001500I-40000J0D01*
G01*
X10137500Y-8255500D02*
G75*
G03*
X10137500Y-8255500I-40000J0D01*
G01*
X10137500Y-8509500D02*
G75*
G03*
X10137500Y-8509500I-40000J0D01*
G01*
X10137500Y-8763500D02*
G75*
G03*
X10137500Y-8763500I-40000J0D01*
G01*
X10137500Y-9017500D02*
G75*
G03*
X10137500Y-9017500I-40000J0D01*
G01*
X10137500Y-9271500D02*
G75*
G03*
X10137500Y-9271500I-40000J0D01*
G01*
X10137500Y-9525500D02*
G75*
G03*
X10137500Y-9525500I-40000J0D01*
G01*
X10137500Y-9779500D02*
G75*
G03*
X10137500Y-9779500I-40000J0D01*
G01*
X10137500Y-10033500D02*
G75*
G03*
X10137500Y-10033500I-40000J0D01*
G01*
X10137500Y-10287500D02*
G75*
G03*
X10137500Y-10287500I-40000J0D01*
G01*
X10267500Y-7556500D02*
G75*
G03*
X10267500Y-7556500I-40000J0D01*
G01*
X10767500Y-7556500D02*
G75*
G03*
X10767500Y-7556500I-40000J0D01*
G01*
X10899500Y-8001500D02*
G75*
G03*
X10899500Y-8001500I-40000J0D01*
G01*
X10899500Y-8255500D02*
G75*
G03*
X10899500Y-8255500I-40000J0D01*
G01*
X10899500Y-8509500D02*
G75*
G03*
X10899500Y-8509500I-40000J0D01*
G01*
X10899500Y-8763500D02*
G75*
G03*
X10899500Y-8763500I-40000J0D01*
G01*
X10899500Y-9017500D02*
G75*
G03*
X10899500Y-9017500I-40000J0D01*
G01*
X10899500Y-9271500D02*
G75*
G03*
X10899500Y-9271500I-40000J0D01*
G01*
X10899500Y-9525500D02*
G75*
G03*
X10899500Y-9525500I-40000J0D01*
G01*
X10899500Y-9779500D02*
G75*
G03*
X10899500Y-9779500I-40000J0D01*
G01*
X10899500Y-10033500D02*
G75*
G03*
X10899500Y-10033500I-40000J0D01*
G01*
X10899500Y-10287500D02*
G75*
G03*
X10899500Y-10287500I-40000J0D01*
G01*
X11533500Y-8255000D02*
G75*
G03*
X11533500Y-8255000I-40000J0D01*
G01*
X11533500Y-8509000D02*
G75*
G03*
X11533500Y-8509000I-40000J0D01*
G01*
X11533500Y-8763000D02*
G75*
G03*
X11533500Y-8763000I-40000J0D01*
G01*
X11533500Y-9017000D02*
G75*
G03*
X11533500Y-9017000I-40000J0D01*
G01*
X11533500Y-9271000D02*
G75*
G03*
X11533500Y-9271000I-40000J0D01*
G01*
X11533500Y-9525000D02*
G75*
G03*
X11533500Y-9525000I-40000J0D01*
G01*
X11533500Y-9779000D02*
G75*
G03*
X11533500Y-9779000I-40000J0D01*
G01*
X11533500Y-10033000D02*
G75*
G03*
X11533500Y-10033000I-40000J0D01*
G01*
X11533500Y-10287000D02*
G75*
G03*
X11533500Y-10287000I-40000J0D01*
G01*
X11852000Y-5841000D02*
G75*
G03*
X11852000Y-5841000I-40000J0D01*
G01*
X11852000Y-6095000D02*
G75*
G03*
X11852000Y-6095000I-40000J0D01*
G01*
X11852000Y-6349000D02*
G75*
G03*
X11852000Y-6349000I-40000J0D01*
G01*
X11852000Y-6603000D02*
G75*
G03*
X11852000Y-6603000I-40000J0D01*
G01*
X11852000Y-6857000D02*
G75*
G03*
X11852000Y-6857000I-40000J0D01*
G01*
X11852000Y-7111000D02*
G75*
G03*
X11852000Y-7111000I-40000J0D01*
G01*
X11852000Y-7365000D02*
G75*
G03*
X11852000Y-7365000I-40000J0D01*
G01*
X11852000Y-7619000D02*
G75*
G03*
X11852000Y-7619000I-40000J0D01*
G01*
X11982000Y-5397500D02*
G75*
G03*
X11982000Y-5397500I-40000J0D01*
G01*
X12482000Y-5397500D02*
G75*
G03*
X12482000Y-5397500I-40000J0D01*
G01*
X12614000Y-5841000D02*
G75*
G03*
X12614000Y-5841000I-40000J0D01*
G01*
X12614000Y-6095000D02*
G75*
G03*
X12614000Y-6095000I-40000J0D01*
G01*
X12614000Y-6349000D02*
G75*
G03*
X12614000Y-6349000I-40000J0D01*
G01*
X12614000Y-6603000D02*
G75*
G03*
X12614000Y-6603000I-40000J0D01*
G01*
X12614000Y-6857000D02*
G75*
G03*
X12614000Y-6857000I-40000J0D01*
G01*
X12614000Y-7111000D02*
G75*
G03*
X12614000Y-7111000I-40000J0D01*
G01*
X12614000Y-7365000D02*
G75*
G03*
X12614000Y-7365000I-40000J0D01*
G01*
X12614000Y-7619000D02*
G75*
G03*
X12614000Y-7619000I-40000J0D01*
G01*
D15*
X8698500Y-4580390D02*
X8698500Y-4680390D01*
X8648500Y-4630390D02*
X8748500Y-4630390D01*
X8698500Y-4834390D02*
X8698500Y-4934390D01*
X8648500Y-4884390D02*
X8748500Y-4884390D01*
X8952500Y-4580390D02*
X8952500Y-4680390D01*
X8902500Y-4630390D02*
X9002500Y-4630390D01*
X8952500Y-4834390D02*
X8952500Y-4934390D01*
X8902500Y-4884390D02*
X9002500Y-4884390D01*
X9206500Y-4580390D02*
X9206500Y-4680390D01*
X9156500Y-4630390D02*
X9256500Y-4630390D01*
X9206500Y-4834390D02*
X9206500Y-4934390D01*
X9156500Y-4884390D02*
X9256500Y-4884390D01*
X9460500Y-4580390D02*
X9460500Y-4680390D01*
X9410500Y-4630390D02*
X9510500Y-4630390D01*
X9460500Y-4834390D02*
X9460500Y-4934390D01*
X9410500Y-4884390D02*
X9510500Y-4884390D01*
X9714500Y-4580390D02*
X9714500Y-4680390D01*
X9664500Y-4630390D02*
X9764500Y-4630390D01*
X9714500Y-4834390D02*
X9714500Y-4934390D01*
X9664500Y-4884390D02*
X9764500Y-4884390D01*
X9968500Y-4580390D02*
X9968500Y-4680390D01*
X9918500Y-4630390D02*
X10018500Y-4630390D01*
X9968500Y-4834390D02*
X9968500Y-4934390D01*
X9918500Y-4884390D02*
X10018500Y-4884390D01*
X10222500Y-4580390D02*
X10222500Y-4680390D01*
X10172500Y-4630390D02*
X10272500Y-4630390D01*
X10222500Y-4834390D02*
X10222500Y-4934390D01*
X10172500Y-4884390D02*
X10272500Y-4884390D01*
X10476500Y-4580390D02*
X10476500Y-4680390D01*
X10426500Y-4630390D02*
X10526500Y-4630390D01*
X10476500Y-4834390D02*
X10476500Y-4934390D01*
X10426500Y-4884390D02*
X10526500Y-4884390D01*
X10730500Y-4580390D02*
X10730500Y-4680390D01*
X10680500Y-4630390D02*
X10780500Y-4630390D01*
X10730500Y-4834390D02*
X10730500Y-4934390D01*
X10680500Y-4884390D02*
X10780500Y-4884390D01*
X10984500Y-4580390D02*
X10984500Y-4680390D01*
X10934500Y-4630390D02*
X11034500Y-4630390D01*
X10984500Y-4834390D02*
X10984500Y-4934390D01*
X10934500Y-4884390D02*
X11034500Y-4884390D01*
X11238500Y-4580390D02*
X11238500Y-4680390D01*
X11188500Y-4630390D02*
X11288500Y-4630390D01*
X11238500Y-4834390D02*
X11238500Y-4934390D01*
X11188500Y-4884390D02*
X11288500Y-4884390D01*
X11492500Y-4580390D02*
X11492500Y-4680390D01*
X11442500Y-4630390D02*
X11542500Y-4630390D01*
X11492500Y-4834390D02*
X11492500Y-4934390D01*
X11442500Y-4884390D02*
X11542500Y-4884390D01*
X11746500Y-4580390D02*
X11746500Y-4680390D01*
X11696500Y-4630390D02*
X11796500Y-4630390D01*
X11746500Y-4834390D02*
X11746500Y-4934390D01*
X11696500Y-4884390D02*
X11796500Y-4884390D01*
X12000500Y-4580390D02*
X12000500Y-4680390D01*
X11950500Y-4630390D02*
X12050500Y-4630390D01*
X12000500Y-4834390D02*
X12000500Y-4934390D01*
X11950500Y-4884390D02*
X12050500Y-4884390D01*
X12254500Y-4580390D02*
X12254500Y-4680390D01*
X12204500Y-4630390D02*
X12304500Y-4630390D01*
X12254500Y-4834390D02*
X12254500Y-4934390D01*
X12204500Y-4884390D02*
X12304500Y-4884390D01*
X12508500Y-4580390D02*
X12508500Y-4680390D01*
X12458500Y-4630390D02*
X12558500Y-4630390D01*
X12508500Y-4834390D02*
X12508500Y-4934390D01*
X12458500Y-4884390D02*
X12558500Y-4884390D01*
X12762500Y-4580390D02*
X12762500Y-4680390D01*
X12712500Y-4630390D02*
X12812500Y-4630390D01*
X12762500Y-4834390D02*
X12762500Y-4934390D01*
X12712500Y-4884390D02*
X12812500Y-4884390D01*
D12*
X7406719Y-12722616D02*
X7406719Y-12522616D01*
X7454338Y-12522616D01*
X7482909Y-12532140D01*
X7501957Y-12551188D01*
X7511481Y-12570235D01*
X7521005Y-12608330D01*
X7521005Y-12636902D01*
X7511481Y-12674997D01*
X7501957Y-12694045D01*
X7482909Y-12713092D01*
X7454338Y-12722616D01*
X7406719Y-12722616D01*
X7606719Y-12722616D02*
X7606719Y-12589283D01*
X7606719Y-12627378D02*
X7616243Y-12608330D01*
X7625767Y-12598807D01*
X7644814Y-12589283D01*
X7663862Y-12589283D01*
X7730528Y-12722616D02*
X7730528Y-12589283D01*
X7730528Y-12522616D02*
X7721005Y-12532140D01*
X7730528Y-12541664D01*
X7740052Y-12532140D01*
X7730528Y-12522616D01*
X7730528Y-12541664D01*
X7854338Y-12722616D02*
X7835290Y-12713092D01*
X7825767Y-12694045D01*
X7825767Y-12522616D01*
X7959100Y-12722616D02*
X7940052Y-12713092D01*
X7930528Y-12694045D01*
X7930528Y-12522616D01*
X8187671Y-12722616D02*
X8187671Y-12522616D01*
X8254338Y-12665473D01*
X8321005Y-12522616D01*
X8321005Y-12722616D01*
X8501957Y-12722616D02*
X8501957Y-12617854D01*
X8492433Y-12598807D01*
X8473386Y-12589283D01*
X8435290Y-12589283D01*
X8416243Y-12598807D01*
X8501957Y-12713092D02*
X8482910Y-12722616D01*
X8435290Y-12722616D01*
X8416243Y-12713092D01*
X8406719Y-12694045D01*
X8406719Y-12674997D01*
X8416243Y-12655949D01*
X8435290Y-12646426D01*
X8482910Y-12646426D01*
X8501957Y-12636902D01*
X8597195Y-12589283D02*
X8597195Y-12789283D01*
X8597195Y-12598807D02*
X8616243Y-12589283D01*
X8654338Y-12589283D01*
X8673386Y-12598807D01*
X8682910Y-12608330D01*
X8692433Y-12627378D01*
X8692433Y-12684521D01*
X8682910Y-12703568D01*
X8673386Y-12713092D01*
X8654338Y-12722616D01*
X8616243Y-12722616D01*
X8597195Y-12713092D01*
X8778148Y-12703568D02*
X8787671Y-12713092D01*
X8778148Y-12722616D01*
X8768624Y-12713092D01*
X8778148Y-12703568D01*
X8778148Y-12722616D01*
X8778148Y-12598807D02*
X8787671Y-12608330D01*
X8778148Y-12617854D01*
X8768624Y-12608330D01*
X8778148Y-12598807D01*
X8778148Y-12617854D01*
D13*
X7109100Y-13032140D02*
X7149100Y-13072140D01*
X7149100Y-13032140D02*
X7109100Y-13072140D01*
D12*
X7444814Y-12942616D02*
X7463862Y-12942616D01*
X7482909Y-12952140D01*
X7492433Y-12961664D01*
X7501957Y-12980711D01*
X7511481Y-13018807D01*
X7511481Y-13066426D01*
X7501957Y-13104521D01*
X7492433Y-13123568D01*
X7482909Y-13133092D01*
X7463862Y-13142616D01*
X7444814Y-13142616D01*
X7425767Y-13133092D01*
X7416243Y-13123568D01*
X7406719Y-13104521D01*
X7397195Y-13066426D01*
X7397195Y-13018807D01*
X7406719Y-12980711D01*
X7416243Y-12961664D01*
X7425767Y-12952140D01*
X7444814Y-12942616D01*
X7597195Y-13123568D02*
X7606719Y-13133092D01*
X7597195Y-13142616D01*
X7587671Y-13133092D01*
X7597195Y-13123568D01*
X7597195Y-13142616D01*
X7778148Y-13009283D02*
X7778148Y-13142616D01*
X7730528Y-12933092D02*
X7682909Y-13075949D01*
X7806719Y-13075949D01*
X7921005Y-12942616D02*
X7940052Y-12942616D01*
X7959100Y-12952140D01*
X7968624Y-12961664D01*
X7978148Y-12980711D01*
X7987671Y-13018807D01*
X7987671Y-13066426D01*
X7978148Y-13104521D01*
X7968624Y-13123568D01*
X7959100Y-13133092D01*
X7940052Y-13142616D01*
X7921005Y-13142616D01*
X7901957Y-13133092D01*
X7892433Y-13123568D01*
X7882909Y-13104521D01*
X7873386Y-13066426D01*
X7873386Y-13018807D01*
X7882909Y-12980711D01*
X7892433Y-12961664D01*
X7901957Y-12952140D01*
X7921005Y-12942616D01*
X8111481Y-12942616D02*
X8130528Y-12942616D01*
X8149576Y-12952140D01*
X8159100Y-12961664D01*
X8168624Y-12980711D01*
X8178148Y-13018807D01*
X8178148Y-13066426D01*
X8168624Y-13104521D01*
X8159100Y-13123568D01*
X8149576Y-13133092D01*
X8130528Y-13142616D01*
X8111481Y-13142616D01*
X8092433Y-13133092D01*
X8082909Y-13123568D01*
X8073386Y-13104521D01*
X8063862Y-13066426D01*
X8063862Y-13018807D01*
X8073386Y-12980711D01*
X8082909Y-12961664D01*
X8092433Y-12952140D01*
X8111481Y-12942616D01*
X8263862Y-13142616D02*
X8263862Y-13009283D01*
X8263862Y-13028330D02*
X8273386Y-13018807D01*
X8292433Y-13009283D01*
X8321005Y-13009283D01*
X8340052Y-13018807D01*
X8349576Y-13037854D01*
X8349576Y-13142616D01*
X8349576Y-13037854D02*
X8359100Y-13018807D01*
X8378148Y-13009283D01*
X8406719Y-13009283D01*
X8425767Y-13018807D01*
X8435290Y-13037854D01*
X8435290Y-13142616D01*
X8530529Y-13142616D02*
X8530529Y-13009283D01*
X8530529Y-13028330D02*
X8540052Y-13018807D01*
X8559100Y-13009283D01*
X8587671Y-13009283D01*
X8606719Y-13018807D01*
X8616243Y-13037854D01*
X8616243Y-13142616D01*
X8616243Y-13037854D02*
X8625767Y-13018807D01*
X8644814Y-13009283D01*
X8673386Y-13009283D01*
X8692433Y-13018807D01*
X8701957Y-13037854D01*
X8701957Y-13142616D01*
X9092433Y-12933092D02*
X8921005Y-13190235D01*
X9349576Y-12942616D02*
X9368624Y-12942616D01*
X9387671Y-12952140D01*
X9397195Y-12961664D01*
X9406719Y-12980711D01*
X9416243Y-13018807D01*
X9416243Y-13066426D01*
X9406719Y-13104521D01*
X9397195Y-13123568D01*
X9387671Y-13133092D01*
X9368624Y-13142616D01*
X9349576Y-13142616D01*
X9330529Y-13133092D01*
X9321005Y-13123568D01*
X9311481Y-13104521D01*
X9301957Y-13066426D01*
X9301957Y-13018807D01*
X9311481Y-12980711D01*
X9321005Y-12961664D01*
X9330529Y-12952140D01*
X9349576Y-12942616D01*
X9501957Y-13123568D02*
X9511481Y-13133092D01*
X9501957Y-13142616D01*
X9492433Y-13133092D01*
X9501957Y-13123568D01*
X9501957Y-13142616D01*
X9635290Y-12942616D02*
X9654338Y-12942616D01*
X9673386Y-12952140D01*
X9682910Y-12961664D01*
X9692433Y-12980711D01*
X9701957Y-13018807D01*
X9701957Y-13066426D01*
X9692433Y-13104521D01*
X9682910Y-13123568D01*
X9673386Y-13133092D01*
X9654338Y-13142616D01*
X9635290Y-13142616D01*
X9616243Y-13133092D01*
X9606719Y-13123568D01*
X9597195Y-13104521D01*
X9587671Y-13066426D01*
X9587671Y-13018807D01*
X9597195Y-12980711D01*
X9606719Y-12961664D01*
X9616243Y-12952140D01*
X9635290Y-12942616D01*
X9892433Y-13142616D02*
X9778148Y-13142616D01*
X9835290Y-13142616D02*
X9835290Y-12942616D01*
X9816243Y-12971188D01*
X9797195Y-12990235D01*
X9778148Y-12999759D01*
X10073386Y-12942616D02*
X9978148Y-12942616D01*
X9968624Y-13037854D01*
X9978148Y-13028330D01*
X9997195Y-13018807D01*
X10044814Y-13018807D01*
X10063862Y-13028330D01*
X10073386Y-13037854D01*
X10082910Y-13056902D01*
X10082910Y-13104521D01*
X10073386Y-13123568D01*
X10063862Y-13133092D01*
X10044814Y-13142616D01*
X9997195Y-13142616D01*
X9978148Y-13133092D01*
X9968624Y-13123568D01*
X10149576Y-12942616D02*
X10282910Y-12942616D01*
X10197195Y-13142616D01*
X10349576Y-12942616D02*
X10349576Y-12980711D01*
X10425767Y-12942616D02*
X10425767Y-12980711D01*
X10721005Y-13218807D02*
X10711481Y-13209283D01*
X10692433Y-13180711D01*
X10682910Y-13161664D01*
X10673386Y-13133092D01*
X10663862Y-13085473D01*
X10663862Y-13047378D01*
X10673386Y-12999759D01*
X10682910Y-12971188D01*
X10692433Y-12952140D01*
X10711481Y-12923568D01*
X10721005Y-12914045D01*
X10901957Y-13142616D02*
X10787671Y-13142616D01*
X10844814Y-13142616D02*
X10844814Y-12942616D01*
X10825767Y-12971188D01*
X10806719Y-12990235D01*
X10787671Y-12999759D01*
X11025767Y-12942616D02*
X11044814Y-12942616D01*
X11063862Y-12952140D01*
X11073386Y-12961664D01*
X11082910Y-12980711D01*
X11092433Y-13018807D01*
X11092433Y-13066426D01*
X11082910Y-13104521D01*
X11073386Y-13123568D01*
X11063862Y-13133092D01*
X11044814Y-13142616D01*
X11025767Y-13142616D01*
X11006719Y-13133092D01*
X10997195Y-13123568D01*
X10987671Y-13104521D01*
X10978148Y-13066426D01*
X10978148Y-13018807D01*
X10987671Y-12980711D01*
X10997195Y-12961664D01*
X11006719Y-12952140D01*
X11025767Y-12942616D01*
X11330528Y-13142616D02*
X11330528Y-12942616D01*
X11416243Y-13142616D02*
X11416243Y-13037854D01*
X11406719Y-13018807D01*
X11387671Y-13009283D01*
X11359100Y-13009283D01*
X11340052Y-13018807D01*
X11330528Y-13028330D01*
X11540052Y-13142616D02*
X11521005Y-13133092D01*
X11511481Y-13123568D01*
X11501957Y-13104521D01*
X11501957Y-13047378D01*
X11511481Y-13028330D01*
X11521005Y-13018807D01*
X11540052Y-13009283D01*
X11568624Y-13009283D01*
X11587671Y-13018807D01*
X11597195Y-13028330D01*
X11606719Y-13047378D01*
X11606719Y-13104521D01*
X11597195Y-13123568D01*
X11587671Y-13133092D01*
X11568624Y-13142616D01*
X11540052Y-13142616D01*
X11721005Y-13142616D02*
X11701957Y-13133092D01*
X11692433Y-13114045D01*
X11692433Y-12942616D01*
X11873386Y-13133092D02*
X11854338Y-13142616D01*
X11816243Y-13142616D01*
X11797195Y-13133092D01*
X11787671Y-13114045D01*
X11787671Y-13037854D01*
X11797195Y-13018807D01*
X11816243Y-13009283D01*
X11854338Y-13009283D01*
X11873386Y-13018807D01*
X11882909Y-13037854D01*
X11882909Y-13056902D01*
X11787671Y-13075949D01*
X11959100Y-13133092D02*
X11978148Y-13142616D01*
X12016243Y-13142616D01*
X12035290Y-13133092D01*
X12044814Y-13114045D01*
X12044814Y-13104521D01*
X12035290Y-13085473D01*
X12016243Y-13075949D01*
X11987671Y-13075949D01*
X11968624Y-13066426D01*
X11959100Y-13047378D01*
X11959100Y-13037854D01*
X11968624Y-13018807D01*
X11987671Y-13009283D01*
X12016243Y-13009283D01*
X12035290Y-13018807D01*
X12111481Y-13218807D02*
X12121005Y-13209283D01*
X12140052Y-13180711D01*
X12149576Y-13161664D01*
X12159100Y-13133092D01*
X12168624Y-13085473D01*
X12168624Y-13047378D01*
X12159100Y-12999759D01*
X12149576Y-12971188D01*
X12140052Y-12952140D01*
X12121005Y-12923568D01*
X12111481Y-12914045D01*
D14*
X7149100Y-13316140D02*
G75*
G03*
X7149100Y-13316140I-40000J0D01*
G01*
D12*
X7444814Y-13206616D02*
X7463862Y-13206616D01*
X7482909Y-13216140D01*
X7492433Y-13225664D01*
X7501957Y-13244711D01*
X7511481Y-13282807D01*
X7511481Y-13330426D01*
X7501957Y-13368521D01*
X7492433Y-13387568D01*
X7482909Y-13397092D01*
X7463862Y-13406616D01*
X7444814Y-13406616D01*
X7425767Y-13397092D01*
X7416243Y-13387568D01*
X7406719Y-13368521D01*
X7397195Y-13330426D01*
X7397195Y-13282807D01*
X7406719Y-13244711D01*
X7416243Y-13225664D01*
X7425767Y-13216140D01*
X7444814Y-13206616D01*
X7597195Y-13387568D02*
X7606719Y-13397092D01*
X7597195Y-13406616D01*
X7587671Y-13397092D01*
X7597195Y-13387568D01*
X7597195Y-13406616D01*
X7721005Y-13292330D02*
X7701957Y-13282807D01*
X7692433Y-13273283D01*
X7682909Y-13254235D01*
X7682909Y-13244711D01*
X7692433Y-13225664D01*
X7701957Y-13216140D01*
X7721005Y-13206616D01*
X7759100Y-13206616D01*
X7778148Y-13216140D01*
X7787671Y-13225664D01*
X7797195Y-13244711D01*
X7797195Y-13254235D01*
X7787671Y-13273283D01*
X7778148Y-13282807D01*
X7759100Y-13292330D01*
X7721005Y-13292330D01*
X7701957Y-13301854D01*
X7692433Y-13311378D01*
X7682909Y-13330426D01*
X7682909Y-13368521D01*
X7692433Y-13387568D01*
X7701957Y-13397092D01*
X7721005Y-13406616D01*
X7759100Y-13406616D01*
X7778148Y-13397092D01*
X7787671Y-13387568D01*
X7797195Y-13368521D01*
X7797195Y-13330426D01*
X7787671Y-13311378D01*
X7778148Y-13301854D01*
X7759100Y-13292330D01*
X7921005Y-13206616D02*
X7940052Y-13206616D01*
X7959100Y-13216140D01*
X7968624Y-13225664D01*
X7978148Y-13244711D01*
X7987671Y-13282807D01*
X7987671Y-13330426D01*
X7978148Y-13368521D01*
X7968624Y-13387568D01*
X7959100Y-13397092D01*
X7940052Y-13406616D01*
X7921005Y-13406616D01*
X7901957Y-13397092D01*
X7892433Y-13387568D01*
X7882909Y-13368521D01*
X7873386Y-13330426D01*
X7873386Y-13282807D01*
X7882909Y-13244711D01*
X7892433Y-13225664D01*
X7901957Y-13216140D01*
X7921005Y-13206616D01*
X8111481Y-13206616D02*
X8130528Y-13206616D01*
X8149576Y-13216140D01*
X8159100Y-13225664D01*
X8168624Y-13244711D01*
X8178148Y-13282807D01*
X8178148Y-13330426D01*
X8168624Y-13368521D01*
X8159100Y-13387568D01*
X8149576Y-13397092D01*
X8130528Y-13406616D01*
X8111481Y-13406616D01*
X8092433Y-13397092D01*
X8082909Y-13387568D01*
X8073386Y-13368521D01*
X8063862Y-13330426D01*
X8063862Y-13282807D01*
X8073386Y-13244711D01*
X8082909Y-13225664D01*
X8092433Y-13216140D01*
X8111481Y-13206616D01*
X8263862Y-13406616D02*
X8263862Y-13273283D01*
X8263862Y-13292330D02*
X8273386Y-13282807D01*
X8292433Y-13273283D01*
X8321005Y-13273283D01*
X8340052Y-13282807D01*
X8349576Y-13301854D01*
X8349576Y-13406616D01*
X8349576Y-13301854D02*
X8359100Y-13282807D01*
X8378148Y-13273283D01*
X8406719Y-13273283D01*
X8425767Y-13282807D01*
X8435290Y-13301854D01*
X8435290Y-13406616D01*
X8530529Y-13406616D02*
X8530529Y-13273283D01*
X8530529Y-13292330D02*
X8540052Y-13282807D01*
X8559100Y-13273283D01*
X8587671Y-13273283D01*
X8606719Y-13282807D01*
X8616243Y-13301854D01*
X8616243Y-13406616D01*
X8616243Y-13301854D02*
X8625767Y-13282807D01*
X8644814Y-13273283D01*
X8673386Y-13273283D01*
X8692433Y-13282807D01*
X8701957Y-13301854D01*
X8701957Y-13406616D01*
X9092433Y-13197092D02*
X8921005Y-13454235D01*
X9349576Y-13206616D02*
X9368624Y-13206616D01*
X9387671Y-13216140D01*
X9397195Y-13225664D01*
X9406719Y-13244711D01*
X9416243Y-13282807D01*
X9416243Y-13330426D01*
X9406719Y-13368521D01*
X9397195Y-13387568D01*
X9387671Y-13397092D01*
X9368624Y-13406616D01*
X9349576Y-13406616D01*
X9330529Y-13397092D01*
X9321005Y-13387568D01*
X9311481Y-13368521D01*
X9301957Y-13330426D01*
X9301957Y-13282807D01*
X9311481Y-13244711D01*
X9321005Y-13225664D01*
X9330529Y-13216140D01*
X9349576Y-13206616D01*
X9501957Y-13387568D02*
X9511481Y-13397092D01*
X9501957Y-13406616D01*
X9492433Y-13397092D01*
X9501957Y-13387568D01*
X9501957Y-13406616D01*
X9635290Y-13206616D02*
X9654338Y-13206616D01*
X9673386Y-13216140D01*
X9682910Y-13225664D01*
X9692433Y-13244711D01*
X9701957Y-13282807D01*
X9701957Y-13330426D01*
X9692433Y-13368521D01*
X9682910Y-13387568D01*
X9673386Y-13397092D01*
X9654338Y-13406616D01*
X9635290Y-13406616D01*
X9616243Y-13397092D01*
X9606719Y-13387568D01*
X9597195Y-13368521D01*
X9587671Y-13330426D01*
X9587671Y-13282807D01*
X9597195Y-13244711D01*
X9606719Y-13225664D01*
X9616243Y-13216140D01*
X9635290Y-13206616D01*
X9768624Y-13206616D02*
X9892433Y-13206616D01*
X9825767Y-13282807D01*
X9854338Y-13282807D01*
X9873386Y-13292330D01*
X9882910Y-13301854D01*
X9892433Y-13320902D01*
X9892433Y-13368521D01*
X9882910Y-13387568D01*
X9873386Y-13397092D01*
X9854338Y-13406616D01*
X9797195Y-13406616D01*
X9778148Y-13397092D01*
X9768624Y-13387568D01*
X10082910Y-13406616D02*
X9968624Y-13406616D01*
X10025767Y-13406616D02*
X10025767Y-13206616D01*
X10006719Y-13235188D01*
X9987671Y-13254235D01*
X9968624Y-13263759D01*
X10263862Y-13206616D02*
X10168624Y-13206616D01*
X10159100Y-13301854D01*
X10168624Y-13292330D01*
X10187671Y-13282807D01*
X10235290Y-13282807D01*
X10254338Y-13292330D01*
X10263862Y-13301854D01*
X10273386Y-13320902D01*
X10273386Y-13368521D01*
X10263862Y-13387568D01*
X10254338Y-13397092D01*
X10235290Y-13406616D01*
X10187671Y-13406616D01*
X10168624Y-13397092D01*
X10159100Y-13387568D01*
X10349576Y-13206616D02*
X10349576Y-13244711D01*
X10425767Y-13206616D02*
X10425767Y-13244711D01*
X10721005Y-13482807D02*
X10711481Y-13473283D01*
X10692433Y-13444711D01*
X10682910Y-13425664D01*
X10673386Y-13397092D01*
X10663862Y-13349473D01*
X10663862Y-13311378D01*
X10673386Y-13263759D01*
X10682910Y-13235188D01*
X10692433Y-13216140D01*
X10711481Y-13187568D01*
X10721005Y-13178045D01*
X10778148Y-13206616D02*
X10911481Y-13206616D01*
X10825767Y-13406616D01*
X11092433Y-13406616D02*
X10978148Y-13406616D01*
X11035290Y-13406616D02*
X11035290Y-13206616D01*
X11016243Y-13235188D01*
X10997195Y-13254235D01*
X10978148Y-13263759D01*
X11330528Y-13406616D02*
X11330528Y-13206616D01*
X11416243Y-13406616D02*
X11416243Y-13301854D01*
X11406719Y-13282807D01*
X11387671Y-13273283D01*
X11359100Y-13273283D01*
X11340052Y-13282807D01*
X11330528Y-13292330D01*
X11540052Y-13406616D02*
X11521005Y-13397092D01*
X11511481Y-13387568D01*
X11501957Y-13368521D01*
X11501957Y-13311378D01*
X11511481Y-13292330D01*
X11521005Y-13282807D01*
X11540052Y-13273283D01*
X11568624Y-13273283D01*
X11587671Y-13282807D01*
X11597195Y-13292330D01*
X11606719Y-13311378D01*
X11606719Y-13368521D01*
X11597195Y-13387568D01*
X11587671Y-13397092D01*
X11568624Y-13406616D01*
X11540052Y-13406616D01*
X11721005Y-13406616D02*
X11701957Y-13397092D01*
X11692433Y-13378045D01*
X11692433Y-13206616D01*
X11873386Y-13397092D02*
X11854338Y-13406616D01*
X11816243Y-13406616D01*
X11797195Y-13397092D01*
X11787671Y-13378045D01*
X11787671Y-13301854D01*
X11797195Y-13282807D01*
X11816243Y-13273283D01*
X11854338Y-13273283D01*
X11873386Y-13282807D01*
X11882909Y-13301854D01*
X11882909Y-13320902D01*
X11787671Y-13339949D01*
X11959100Y-13397092D02*
X11978148Y-13406616D01*
X12016243Y-13406616D01*
X12035290Y-13397092D01*
X12044814Y-13378045D01*
X12044814Y-13368521D01*
X12035290Y-13349473D01*
X12016243Y-13339949D01*
X11987671Y-13339949D01*
X11968624Y-13330426D01*
X11959100Y-13311378D01*
X11959100Y-13301854D01*
X11968624Y-13282807D01*
X11987671Y-13273283D01*
X12016243Y-13273283D01*
X12035290Y-13282807D01*
X12111481Y-13482807D02*
X12121005Y-13473283D01*
X12140052Y-13444711D01*
X12149576Y-13425664D01*
X12159100Y-13397092D01*
X12168624Y-13349473D01*
X12168624Y-13311378D01*
X12159100Y-13263759D01*
X12149576Y-13235188D01*
X12140052Y-13216140D01*
X12121005Y-13187568D01*
X12111481Y-13178045D01*
D15*
X7099100Y-13530140D02*
X7099100Y-13630140D01*
X7049100Y-13580140D02*
X7149100Y-13580140D01*
D12*
X7511481Y-13670616D02*
X7397195Y-13670616D01*
X7454338Y-13670616D02*
X7454338Y-13470616D01*
X7435290Y-13499188D01*
X7416243Y-13518235D01*
X7397195Y-13527759D01*
X7597195Y-13651568D02*
X7606719Y-13661092D01*
X7597195Y-13670616D01*
X7587671Y-13661092D01*
X7597195Y-13651568D01*
X7597195Y-13670616D01*
X7730528Y-13470616D02*
X7749576Y-13470616D01*
X7768624Y-13480140D01*
X7778148Y-13489664D01*
X7787671Y-13508711D01*
X7797195Y-13546807D01*
X7797195Y-13594426D01*
X7787671Y-13632521D01*
X7778148Y-13651568D01*
X7768624Y-13661092D01*
X7749576Y-13670616D01*
X7730528Y-13670616D01*
X7711481Y-13661092D01*
X7701957Y-13651568D01*
X7692433Y-13632521D01*
X7682909Y-13594426D01*
X7682909Y-13546807D01*
X7692433Y-13508711D01*
X7701957Y-13489664D01*
X7711481Y-13480140D01*
X7730528Y-13470616D01*
X7921005Y-13470616D02*
X7940052Y-13470616D01*
X7959100Y-13480140D01*
X7968624Y-13489664D01*
X7978148Y-13508711D01*
X7987671Y-13546807D01*
X7987671Y-13594426D01*
X7978148Y-13632521D01*
X7968624Y-13651568D01*
X7959100Y-13661092D01*
X7940052Y-13670616D01*
X7921005Y-13670616D01*
X7901957Y-13661092D01*
X7892433Y-13651568D01*
X7882909Y-13632521D01*
X7873386Y-13594426D01*
X7873386Y-13546807D01*
X7882909Y-13508711D01*
X7892433Y-13489664D01*
X7901957Y-13480140D01*
X7921005Y-13470616D01*
X8111481Y-13470616D02*
X8130528Y-13470616D01*
X8149576Y-13480140D01*
X8159100Y-13489664D01*
X8168624Y-13508711D01*
X8178148Y-13546807D01*
X8178148Y-13594426D01*
X8168624Y-13632521D01*
X8159100Y-13651568D01*
X8149576Y-13661092D01*
X8130528Y-13670616D01*
X8111481Y-13670616D01*
X8092433Y-13661092D01*
X8082909Y-13651568D01*
X8073386Y-13632521D01*
X8063862Y-13594426D01*
X8063862Y-13546807D01*
X8073386Y-13508711D01*
X8082909Y-13489664D01*
X8092433Y-13480140D01*
X8111481Y-13470616D01*
X8263862Y-13670616D02*
X8263862Y-13537283D01*
X8263862Y-13556330D02*
X8273386Y-13546807D01*
X8292433Y-13537283D01*
X8321005Y-13537283D01*
X8340052Y-13546807D01*
X8349576Y-13565854D01*
X8349576Y-13670616D01*
X8349576Y-13565854D02*
X8359100Y-13546807D01*
X8378148Y-13537283D01*
X8406719Y-13537283D01*
X8425767Y-13546807D01*
X8435290Y-13565854D01*
X8435290Y-13670616D01*
X8530529Y-13670616D02*
X8530529Y-13537283D01*
X8530529Y-13556330D02*
X8540052Y-13546807D01*
X8559100Y-13537283D01*
X8587671Y-13537283D01*
X8606719Y-13546807D01*
X8616243Y-13565854D01*
X8616243Y-13670616D01*
X8616243Y-13565854D02*
X8625767Y-13546807D01*
X8644814Y-13537283D01*
X8673386Y-13537283D01*
X8692433Y-13546807D01*
X8701957Y-13565854D01*
X8701957Y-13670616D01*
X9092433Y-13461092D02*
X8921005Y-13718235D01*
X9349576Y-13470616D02*
X9368624Y-13470616D01*
X9387671Y-13480140D01*
X9397195Y-13489664D01*
X9406719Y-13508711D01*
X9416243Y-13546807D01*
X9416243Y-13594426D01*
X9406719Y-13632521D01*
X9397195Y-13651568D01*
X9387671Y-13661092D01*
X9368624Y-13670616D01*
X9349576Y-13670616D01*
X9330529Y-13661092D01*
X9321005Y-13651568D01*
X9311481Y-13632521D01*
X9301957Y-13594426D01*
X9301957Y-13546807D01*
X9311481Y-13508711D01*
X9321005Y-13489664D01*
X9330529Y-13480140D01*
X9349576Y-13470616D01*
X9501957Y-13651568D02*
X9511481Y-13661092D01*
X9501957Y-13670616D01*
X9492433Y-13661092D01*
X9501957Y-13651568D01*
X9501957Y-13670616D01*
X9635290Y-13470616D02*
X9654338Y-13470616D01*
X9673386Y-13480140D01*
X9682910Y-13489664D01*
X9692433Y-13508711D01*
X9701957Y-13546807D01*
X9701957Y-13594426D01*
X9692433Y-13632521D01*
X9682910Y-13651568D01*
X9673386Y-13661092D01*
X9654338Y-13670616D01*
X9635290Y-13670616D01*
X9616243Y-13661092D01*
X9606719Y-13651568D01*
X9597195Y-13632521D01*
X9587671Y-13594426D01*
X9587671Y-13546807D01*
X9597195Y-13508711D01*
X9606719Y-13489664D01*
X9616243Y-13480140D01*
X9635290Y-13470616D01*
X9768624Y-13470616D02*
X9892433Y-13470616D01*
X9825767Y-13546807D01*
X9854338Y-13546807D01*
X9873386Y-13556330D01*
X9882910Y-13565854D01*
X9892433Y-13584902D01*
X9892433Y-13632521D01*
X9882910Y-13651568D01*
X9873386Y-13661092D01*
X9854338Y-13670616D01*
X9797195Y-13670616D01*
X9778148Y-13661092D01*
X9768624Y-13651568D01*
X9987671Y-13670616D02*
X10025767Y-13670616D01*
X10044814Y-13661092D01*
X10054338Y-13651568D01*
X10073386Y-13622997D01*
X10082910Y-13584902D01*
X10082910Y-13508711D01*
X10073386Y-13489664D01*
X10063862Y-13480140D01*
X10044814Y-13470616D01*
X10006719Y-13470616D01*
X9987671Y-13480140D01*
X9978148Y-13489664D01*
X9968624Y-13508711D01*
X9968624Y-13556330D01*
X9978148Y-13575378D01*
X9987671Y-13584902D01*
X10006719Y-13594426D01*
X10044814Y-13594426D01*
X10063862Y-13584902D01*
X10073386Y-13575378D01*
X10082910Y-13556330D01*
X10254338Y-13537283D02*
X10254338Y-13670616D01*
X10206719Y-13461092D02*
X10159100Y-13603949D01*
X10282910Y-13603949D01*
X10349576Y-13470616D02*
X10349576Y-13508711D01*
X10425767Y-13470616D02*
X10425767Y-13508711D01*
X10721005Y-13746807D02*
X10711481Y-13737283D01*
X10692433Y-13708711D01*
X10682910Y-13689664D01*
X10673386Y-13661092D01*
X10663862Y-13613473D01*
X10663862Y-13575378D01*
X10673386Y-13527759D01*
X10682910Y-13499188D01*
X10692433Y-13480140D01*
X10711481Y-13451568D01*
X10721005Y-13442045D01*
X10778148Y-13470616D02*
X10901957Y-13470616D01*
X10835290Y-13546807D01*
X10863862Y-13546807D01*
X10882910Y-13556330D01*
X10892433Y-13565854D01*
X10901957Y-13584902D01*
X10901957Y-13632521D01*
X10892433Y-13651568D01*
X10882910Y-13661092D01*
X10863862Y-13670616D01*
X10806719Y-13670616D01*
X10787671Y-13661092D01*
X10778148Y-13651568D01*
X11073386Y-13537283D02*
X11073386Y-13670616D01*
X11025767Y-13461092D02*
X10978148Y-13603949D01*
X11101957Y-13603949D01*
X11330528Y-13670616D02*
X11330528Y-13470616D01*
X11416243Y-13670616D02*
X11416243Y-13565854D01*
X11406719Y-13546807D01*
X11387671Y-13537283D01*
X11359100Y-13537283D01*
X11340052Y-13546807D01*
X11330528Y-13556330D01*
X11540052Y-13670616D02*
X11521005Y-13661092D01*
X11511481Y-13651568D01*
X11501957Y-13632521D01*
X11501957Y-13575378D01*
X11511481Y-13556330D01*
X11521005Y-13546807D01*
X11540052Y-13537283D01*
X11568624Y-13537283D01*
X11587671Y-13546807D01*
X11597195Y-13556330D01*
X11606719Y-13575378D01*
X11606719Y-13632521D01*
X11597195Y-13651568D01*
X11587671Y-13661092D01*
X11568624Y-13670616D01*
X11540052Y-13670616D01*
X11721005Y-13670616D02*
X11701957Y-13661092D01*
X11692433Y-13642045D01*
X11692433Y-13470616D01*
X11873386Y-13661092D02*
X11854338Y-13670616D01*
X11816243Y-13670616D01*
X11797195Y-13661092D01*
X11787671Y-13642045D01*
X11787671Y-13565854D01*
X11797195Y-13546807D01*
X11816243Y-13537283D01*
X11854338Y-13537283D01*
X11873386Y-13546807D01*
X11882909Y-13565854D01*
X11882909Y-13584902D01*
X11787671Y-13603949D01*
X11959100Y-13661092D02*
X11978148Y-13670616D01*
X12016243Y-13670616D01*
X12035290Y-13661092D01*
X12044814Y-13642045D01*
X12044814Y-13632521D01*
X12035290Y-13613473D01*
X12016243Y-13603949D01*
X11987671Y-13603949D01*
X11968624Y-13594426D01*
X11959100Y-13575378D01*
X11959100Y-13565854D01*
X11968624Y-13546807D01*
X11987671Y-13537283D01*
X12016243Y-13537283D01*
X12035290Y-13546807D01*
X12111481Y-13746807D02*
X12121005Y-13737283D01*
X12140052Y-13708711D01*
X12149576Y-13689664D01*
X12159100Y-13661092D01*
X12168624Y-13613473D01*
X12168624Y-13575378D01*
X12159100Y-13527759D01*
X12149576Y-13499188D01*
X12140052Y-13480140D01*
X12121005Y-13451568D01*
X12111481Y-13442045D01*
M02*
