%TF.GenerationSoftware,KiCad,Pcbnew,(6.0.6)*%
%TF.CreationDate,2022-07-31T20:56:31+02:00*%
%TF.ProjectId,SF-7326,53462d37-3332-4362-9e6b-696361645f70,rev?*%
%TF.SameCoordinates,Original*%
%TF.FileFunction,Paste,Top*%
%TF.FilePolarity,Positive*%
%FSLAX46Y46*%
G04 Gerber Fmt 4.6, Leading zero omitted, Abs format (unit mm)*
G04 Created by KiCad (PCBNEW (6.0.6)) date 2022-07-31 20:56:31*
%MOMM*%
%LPD*%
G01*
G04 APERTURE LIST*
%ADD10O,2.032000X5.080000*%
G04 APERTURE END LIST*
%TO.C,CON1*%
G36*
X110532510Y-122132920D02*
G01*
X108632490Y-122132920D01*
X108632490Y-115180950D01*
X110532510Y-115180950D01*
X110532510Y-122132920D01*
G37*
G36*
X81912520Y-122132920D02*
G01*
X80012500Y-122132920D01*
X80012500Y-115180950D01*
X81912520Y-115180950D01*
X81912520Y-122132920D01*
G37*
G36*
X91452510Y-122132920D02*
G01*
X89552490Y-122132920D01*
X89552490Y-115180950D01*
X91452510Y-115180950D01*
X91452510Y-122132920D01*
G37*
G36*
X97812520Y-122132920D02*
G01*
X95912500Y-122132920D01*
X95912500Y-115434950D01*
X97812520Y-115434950D01*
X97812520Y-122132920D01*
G37*
G36*
X94632510Y-122132920D02*
G01*
X92732490Y-122132920D01*
X92732490Y-115434950D01*
X94632510Y-115434950D01*
X94632510Y-122132920D01*
G37*
G36*
X78732520Y-122132920D02*
G01*
X76832500Y-122132920D01*
X76832500Y-115434950D01*
X78732520Y-115434950D01*
X78732520Y-122132920D01*
G37*
G36*
X107352530Y-122132920D02*
G01*
X105452510Y-122132920D01*
X105452510Y-115180950D01*
X107352530Y-115180950D01*
X107352530Y-122132920D01*
G37*
G36*
X75552520Y-122132920D02*
G01*
X73652490Y-122132920D01*
X73652490Y-115434950D01*
X75552520Y-115434950D01*
X75552520Y-122132920D01*
G37*
G36*
X88272510Y-122132920D02*
G01*
X86372480Y-122132920D01*
X86372480Y-115180950D01*
X88272510Y-115180950D01*
X88272510Y-122132920D01*
G37*
G36*
X100992520Y-122132920D02*
G01*
X99092500Y-122132920D01*
X99092500Y-115180950D01*
X100992520Y-115180950D01*
X100992520Y-122132920D01*
G37*
G36*
X104172520Y-122132920D02*
G01*
X102272500Y-122132920D01*
X102272500Y-115180950D01*
X104172520Y-115180950D01*
X104172520Y-122132920D01*
G37*
G36*
X132792510Y-122132920D02*
G01*
X130892490Y-122132920D01*
X130892490Y-115180950D01*
X132792510Y-115180950D01*
X132792510Y-122132920D01*
G37*
G36*
X135972510Y-122132920D02*
G01*
X134072490Y-122132920D01*
X134072490Y-115180950D01*
X135972510Y-115180950D01*
X135972510Y-122132920D01*
G37*
G36*
X123252520Y-122132920D02*
G01*
X121352500Y-122132920D01*
X121352500Y-115180950D01*
X123252520Y-115180950D01*
X123252520Y-122132920D01*
G37*
G36*
X113712510Y-122132920D02*
G01*
X111812490Y-122132920D01*
X111812490Y-115180950D01*
X113712510Y-115180950D01*
X113712510Y-122132920D01*
G37*
G36*
X120072520Y-122132920D02*
G01*
X118172500Y-122132920D01*
X118172500Y-115180950D01*
X120072520Y-115180950D01*
X120072520Y-122132920D01*
G37*
G36*
X129612500Y-122132920D02*
G01*
X127712480Y-122132920D01*
X127712480Y-115180950D01*
X129612500Y-115180950D01*
X129612500Y-122132920D01*
G37*
G36*
X126432530Y-122132920D02*
G01*
X124532500Y-122132920D01*
X124532500Y-115180950D01*
X126432530Y-115180950D01*
X126432530Y-122132920D01*
G37*
G36*
X139152520Y-122132920D02*
G01*
X137252490Y-122132920D01*
X137252490Y-115180950D01*
X139152520Y-115180950D01*
X139152520Y-122132920D01*
G37*
G36*
X116892510Y-122132920D02*
G01*
X114992490Y-122132920D01*
X114992490Y-115180950D01*
X116892510Y-115180950D01*
X116892510Y-122132920D01*
G37*
G36*
X142332520Y-122132920D02*
G01*
X140432500Y-122132920D01*
X140432500Y-115180950D01*
X142332520Y-115180950D01*
X142332520Y-122132920D01*
G37*
G36*
X85092530Y-122132920D02*
G01*
X83192510Y-122132920D01*
X83192510Y-115180950D01*
X85092530Y-115180950D01*
X85092530Y-122132920D01*
G37*
%TD*%
D10*
%TO.C,CON1*%
X74475500Y-113599800D03*
X77777500Y-113599800D03*
X80825500Y-113599800D03*
X84127500Y-113599800D03*
X87429500Y-113599800D03*
X90477500Y-113599800D03*
X93636531Y-113599800D03*
X96827500Y-113599800D03*
X99986531Y-113599800D03*
X103288531Y-113599800D03*
X106336530Y-113599800D03*
X109638531Y-113599800D03*
X112686531Y-113599800D03*
X115988531Y-113599800D03*
X119179500Y-113599800D03*
X122338531Y-113599800D03*
X125529500Y-113599800D03*
X128688531Y-113599800D03*
X131879500Y-113599800D03*
X134927500Y-113599800D03*
X138229500Y-113599800D03*
X141388523Y-113599800D03*
X74475500Y-113599800D03*
X77777500Y-113599800D03*
X80825500Y-113599800D03*
X84127500Y-113599800D03*
X87429500Y-113599800D03*
X90477500Y-113599800D03*
X93636531Y-113599800D03*
X96827500Y-113599800D03*
X99986531Y-113599800D03*
X103288531Y-113599800D03*
X106336530Y-113599800D03*
X109638531Y-113599800D03*
X112686531Y-113599800D03*
X115988531Y-113599800D03*
X119179500Y-113599800D03*
X122338531Y-113599800D03*
X125529500Y-113599800D03*
X128688531Y-113599800D03*
X131879500Y-113599800D03*
X134927500Y-113599800D03*
X138229500Y-113599800D03*
X141388523Y-113599800D03*
%TD*%
M02*
