%TF.GenerationSoftware,KiCad,Pcbnew,(6.0.6)*%
%TF.CreationDate,2022-07-31T20:56:31+02:00*%
%TF.ProjectId,SF-7326,53462d37-3332-4362-9e6b-696361645f70,rev?*%
%TF.SameCoordinates,Original*%
%TF.FileFunction,Copper,L2,Bot*%
%TF.FilePolarity,Positive*%
%FSLAX46Y46*%
G04 Gerber Fmt 4.6, Leading zero omitted, Abs format (unit mm)*
G04 Created by KiCad (PCBNEW (6.0.6)) date 2022-07-31 20:56:31*
%MOMM*%
%LPD*%
G01*
G04 APERTURE LIST*
G04 Aperture macros list*
%AMRoundRect*
0 Rectangle with rounded corners*
0 $1 Rounding radius*
0 $2 $3 $4 $5 $6 $7 $8 $9 X,Y pos of 4 corners*
0 Add a 4 corners polygon primitive as box body*
4,1,4,$2,$3,$4,$5,$6,$7,$8,$9,$2,$3,0*
0 Add four circle primitives for the rounded corners*
1,1,$1+$1,$2,$3*
1,1,$1+$1,$4,$5*
1,1,$1+$1,$6,$7*
1,1,$1+$1,$8,$9*
0 Add four rect primitives between the rounded corners*
20,1,$1+$1,$2,$3,$4,$5,0*
20,1,$1+$1,$4,$5,$6,$7,0*
20,1,$1+$1,$6,$7,$8,$9,0*
20,1,$1+$1,$8,$9,$2,$3,0*%
G04 Aperture macros list end*
%TA.AperFunction,ComponentPad*%
%ADD10C,1.600000*%
%TD*%
%TA.AperFunction,ComponentPad*%
%ADD11R,1.600000X1.600000*%
%TD*%
%TA.AperFunction,ComponentPad*%
%ADD12O,1.600000X1.600000*%
%TD*%
%TA.AperFunction,ComponentPad*%
%ADD13RoundRect,0.250000X0.600000X-0.600000X0.600000X0.600000X-0.600000X0.600000X-0.600000X-0.600000X0*%
%TD*%
%TA.AperFunction,ComponentPad*%
%ADD14C,1.700000*%
%TD*%
%TA.AperFunction,SMDPad,CuDef*%
%ADD15O,2.032000X5.080000*%
%TD*%
%TA.AperFunction,ViaPad*%
%ADD16C,0.800000*%
%TD*%
%TA.AperFunction,Conductor*%
%ADD17C,0.250000*%
%TD*%
G04 APERTURE END LIST*
%TO.C,CON1*%
G36*
X139152520Y-122132920D02*
G01*
X137252490Y-122132920D01*
X137252490Y-115434950D01*
X139152520Y-115434950D01*
X139152520Y-122132920D01*
G37*
G36*
X110532510Y-122132920D02*
G01*
X108632490Y-122132920D01*
X108632490Y-115434950D01*
X110532510Y-115434950D01*
X110532510Y-122132920D01*
G37*
G36*
X85092530Y-122132920D02*
G01*
X83192510Y-122132920D01*
X83192510Y-115434950D01*
X85092530Y-115434950D01*
X85092530Y-122132920D01*
G37*
G36*
X97812520Y-122132920D02*
G01*
X95912500Y-122132920D01*
X95912500Y-115180950D01*
X97812520Y-115180950D01*
X97812520Y-122132920D01*
G37*
G36*
X94632510Y-122132920D02*
G01*
X92732490Y-122132920D01*
X92732490Y-115434950D01*
X94632510Y-115434950D01*
X94632510Y-122132920D01*
G37*
G36*
X142332520Y-122132920D02*
G01*
X140432500Y-122132920D01*
X140432500Y-115180950D01*
X142332520Y-115180950D01*
X142332520Y-122132920D01*
G37*
G36*
X120072520Y-122132920D02*
G01*
X118172500Y-122132920D01*
X118172500Y-115180950D01*
X120072520Y-115180950D01*
X120072520Y-122132920D01*
G37*
G36*
X132792510Y-122132920D02*
G01*
X130892490Y-122132920D01*
X130892490Y-115180950D01*
X132792510Y-115180950D01*
X132792510Y-122132920D01*
G37*
G36*
X91452510Y-122132920D02*
G01*
X89552490Y-122132920D01*
X89552490Y-115180950D01*
X91452510Y-115180950D01*
X91452510Y-122132920D01*
G37*
G36*
X135972510Y-122132920D02*
G01*
X134072490Y-122132920D01*
X134072490Y-115180950D01*
X135972510Y-115180950D01*
X135972510Y-122132920D01*
G37*
G36*
X78732520Y-122132920D02*
G01*
X76832500Y-122132920D01*
X76832500Y-115434950D01*
X78732520Y-115434950D01*
X78732520Y-122132920D01*
G37*
G36*
X107352530Y-122132920D02*
G01*
X105452510Y-122132920D01*
X105452510Y-115180950D01*
X107352530Y-115180950D01*
X107352530Y-122132920D01*
G37*
G36*
X123252520Y-122132920D02*
G01*
X121352500Y-122132920D01*
X121352500Y-115180950D01*
X123252520Y-115180950D01*
X123252520Y-122132920D01*
G37*
G36*
X129612500Y-122132920D02*
G01*
X127712480Y-122132920D01*
X127712480Y-115180950D01*
X129612500Y-115180950D01*
X129612500Y-122132920D01*
G37*
G36*
X75552520Y-122132920D02*
G01*
X73652490Y-122132920D01*
X73652490Y-115434950D01*
X75552520Y-115434950D01*
X75552520Y-122132920D01*
G37*
G36*
X88272510Y-122132920D02*
G01*
X86372480Y-122132920D01*
X86372480Y-115434950D01*
X88272510Y-115434950D01*
X88272510Y-122132920D01*
G37*
G36*
X81912520Y-122132920D02*
G01*
X80012500Y-122132920D01*
X80012500Y-115180950D01*
X81912520Y-115180950D01*
X81912520Y-122132920D01*
G37*
G36*
X113712510Y-122132920D02*
G01*
X111812490Y-122132920D01*
X111812490Y-115180950D01*
X113712510Y-115180950D01*
X113712510Y-122132920D01*
G37*
G36*
X126432530Y-122132920D02*
G01*
X124532500Y-122132920D01*
X124532500Y-115180950D01*
X126432530Y-115180950D01*
X126432530Y-122132920D01*
G37*
G36*
X100992520Y-122132920D02*
G01*
X99092500Y-122132920D01*
X99092500Y-115180950D01*
X100992520Y-115180950D01*
X100992520Y-122132920D01*
G37*
G36*
X104172520Y-122132920D02*
G01*
X102272500Y-122132920D01*
X102272500Y-115180950D01*
X104172520Y-115180950D01*
X104172520Y-122132920D01*
G37*
G36*
X116892510Y-122132920D02*
G01*
X114992490Y-122132920D01*
X114992490Y-115180950D01*
X116892510Y-115180950D01*
X116892510Y-122132920D01*
G37*
%TD*%
D10*
%TO.P,C1,1*%
%TO.N,+5V*%
X87630000Y-75565000D03*
%TO.P,C1,2*%
%TO.N,GND*%
X92630000Y-75565000D03*
%TD*%
D11*
%TO.P,U28,1,OEa*%
%TO.N,GND*%
X100975000Y-80015000D03*
D12*
%TO.P,U28,2,I0a*%
%TO.N,A8*%
X100975000Y-82555000D03*
%TO.P,U28,3,O3b*%
%TO.N,A9b*%
X100975000Y-85095000D03*
%TO.P,U28,4,I1a*%
%TO.N,A10*%
X100975000Y-87635000D03*
%TO.P,U28,5,O2b*%
%TO.N,A11b*%
X100975000Y-90175000D03*
%TO.P,U28,6,I2a*%
%TO.N,A12*%
X100975000Y-92715000D03*
%TO.P,U28,7,O1b*%
%TO.N,A13b*%
X100975000Y-95255000D03*
%TO.P,U28,8,I3a*%
%TO.N,A14*%
X100975000Y-97795000D03*
%TO.P,U28,9,O0b*%
%TO.N,A15b*%
X100975000Y-100335000D03*
%TO.P,U28,10,GND*%
%TO.N,GND*%
X100975000Y-102875000D03*
%TO.P,U28,11,I0b*%
%TO.N,A15*%
X108595000Y-102875000D03*
%TO.P,U28,12,O3a*%
%TO.N,A14b*%
X108595000Y-100335000D03*
%TO.P,U28,13,I1b*%
%TO.N,A13*%
X108595000Y-97795000D03*
%TO.P,U28,14,O2a*%
%TO.N,A12b*%
X108595000Y-95255000D03*
%TO.P,U28,15,I2b*%
%TO.N,A11*%
X108595000Y-92715000D03*
%TO.P,U28,16,O1a*%
%TO.N,A10b*%
X108595000Y-90175000D03*
%TO.P,U28,17,I3b*%
%TO.N,A9*%
X108595000Y-87635000D03*
%TO.P,U28,18,O0a*%
%TO.N,A8b*%
X108595000Y-85095000D03*
%TO.P,U28,19,OEb*%
%TO.N,GND*%
X108595000Y-82555000D03*
%TO.P,U28,20,VCC*%
%TO.N,+5V*%
X108595000Y-80015000D03*
%TD*%
D10*
%TO.P,C2,1*%
%TO.N,+5V*%
X102275000Y-75565000D03*
%TO.P,C2,2*%
%TO.N,GND*%
X107275000Y-75565000D03*
%TD*%
D13*
%TO.P,J2,1,Pin_1*%
%TO.N,A0b*%
X86985000Y-48843900D03*
D14*
%TO.P,J2,2,Pin_2*%
%TO.N,A1b*%
X86985000Y-46303900D03*
%TO.P,J2,3,Pin_3*%
%TO.N,A2b*%
X89525000Y-48843900D03*
%TO.P,J2,4,Pin_4*%
%TO.N,A3b*%
X89525000Y-46303900D03*
%TO.P,J2,5,Pin_5*%
%TO.N,A4b*%
X92065000Y-48843900D03*
%TO.P,J2,6,Pin_6*%
%TO.N,A5b*%
X92065000Y-46303900D03*
%TO.P,J2,7,Pin_7*%
%TO.N,A6b*%
X94605000Y-48843900D03*
%TO.P,J2,8,Pin_8*%
%TO.N,A7b*%
X94605000Y-46303900D03*
%TO.P,J2,9,Pin_9*%
%TO.N,A8b*%
X97145000Y-48843900D03*
%TO.P,J2,10,Pin_10*%
%TO.N,A9b*%
X97145000Y-46303900D03*
%TO.P,J2,11,Pin_11*%
%TO.N,A10b*%
X99685000Y-48843900D03*
%TO.P,J2,12,Pin_12*%
%TO.N,A11b*%
X99685000Y-46303900D03*
%TO.P,J2,13,Pin_13*%
%TO.N,A12b*%
X102225000Y-48843900D03*
%TO.P,J2,14,Pin_14*%
%TO.N,A13b*%
X102225000Y-46303900D03*
%TO.P,J2,15,Pin_15*%
%TO.N,A14b*%
X104765000Y-48843900D03*
%TO.P,J2,16,Pin_16*%
%TO.N,A15b*%
X104765000Y-46303900D03*
%TO.P,J2,17,Pin_17*%
%TO.N,D0*%
X107305000Y-48843900D03*
%TO.P,J2,18,Pin_18*%
%TO.N,D1*%
X107305000Y-46303900D03*
%TO.P,J2,19,Pin_19*%
%TO.N,D2*%
X109845000Y-48843900D03*
%TO.P,J2,20,Pin_20*%
%TO.N,D3*%
X109845000Y-46303900D03*
%TO.P,J2,21,Pin_21*%
%TO.N,D4*%
X112385000Y-48843900D03*
%TO.P,J2,22,Pin_22*%
%TO.N,D5*%
X112385000Y-46303900D03*
%TO.P,J2,23,Pin_23*%
%TO.N,D6*%
X114925000Y-48843900D03*
%TO.P,J2,24,Pin_24*%
%TO.N,D7*%
X114925000Y-46303900D03*
%TO.P,J2,25,Pin_25*%
%TO.N,unconnected-(J2-Pad25)*%
X117465000Y-48843900D03*
%TO.P,J2,26,Pin_26*%
%TO.N,IORb*%
X117465000Y-46303900D03*
%TO.P,J2,27,Pin_27*%
%TO.N,unconnected-(J2-Pad27)*%
X120005000Y-48843900D03*
%TO.P,J2,28,Pin_28*%
%TO.N,IOWb*%
X120005000Y-46303900D03*
%TO.P,J2,29,Pin_29*%
%TO.N,unconnected-(J2-Pad29)*%
X122545000Y-48843900D03*
%TO.P,J2,30,Pin_30*%
%TO.N,MEMRb*%
X122545000Y-46303900D03*
%TO.P,J2,31,Pin_31*%
%TO.N,unconnected-(J2-Pad31)*%
X125085000Y-48843900D03*
%TO.P,J2,32,Pin_32*%
%TO.N,MEMWb*%
X125085000Y-46303900D03*
%TO.P,J2,33,Pin_33*%
%TO.N,unconnected-(J2-Pad33)*%
X127625000Y-48843900D03*
%TO.P,J2,34,Pin_34*%
%TO.N,WREQb*%
X127625000Y-46303900D03*
%TD*%
D10*
%TO.P,C3,1*%
%TO.N,+5V*%
X119420000Y-53975000D03*
%TO.P,C3,2*%
%TO.N,GND*%
X124420000Y-53975000D03*
%TD*%
D11*
%TO.P,U30,1,OEa*%
%TO.N,GND*%
X118120000Y-58410000D03*
D12*
%TO.P,U30,2,I1*%
%TO.N,~{MEMR}*%
X118120000Y-60950000D03*
%TO.P,U30,3,O1a*%
%TO.N,MEMRb*%
X118120000Y-63490000D03*
%TO.P,U30,4,I2*%
%TO.N,~{MEMW}*%
X118120000Y-66030000D03*
%TO.P,U30,5,O2a*%
%TO.N,MEMWb*%
X118120000Y-68570000D03*
%TO.P,U30,6,I3*%
%TO.N,~{IOR}*%
X118120000Y-71110000D03*
%TO.P,U30,7,O3a*%
%TO.N,IORb*%
X118120000Y-73650000D03*
%TO.P,U30,8,GND*%
%TO.N,GND*%
X118120000Y-76190000D03*
%TO.P,U30,9,O4a*%
%TO.N,IOWb*%
X125740000Y-76190000D03*
%TO.P,U30,10,I4*%
%TO.N,~{IOW}*%
X125740000Y-73650000D03*
%TO.P,U30,11,O5b*%
%TO.N,WREQb*%
X125740000Y-71110000D03*
%TO.P,U30,12,I5*%
%TO.N,~{WREQ}*%
X125740000Y-68570000D03*
%TO.P,U30,13,O6b*%
%TO.N,unconnected-(U30-Pad13)*%
X125740000Y-66030000D03*
%TO.P,U30,14,I6*%
%TO.N,unconnected-(U30-Pad14)*%
X125740000Y-63490000D03*
%TO.P,U30,15,OEb*%
%TO.N,GND*%
X125740000Y-60950000D03*
%TO.P,U30,16,VCC*%
%TO.N,+5V*%
X125740000Y-58410000D03*
%TD*%
D11*
%TO.P,RN1,1,common*%
%TO.N,+5V*%
X114935000Y-82550000D03*
D12*
%TO.P,RN1,2,R1*%
%TO.N,D0*%
X114935000Y-85090000D03*
%TO.P,RN1,3,R2*%
%TO.N,D1*%
X114935000Y-87630000D03*
%TO.P,RN1,4,R3*%
%TO.N,D2*%
X114935000Y-90170000D03*
%TO.P,RN1,5,R4*%
%TO.N,D3*%
X114935000Y-92710000D03*
%TO.P,RN1,6,R5*%
%TO.N,D4*%
X114935000Y-95250000D03*
%TO.P,RN1,7,R6*%
%TO.N,D5*%
X114935000Y-97790000D03*
%TO.P,RN1,8,R7*%
%TO.N,D6*%
X114935000Y-100330000D03*
%TO.P,RN1,9,R8*%
%TO.N,D7*%
X114935000Y-102870000D03*
%TD*%
D15*
%TO.P,CON1,A1,A0*%
%TO.N,A0*%
X74475500Y-113599800D03*
%TO.P,CON1,A2,A1*%
%TO.N,A1*%
X77777500Y-113599800D03*
%TO.P,CON1,A3,A2*%
%TO.N,A2*%
X80825500Y-113599800D03*
%TO.P,CON1,A4,A3*%
%TO.N,A3*%
X84127500Y-113599800D03*
%TO.P,CON1,A5,A4*%
%TO.N,A4*%
X87429500Y-113599800D03*
%TO.P,CON1,A6,A5*%
%TO.N,A5*%
X90477500Y-113599800D03*
%TO.P,CON1,A7,A6*%
%TO.N,A6*%
X93636531Y-113599800D03*
%TO.P,CON1,A8,A7*%
%TO.N,A7*%
X96827500Y-113599800D03*
%TO.P,CON1,A9,A8*%
%TO.N,A8*%
X99986531Y-113599800D03*
%TO.P,CON1,A10,A9*%
%TO.N,A9*%
X103288531Y-113599800D03*
%TO.P,CON1,A11,A10*%
%TO.N,A10*%
X106336530Y-113599800D03*
%TO.P,CON1,A12,A11*%
%TO.N,A11*%
X109638531Y-113599800D03*
%TO.P,CON1,A13,A12*%
%TO.N,A12*%
X112686531Y-113599800D03*
%TO.P,CON1,A14,A13*%
%TO.N,A13*%
X115988531Y-113599800D03*
%TO.P,CON1,A15,D0*%
%TO.N,D0*%
X119179500Y-113599800D03*
%TO.P,CON1,A16,D1*%
%TO.N,D1*%
X122338531Y-113599800D03*
%TO.P,CON1,A17,D2*%
%TO.N,D2*%
X125529500Y-113599800D03*
%TO.P,CON1,A18,D3*%
%TO.N,D3*%
X128688531Y-113599800D03*
%TO.P,CON1,A19,D4*%
%TO.N,D4*%
X131879500Y-113599800D03*
%TO.P,CON1,A20,D5*%
%TO.N,D5*%
X134927500Y-113599800D03*
%TO.P,CON1,A21,D6*%
%TO.N,D6*%
X138229500Y-113599800D03*
%TO.P,CON1,A22,D7*%
%TO.N,D7*%
X141388523Y-113599800D03*
%TD*%
D11*
%TO.P,U27,1,OEa*%
%TO.N,GND*%
X87005000Y-80015000D03*
D12*
%TO.P,U27,2,I0a*%
%TO.N,A0*%
X87005000Y-82555000D03*
%TO.P,U27,3,O3b*%
%TO.N,A1b*%
X87005000Y-85095000D03*
%TO.P,U27,4,I1a*%
%TO.N,A2*%
X87005000Y-87635000D03*
%TO.P,U27,5,O2b*%
%TO.N,A3b*%
X87005000Y-90175000D03*
%TO.P,U27,6,I2a*%
%TO.N,A4*%
X87005000Y-92715000D03*
%TO.P,U27,7,O1b*%
%TO.N,A5b*%
X87005000Y-95255000D03*
%TO.P,U27,8,I3a*%
%TO.N,A6*%
X87005000Y-97795000D03*
%TO.P,U27,9,O0b*%
%TO.N,A7b*%
X87005000Y-100335000D03*
%TO.P,U27,10,GND*%
%TO.N,GND*%
X87005000Y-102875000D03*
%TO.P,U27,11,I0b*%
%TO.N,A7*%
X94625000Y-102875000D03*
%TO.P,U27,12,O3a*%
%TO.N,A6b*%
X94625000Y-100335000D03*
%TO.P,U27,13,I1b*%
%TO.N,A5*%
X94625000Y-97795000D03*
%TO.P,U27,14,O2a*%
%TO.N,A4b*%
X94625000Y-95255000D03*
%TO.P,U27,15,I2b*%
%TO.N,A3*%
X94625000Y-92715000D03*
%TO.P,U27,16,O1a*%
%TO.N,A2b*%
X94625000Y-90175000D03*
%TO.P,U27,17,I3b*%
%TO.N,A1*%
X94625000Y-87635000D03*
%TO.P,U27,18,O0a*%
%TO.N,A0b*%
X94625000Y-85095000D03*
%TO.P,U27,19,OEb*%
%TO.N,GND*%
X94625000Y-82555000D03*
%TO.P,U27,20,VCC*%
%TO.N,+5V*%
X94625000Y-80015000D03*
%TD*%
D16*
%TO.N,A2*%
X84743800Y-107347900D03*
%TO.N,A6*%
X92338300Y-109144500D03*
%TO.N,A9*%
X105259500Y-102295900D03*
%TO.N,A11*%
X106597700Y-100982200D03*
%TO.N,A14*%
X104529100Y-106358800D03*
%TO.N,+5V*%
X106626700Y-78305500D03*
%TO.N,GND*%
X112398600Y-76190000D03*
X91613000Y-102796200D03*
X121373900Y-59307700D03*
X103085100Y-74341700D03*
%TD*%
D17*
%TO.N,A0*%
X87005000Y-82555000D02*
X87005000Y-83680300D01*
X87005000Y-83680300D02*
X87286300Y-83680300D01*
X88148100Y-90636200D02*
X87277500Y-91506800D01*
X88148100Y-84542100D02*
X88148100Y-90636200D01*
X74475500Y-103598600D02*
X74475500Y-113599800D01*
X87286300Y-83680300D02*
X88148100Y-84542100D01*
X86567300Y-91506800D02*
X74475500Y-103598600D01*
X87277500Y-91506800D02*
X86567300Y-91506800D01*
%TO.N,A1*%
X94625000Y-88760300D02*
X94343600Y-88760300D01*
X77777500Y-110439700D02*
X77777500Y-113599800D01*
X88203400Y-94900500D02*
X88203400Y-100749600D01*
X88203400Y-100749600D02*
X87348000Y-101605000D01*
X94343600Y-88760300D02*
X88203400Y-94900500D01*
X86612200Y-101605000D02*
X77777500Y-110439700D01*
X94625000Y-87635000D02*
X94625000Y-88760300D01*
X87348000Y-101605000D02*
X86612200Y-101605000D01*
%TO.N,A2*%
X80825500Y-113599800D02*
X80825500Y-110734500D01*
X81357200Y-110734500D02*
X84743800Y-107347900D01*
X80825500Y-110734500D02*
X81357200Y-110734500D01*
%TO.N,A3*%
X94625000Y-92715000D02*
X94625000Y-93840300D01*
X94343700Y-93840300D02*
X94625000Y-93840300D01*
X84127500Y-113599800D02*
X84127500Y-110734500D01*
X88733200Y-99450800D02*
X94343700Y-93840300D01*
X88733200Y-100856700D02*
X88733200Y-99450800D01*
X88283000Y-106579000D02*
X88283000Y-101306900D01*
X84127500Y-110734500D02*
X88283000Y-106579000D01*
X88283000Y-101306900D02*
X88733200Y-100856700D01*
%TO.N,A4*%
X87005000Y-92715000D02*
X88130300Y-92715000D01*
X95809100Y-95720400D02*
X95004500Y-96525000D01*
X94296300Y-96525000D02*
X89136100Y-101685200D01*
X95095500Y-86458600D02*
X95809100Y-87172200D01*
X95004500Y-96525000D02*
X94296300Y-96525000D01*
X89136100Y-101685200D02*
X89136100Y-111893200D01*
X88130300Y-92715000D02*
X88130300Y-92433700D01*
X94105400Y-86458600D02*
X95095500Y-86458600D01*
X89136100Y-111893200D02*
X87429500Y-113599800D01*
X88130300Y-92433700D02*
X94105400Y-86458600D01*
X95809100Y-87172200D02*
X95809100Y-95720400D01*
%TO.N,A5*%
X90477500Y-113599800D02*
X90477500Y-110734500D01*
X90477500Y-102863900D02*
X94421100Y-98920300D01*
X94625000Y-97795000D02*
X94625000Y-98920300D01*
X90477500Y-110734500D02*
X90477500Y-102863900D01*
X94421100Y-98920300D02*
X94625000Y-98920300D01*
%TO.N,A6*%
X92338300Y-109436300D02*
X92338300Y-109144500D01*
X93636500Y-110734500D02*
X92338300Y-109436300D01*
X93636500Y-113599800D02*
X93636500Y-110734500D01*
%TO.N,A7*%
X94625000Y-104000300D02*
X96827500Y-106202800D01*
X94625000Y-102875000D02*
X94625000Y-104000300D01*
X96827500Y-113599800D02*
X96827500Y-110734500D01*
X96827500Y-106202800D02*
X96827500Y-110734500D01*
%TO.N,A8*%
X99369000Y-100360500D02*
X100613500Y-101605000D01*
X100613500Y-101605000D02*
X101299500Y-101605000D01*
X101299500Y-101605000D02*
X102105800Y-102411300D01*
X100975000Y-82555000D02*
X100975000Y-83680300D01*
X100693700Y-83680300D02*
X99369000Y-85005000D01*
X99369000Y-85005000D02*
X99369000Y-100360500D01*
X102105800Y-102411300D02*
X102105800Y-103950200D01*
X99986500Y-106069500D02*
X99986500Y-113599800D01*
X102105800Y-103950200D02*
X99986500Y-106069500D01*
X100975000Y-83680300D02*
X100693700Y-83680300D01*
%TO.N,A9*%
X103288500Y-110734500D02*
X105259500Y-108763500D01*
X105259500Y-108763500D02*
X105259500Y-102295900D01*
X103288500Y-113599800D02*
X103288500Y-110734500D01*
%TO.N,A10*%
X100574500Y-96525000D02*
X101299600Y-96525000D01*
X100693600Y-88760300D02*
X99849700Y-89604200D01*
X106011000Y-110409000D02*
X106336500Y-110734500D01*
X99849700Y-89604200D02*
X99849700Y-95800200D01*
X101299600Y-96525000D02*
X105397300Y-100622700D01*
X105397300Y-101259600D02*
X106011000Y-101873300D01*
X100975000Y-87635000D02*
X100975000Y-88760300D01*
X100975000Y-88760300D02*
X100693600Y-88760300D01*
X105397300Y-100622700D02*
X105397300Y-101259600D01*
X99849700Y-95800200D02*
X100574500Y-96525000D01*
X106011000Y-101873300D02*
X106011000Y-110409000D01*
X106336500Y-113599800D02*
X106336500Y-110734500D01*
%TO.N,A11*%
X106597700Y-103574600D02*
X106597700Y-100982200D01*
X109638500Y-106615400D02*
X106597700Y-103574600D01*
X109638500Y-113599800D02*
X109638500Y-106615400D01*
%TO.N,A12*%
X100975000Y-92715000D02*
X100975000Y-93840300D01*
X112686500Y-113599800D02*
X112686500Y-108558100D01*
X101256300Y-93840300D02*
X100975000Y-93840300D01*
X107323000Y-99907000D02*
X101256300Y-93840300D01*
X112686500Y-108558100D02*
X107323000Y-103194600D01*
X107323000Y-103194600D02*
X107323000Y-99907000D01*
%TO.N,A13*%
X110392000Y-99592000D02*
X108595000Y-97795000D01*
X115988500Y-110734500D02*
X110392000Y-105138000D01*
X110392000Y-105138000D02*
X110392000Y-99592000D01*
X115988500Y-113599800D02*
X115988500Y-110734500D01*
%TO.N,D0*%
X108890100Y-81211100D02*
X108007000Y-81211100D01*
X111024700Y-89000300D02*
X111024700Y-105133700D01*
X108007000Y-81211100D02*
X105226700Y-78430800D01*
X113852000Y-86173000D02*
X111024700Y-89000300D01*
X119179500Y-113288500D02*
X119179500Y-113599800D01*
X105226700Y-50922200D02*
X107305000Y-48843900D01*
X113852000Y-86173000D02*
X114935000Y-85090000D01*
X105226700Y-78430800D02*
X105226700Y-50922200D01*
X113852000Y-86173000D02*
X108890100Y-81211100D01*
X111024700Y-105133700D02*
X119179500Y-113288500D01*
%TO.N,D1*%
X108509700Y-72052500D02*
X108509700Y-47508600D01*
X114653700Y-88755300D02*
X111475100Y-91933900D01*
X114935000Y-88755300D02*
X114653700Y-88755300D01*
X117751900Y-108750900D02*
X122338500Y-113337500D01*
X116092300Y-85582300D02*
X116092300Y-81633600D01*
X116092300Y-81633600D02*
X112668300Y-78209600D01*
X114935000Y-87630000D02*
X114935000Y-86504700D01*
X115169900Y-86504700D02*
X116092300Y-85582300D01*
X111475100Y-104406200D02*
X115819800Y-108750900D01*
X115819800Y-108750900D02*
X117751900Y-108750900D01*
X112668300Y-78209600D02*
X107645700Y-78209600D01*
X108509700Y-47508600D02*
X107305000Y-46303900D01*
X114935000Y-86504700D02*
X115169900Y-86504700D01*
X105684900Y-76248800D02*
X105684900Y-74877300D01*
X105684900Y-74877300D02*
X108509700Y-72052500D01*
X122338500Y-113337500D02*
X122338500Y-113599800D01*
X111475100Y-91933900D02*
X111475100Y-104406200D01*
X114935000Y-87630000D02*
X114935000Y-88755300D01*
X107645700Y-78209600D02*
X105684900Y-76248800D01*
%TO.N,D2*%
X114935000Y-90628200D02*
X116543400Y-89019800D01*
X106135200Y-75064000D02*
X109845000Y-71354200D01*
X125529500Y-113351400D02*
X120478600Y-108300500D01*
X111925500Y-104219700D02*
X111925500Y-93637700D01*
X109845000Y-71354200D02*
X109845000Y-48843900D01*
X112869800Y-77758700D02*
X107831700Y-77758700D01*
X116543400Y-89019800D02*
X116543400Y-81432300D01*
X120478600Y-108300500D02*
X116006300Y-108300500D01*
X106135200Y-76062200D02*
X106135200Y-75064000D01*
X116006300Y-108300500D02*
X111925500Y-104219700D01*
X114935000Y-90170000D02*
X114935000Y-90628200D01*
X107831700Y-77758700D02*
X106135200Y-76062200D01*
X116543400Y-81432300D02*
X112869800Y-77758700D01*
X125529500Y-113599800D02*
X125529500Y-113351400D01*
X111925500Y-93637700D02*
X114935000Y-90628200D01*
%TO.N,D3*%
X109845000Y-46303900D02*
X111115000Y-47573900D01*
X115216300Y-91584700D02*
X114935000Y-91584700D01*
X128688500Y-113599800D02*
X128688500Y-113270100D01*
X119250400Y-87550600D02*
X115216300Y-91584700D01*
X112445200Y-103999100D02*
X112445200Y-95199800D01*
X112445200Y-95199800D02*
X114935000Y-92710000D01*
X114935000Y-92710000D02*
X114935000Y-91584700D01*
X128688500Y-113270100D02*
X123268500Y-107850100D01*
X111115000Y-68312100D02*
X117722900Y-74920000D01*
X123268500Y-107850100D02*
X116296200Y-107850100D01*
X118451400Y-74920000D02*
X119250400Y-75719000D01*
X116296200Y-107850100D02*
X112445200Y-103999100D01*
X111115000Y-47573900D02*
X111115000Y-68312100D01*
X117722900Y-74920000D02*
X118451400Y-74920000D01*
X119250400Y-75719000D02*
X119250400Y-87550600D01*
%TO.N,D4*%
X119297700Y-57475100D02*
X119297700Y-60167900D01*
X113655000Y-51832400D02*
X119297700Y-57475100D01*
X114701400Y-105566500D02*
X112904000Y-103769100D01*
X124096100Y-105566500D02*
X114701400Y-105566500D01*
X119700700Y-89640300D02*
X115216300Y-94124700D01*
X112385000Y-50675000D02*
X113542400Y-51832400D01*
X119297700Y-60167900D02*
X119700700Y-60570900D01*
X119700700Y-60570900D02*
X119700700Y-89640300D01*
X131879500Y-113349900D02*
X124096100Y-105566500D01*
X112385000Y-48843900D02*
X112385000Y-50675000D01*
X112904000Y-103769100D02*
X112904000Y-97281000D01*
X131879500Y-113599800D02*
X131879500Y-113349900D01*
X114935000Y-95250000D02*
X114935000Y-94124700D01*
X113542400Y-51832400D02*
X113655000Y-51832400D01*
X115216300Y-94124700D02*
X114935000Y-94124700D01*
X112904000Y-97281000D02*
X114935000Y-95250000D01*
%TO.N,D5*%
X113655100Y-51195600D02*
X119748000Y-57288500D01*
X113655000Y-51195600D02*
X113655100Y-51195600D01*
X113356800Y-100212200D02*
X114653700Y-98915300D01*
X134927500Y-113137400D02*
X126456000Y-104665900D01*
X114935000Y-98352600D02*
X114935000Y-98915300D01*
X120151000Y-60384300D02*
X120151000Y-91730000D01*
X119748000Y-59981300D02*
X120151000Y-60384300D01*
X114653700Y-98915300D02*
X114935000Y-98915300D01*
X126456000Y-104665900D02*
X114465700Y-104665900D01*
X113356800Y-103557000D02*
X113356800Y-100212200D01*
X113655000Y-47573900D02*
X113655000Y-51195600D01*
X119748000Y-57288500D02*
X119748000Y-59981300D01*
X120151000Y-91730000D02*
X115216300Y-96664700D01*
X115216300Y-96664700D02*
X114935000Y-96664700D01*
X112385000Y-46303900D02*
X113655000Y-47573900D01*
X114465700Y-104665900D02*
X113356800Y-103557000D01*
X134927500Y-113599800D02*
X134927500Y-113137400D01*
X114935000Y-98352600D02*
X114935000Y-97790000D01*
X114935000Y-97790000D02*
X114935000Y-96664700D01*
%TO.N,D6*%
X114653600Y-101455300D02*
X114935000Y-101455300D01*
X138229500Y-113599800D02*
X138229500Y-113389500D01*
X114925000Y-48843900D02*
X114925000Y-51828600D01*
X120601300Y-60197700D02*
X120601300Y-95121900D01*
X114935000Y-100892600D02*
X114935000Y-100788200D01*
X138229500Y-113389500D02*
X129055600Y-104215600D01*
X114656800Y-104215600D02*
X113809700Y-103368500D01*
X113809700Y-102299200D02*
X114653600Y-101455300D01*
X113809700Y-103368500D02*
X113809700Y-102299200D01*
X114935000Y-100892600D02*
X114935000Y-101455300D01*
X114925000Y-51828600D02*
X120198300Y-57101900D01*
X120198300Y-57101900D02*
X120198300Y-59794700D01*
X129055600Y-104215600D02*
X114656800Y-104215600D01*
X120198300Y-59794700D02*
X120601300Y-60197700D01*
X114935000Y-100330000D02*
X114935000Y-100788200D01*
X120601300Y-95121900D02*
X114935000Y-100788200D01*
%TO.N,D7*%
X121056700Y-102870000D02*
X114935000Y-102870000D01*
X141388500Y-113327000D02*
X130931500Y-102870000D01*
X120648600Y-59608100D02*
X120648600Y-56915300D01*
X121056700Y-102870000D02*
X121056700Y-60016200D01*
X121056700Y-60016200D02*
X120648600Y-59608100D01*
X120648600Y-56915300D02*
X116195000Y-52461700D01*
X130931500Y-102870000D02*
X121056700Y-102870000D01*
X141388500Y-113599800D02*
X141388500Y-113327000D01*
X116195000Y-47573900D02*
X114925000Y-46303900D01*
X116195000Y-52461700D02*
X116195000Y-47573900D01*
%TO.N,A14*%
X100975000Y-97795000D02*
X100975000Y-98920300D01*
X101256300Y-98920300D02*
X104529100Y-102193100D01*
X104529100Y-102193100D02*
X104529100Y-106358800D01*
X100975000Y-98920300D02*
X101256300Y-98920300D01*
%TO.N,A8b*%
X108595000Y-85095000D02*
X108595000Y-83969700D01*
X98360300Y-47628600D02*
X102676100Y-47628600D01*
X108313700Y-83969700D02*
X108595000Y-83969700D01*
X97145000Y-48843900D02*
X98360300Y-47628600D01*
X104774200Y-50756200D02*
X104774200Y-80430200D01*
X103495000Y-48447500D02*
X103495000Y-49477000D01*
X103495000Y-49477000D02*
X104774200Y-50756200D01*
X102676100Y-47628600D02*
X103495000Y-48447500D01*
X104774200Y-80430200D02*
X108313700Y-83969700D01*
%TO.N,A10b*%
X103810400Y-52969300D02*
X103810400Y-84546400D01*
X103810400Y-84546400D02*
X108313700Y-89049700D01*
X108595000Y-90175000D02*
X108595000Y-89049700D01*
X108313700Y-89049700D02*
X108595000Y-89049700D01*
X99685000Y-48843900D02*
X103810400Y-52969300D01*
%TO.N,A12b*%
X109720300Y-93285800D02*
X108876400Y-94129700D01*
X109720300Y-87138500D02*
X109720300Y-93285800D01*
X104269300Y-50888200D02*
X104269300Y-82364100D01*
X108876400Y-94129700D02*
X108595000Y-94129700D01*
X108595000Y-95255000D02*
X108595000Y-94129700D01*
X108946800Y-86365000D02*
X109720300Y-87138500D01*
X102225000Y-48843900D02*
X104269300Y-50888200D01*
X104269300Y-82364100D02*
X108270200Y-86365000D01*
X108270200Y-86365000D02*
X108946800Y-86365000D01*
%TO.N,A3b*%
X85876500Y-88202500D02*
X85876500Y-54151500D01*
X88255500Y-51772500D02*
X88255500Y-47573400D01*
X88255500Y-47573400D02*
X89525000Y-46303900D01*
X85876500Y-54151500D02*
X88255500Y-51772500D01*
X87005000Y-89049700D02*
X86723700Y-89049700D01*
X86723700Y-89049700D02*
X85876500Y-88202500D01*
X87005000Y-90175000D02*
X87005000Y-89049700D01*
%TO.N,A14b*%
X91598900Y-81173400D02*
X96238000Y-81173400D01*
X108595000Y-100335000D02*
X108595000Y-99209700D01*
X102100400Y-79024500D02*
X102100400Y-92996400D01*
X86488200Y-76062700D02*
X91598900Y-81173400D01*
X86488200Y-74358300D02*
X86488200Y-76062700D01*
X103495000Y-45892600D02*
X102714300Y-45111900D01*
X102100400Y-92996400D02*
X108313700Y-99209700D01*
X108313700Y-99209700D02*
X108595000Y-99209700D01*
X102714300Y-45111900D02*
X96605400Y-45111900D01*
X101945700Y-78869800D02*
X102100400Y-79024500D01*
X103495000Y-47573900D02*
X103495000Y-45892600D01*
X98541600Y-78869800D02*
X101945700Y-78869800D01*
X95875000Y-64971500D02*
X86488200Y-74358300D01*
X104765000Y-48843900D02*
X103495000Y-47573900D01*
X96605400Y-45111900D02*
X95875000Y-45842300D01*
X95875000Y-45842300D02*
X95875000Y-64971500D01*
X96238000Y-81173400D02*
X98541600Y-78869800D01*
%TO.N,IOWb*%
X124613500Y-65541500D02*
X125395000Y-64760000D01*
X125395000Y-64760000D02*
X126073900Y-64760000D01*
X125458700Y-75064700D02*
X124613500Y-74219500D01*
X125740000Y-75064700D02*
X125458700Y-75064700D01*
X125740000Y-76190000D02*
X125740000Y-75064700D01*
X126868800Y-63965100D02*
X126868800Y-57875200D01*
X121275000Y-47573900D02*
X120005000Y-46303900D01*
X126868800Y-57875200D02*
X125045800Y-56052200D01*
X124826800Y-56052200D02*
X121275000Y-52500400D01*
X125045800Y-56052200D02*
X124826800Y-56052200D01*
X121275000Y-52500400D02*
X121275000Y-47573900D01*
X124613500Y-74219500D02*
X124613500Y-65541500D01*
X126073900Y-64760000D02*
X126868800Y-63965100D01*
%TO.N,WREQb*%
X126449600Y-55468300D02*
X126449600Y-47479300D01*
X127319100Y-68686900D02*
X127319100Y-56337800D01*
X127319100Y-56337800D02*
X126449600Y-55468300D01*
X126021300Y-69984700D02*
X127319100Y-68686900D01*
X125740000Y-71110000D02*
X125740000Y-69984700D01*
X125740000Y-69984700D02*
X126021300Y-69984700D01*
X126449600Y-47479300D02*
X127625000Y-46303900D01*
%TO.N,+5V*%
X94625000Y-80015000D02*
X95750300Y-80015000D01*
X100200300Y-75565000D02*
X102275000Y-75565000D01*
X95750300Y-80015000D02*
X100200300Y-75565000D01*
X111274700Y-80015000D02*
X113809700Y-82550000D01*
X87630000Y-75565000D02*
X89049700Y-75565000D01*
X114935000Y-82550000D02*
X113809700Y-82550000D01*
X107469700Y-79148500D02*
X107469700Y-80015000D01*
X123855000Y-58410000D02*
X124614700Y-58410000D01*
X106626700Y-78305500D02*
X107469700Y-79148500D01*
X119420000Y-53975000D02*
X123855000Y-58410000D01*
X94625000Y-80015000D02*
X93499700Y-80015000D01*
X89049700Y-75565000D02*
X93499700Y-80015000D01*
X125740000Y-58410000D02*
X124614700Y-58410000D01*
X108595000Y-80015000D02*
X111274700Y-80015000D01*
X108595000Y-80015000D02*
X107469700Y-80015000D01*
%TO.N,GND*%
X100975000Y-102875000D02*
X99849700Y-102875000D01*
X100975000Y-80015000D02*
X99849700Y-80015000D01*
X99849700Y-80015000D02*
X97309700Y-82555000D01*
X103085100Y-74341700D02*
X93853300Y-74341700D01*
X96259500Y-101723100D02*
X92686100Y-101723100D01*
X97309700Y-82555000D02*
X96259500Y-82555000D01*
X90670300Y-82555000D02*
X88130300Y-80015000D01*
X118120000Y-76190000D02*
X112398600Y-76190000D01*
X87005000Y-80015000D02*
X88130300Y-80015000D01*
X122972400Y-59307700D02*
X121373900Y-59307700D01*
X94625000Y-82555000D02*
X90670300Y-82555000D01*
X96259500Y-82555000D02*
X94625000Y-82555000D01*
X98697800Y-101723100D02*
X96259500Y-101723100D01*
X112398600Y-76190000D02*
X107900000Y-76190000D01*
X99849700Y-102875000D02*
X98697800Y-101723100D01*
X93853300Y-74341700D02*
X92630000Y-75565000D01*
X96259500Y-101723100D02*
X96259500Y-82555000D01*
X92686100Y-101723100D02*
X91613000Y-102796200D01*
X125740000Y-60950000D02*
X124614700Y-60950000D01*
X124614700Y-60950000D02*
X122972400Y-59307700D01*
X107900000Y-76190000D02*
X107275000Y-75565000D01*
%TD*%
M02*
