M48
; DRILL file {KiCad (6.0.6)} date Sat Oct 29 21:57:19 2022
; FORMAT={-:-/ absolute / metric / decimal}
; #@! TF.CreationDate,2022-10-29T21:57:19+02:00
; #@! TF.GenerationSoftware,Kicad,Pcbnew,(6.0.6)
; #@! TF.FileFunction,Plated,1,2,PTH
FMAT,2
METRIC
; #@! TA.AperFunction,Plated,PTH,ViaDrill
T1C0.400
; #@! TA.AperFunction,Plated,PTH,ComponentDrill
T2C0.700
; #@! TA.AperFunction,Plated,PTH,ComponentDrill
T3C0.750
; #@! TA.AperFunction,Plated,PTH,ComponentDrill
T4C0.800
; #@! TA.AperFunction,Plated,PTH,ComponentDrill
T5C0.900
; #@! TA.AperFunction,Plated,PTH,ComponentDrill
T6C1.000
; #@! TA.AperFunction,Plated,PTH,ComponentDrill
T7C1.090
; #@! TA.AperFunction,Plated,PTH,ComponentDrill
T8C1.850
; #@! TA.AperFunction,Plated,PTH,ComponentDrill
T9C3.200
%
G90
G05
T1
X36.764Y-146.583
X41.93Y-48.771
X42.305Y-63.195
X52.904Y-101.761
X54.016Y-69.143
X56.39Y-51.095
X59.534Y-93.053
X60.877Y-39.556
X62.324Y-92.994
X64.842Y-75.235
X67.719Y-76.179
X67.809Y-103.833
X69.36Y-56.85
X69.846Y-89.749
X69.863Y-96.969
X70.415Y-93.268
X75.972Y-78.477
X76.653Y-81.663
X77.016Y-44.198
X79.324Y-80.316
X79.461Y-139.713
X81.726Y-77.494
X82.602Y-47.296
X83.314Y-82.393
X83.728Y-92.447
X83.735Y-77.675
X84.46Y-43.942
X85.768Y-46.672
X88.532Y-73.065
X88.819Y-127.579
X90.066Y-75.029
X91.007Y-90.361
X91.261Y-47.876
X91.838Y-101.132
X91.865Y-82.177
X92.632Y-67.538
X93.08Y-96.48
X93.875Y-80.197
X96.805Y-64.473
X97.067Y-92.017
X99.445Y-99.899
X100.458Y-134.075
X101.383Y-64.643
X103.555Y-80.215
X106.186Y-92.456
X109.545Y-75.882
X111.738Y-91.682
X113.211Y-44.252
X115.598Y-31.937
X115.751Y-42.12
X116.826Y-91.672
X116.845Y-48.041
X117.47Y-101.132
X120.034Y-95.473
X121.15Y-63.284
X121.734Y-49.755
X122.769Y-59.659
X123.828Y-52.87
X125.046Y-54.387
X127.006Y-37.531
X129.45Y-53.939
X129.938Y-55.696
X130.815Y-27.827
X132.725Y-68.718
X132.856Y-112.433
X133.57Y-55.376
X134.795Y-64.811
X135.041Y-49.511
X136.314Y-63.605
X136.41Y-78.06
X137.314Y-64.33
X137.452Y-40.399
X139.828Y-38.903
X147.581Y-102.471
X147.632Y-55.384
X151.307Y-73.402
X152.307Y-73.402
X153.76Y-45.372
X153.863Y-72.742
X155.257Y-60.347
X156.546Y-71.233
X156.657Y-60.274
X159.323Y-69.251
X159.468Y-42.354
X163.969Y-65.607
X164.222Y-68.801
X164.452Y-41.079
X167.815Y-60.443
X168.542Y-62.142
X169.226Y-62.88
X169.809Y-53.438
X171.14Y-59.028
X183.518Y-72.731
X188.445Y-44.942
X192.337Y-40.969
X193.546Y-69.536
X206.177Y-48.843
T2
X113.03Y-158.505
X114.935Y-164.69
X114.935Y-172.31
X120.65Y-158.505
X125.73Y-164.69
X125.73Y-172.31
X135.255Y-164.69
X135.255Y-172.31
X208.28Y-49.53
X208.28Y-57.15
X213.995Y-49.53
X213.995Y-57.15
X245.745Y-36.195
X245.745Y-43.815
T3
X113.025Y-154.305
X120.645Y-154.305
T4
X38.415Y-133.985
X39.365Y-106.72
X39.365Y-111.72
X39.37Y-48.3
X39.37Y-53.3
X39.37Y-71.16
X39.37Y-76.16
X39.37Y-90.21
X39.37Y-95.21
X39.37Y-120.69
X39.37Y-125.69
X39.37Y-161.33
X39.37Y-166.33
X40.415Y-133.985
X45.07Y-67.315
X45.07Y-82.555
X45.075Y-105.4
X45.075Y-113.02
X45.09Y-43.185
X45.09Y-58.425
X45.09Y-90.16
X45.09Y-97.78
X45.1Y-120.005
X45.1Y-127.625
X45.1Y-160.01
X45.1Y-167.63
X45.105Y-141.595
X45.105Y-149.215
X46.035Y-133.985
X47.61Y-67.315
X47.61Y-82.555
X47.615Y-105.4
X47.615Y-113.02
X47.63Y-43.185
X47.63Y-58.425
X47.63Y-90.16
X47.63Y-97.78
X47.64Y-120.005
X47.64Y-127.625
X47.64Y-160.01
X47.64Y-167.63
X47.645Y-141.595
X47.645Y-149.215
X48.035Y-133.985
X50.15Y-67.315
X50.15Y-82.555
X50.155Y-105.4
X50.155Y-113.02
X50.17Y-43.185
X50.17Y-58.425
X50.17Y-90.16
X50.17Y-97.78
X50.18Y-120.005
X50.18Y-127.625
X50.18Y-160.01
X50.18Y-167.63
X50.185Y-141.595
X50.185Y-149.215
X52.69Y-67.315
X52.69Y-82.555
X52.695Y-105.4
X52.695Y-113.02
X52.71Y-43.185
X52.71Y-58.425
X52.71Y-90.16
X52.71Y-97.78
X52.72Y-120.005
X52.72Y-127.625
X52.72Y-160.01
X52.72Y-167.63
X52.725Y-141.595
X52.725Y-149.215
X53.02Y-133.985
X55.02Y-133.985
X55.23Y-67.315
X55.23Y-82.555
X55.235Y-105.4
X55.235Y-113.02
X55.25Y-43.185
X55.25Y-58.425
X55.25Y-90.16
X55.25Y-97.78
X55.26Y-120.005
X55.26Y-127.625
X55.26Y-160.01
X55.26Y-167.63
X55.265Y-141.595
X55.265Y-149.215
X57.77Y-67.315
X57.77Y-82.555
X57.775Y-105.4
X57.775Y-113.02
X57.79Y-43.185
X57.79Y-58.425
X57.79Y-90.16
X57.79Y-97.78
X57.8Y-120.005
X57.8Y-127.625
X57.8Y-160.01
X57.8Y-167.63
X57.805Y-141.595
X57.805Y-149.215
X60.31Y-67.315
X60.31Y-82.555
X60.315Y-105.4
X60.315Y-113.02
X60.33Y-43.185
X60.33Y-58.425
X60.33Y-90.16
X60.33Y-97.78
X60.34Y-120.005
X60.34Y-127.625
X60.34Y-160.01
X60.34Y-167.63
X60.345Y-141.595
X60.345Y-149.215
X60.64Y-133.985
X62.64Y-133.985
X62.85Y-67.315
X62.85Y-82.555
X62.855Y-105.4
X62.855Y-113.02
X62.87Y-43.185
X62.87Y-58.425
X62.87Y-90.16
X62.87Y-97.78
X62.88Y-120.005
X62.88Y-127.625
X62.88Y-160.01
X62.88Y-167.63
X65.39Y-67.315
X65.39Y-82.555
X65.41Y-43.185
X65.41Y-58.425
X65.41Y-90.16
X65.41Y-97.78
X67.93Y-67.315
X67.93Y-82.555
X67.945Y-36.83
X67.95Y-43.185
X67.95Y-58.425
X67.95Y-90.16
X67.95Y-97.78
X70.47Y-67.315
X70.47Y-82.555
X70.485Y-36.83
X70.49Y-43.185
X70.49Y-58.425
X73.01Y-67.315
X73.01Y-82.555
X73.025Y-36.83
X73.03Y-43.185
X73.03Y-58.425
X75.55Y-67.315
X75.55Y-82.555
X75.565Y-36.83
X75.565Y-105.45
X75.565Y-110.45
X75.565Y-118.785
X75.565Y-123.785
X75.565Y-132.12
X75.565Y-137.12
X75.565Y-145.455
X75.565Y-150.455
X75.57Y-43.185
X75.57Y-58.425
X78.09Y-67.315
X78.09Y-82.555
X78.105Y-36.83
X78.11Y-43.185
X78.11Y-58.425
X78.74Y-161.29
X78.74Y-168.91
X80.64Y-104.13
X80.64Y-111.75
X80.64Y-116.83
X80.64Y-124.45
X80.64Y-130.8
X80.64Y-138.42
X80.64Y-144.135
X80.64Y-151.755
X80.645Y-36.83
X80.65Y-43.185
X80.65Y-58.425
X83.18Y-104.13
X83.18Y-111.75
X83.18Y-116.83
X83.18Y-124.45
X83.18Y-130.8
X83.18Y-138.42
X83.18Y-144.135
X83.18Y-151.755
X83.185Y-36.83
X83.19Y-43.185
X83.19Y-58.425
X85.72Y-104.13
X85.72Y-111.75
X85.72Y-116.83
X85.72Y-124.45
X85.72Y-130.8
X85.72Y-138.42
X85.72Y-144.135
X85.72Y-151.755
X85.725Y-36.83
X85.73Y-43.185
X85.73Y-58.425
X88.26Y-104.13
X88.26Y-111.75
X88.26Y-116.83
X88.26Y-124.45
X88.26Y-130.8
X88.26Y-138.42
X88.26Y-144.135
X88.26Y-151.755
X88.265Y-36.83
X88.27Y-43.185
X88.27Y-58.425
X88.9Y-91.48
X88.9Y-96.48
X90.8Y-104.13
X90.8Y-111.75
X90.8Y-116.83
X90.8Y-124.45
X90.8Y-130.8
X90.8Y-138.42
X90.8Y-144.135
X90.8Y-151.755
X90.81Y-43.185
X90.81Y-58.425
X93.34Y-104.13
X93.34Y-111.75
X93.34Y-116.83
X93.34Y-124.45
X93.34Y-130.8
X93.34Y-138.42
X93.34Y-144.135
X93.34Y-151.755
X93.35Y-43.185
X93.35Y-58.425
X93.98Y-161.29
X93.98Y-168.91
X94.615Y-73.065
X94.615Y-78.065
X94.615Y-90.15
X94.615Y-97.77
X95.88Y-104.13
X95.88Y-111.75
X95.88Y-116.83
X95.88Y-124.45
X95.88Y-130.8
X95.88Y-138.42
X95.88Y-144.135
X95.88Y-151.755
X97.155Y-90.15
X97.155Y-97.77
X99.695Y-90.15
X99.695Y-97.77
X99.705Y-67.315
X99.705Y-82.555
X101.6Y-48.3
X101.6Y-53.3
X102.235Y-90.15
X102.235Y-97.77
X102.245Y-67.315
X102.245Y-82.555
X104.775Y-90.15
X104.775Y-97.77
X104.785Y-67.315
X104.785Y-82.555
X106.685Y-43.185
X106.685Y-58.425
X107.315Y-90.15
X107.315Y-97.77
X107.325Y-67.315
X107.325Y-82.555
X109.225Y-43.185
X109.225Y-58.425
X109.855Y-90.15
X109.855Y-97.77
X109.855Y-106.72
X109.855Y-111.72
X109.855Y-126.405
X109.855Y-131.405
X109.855Y-141.645
X109.855Y-146.645
X109.865Y-67.315
X109.865Y-82.555
X111.765Y-43.185
X111.765Y-58.425
X112.395Y-90.15
X112.395Y-97.77
X112.405Y-67.315
X112.405Y-82.555
X114.305Y-43.185
X114.305Y-58.425
X114.935Y-90.15
X114.935Y-97.77
X114.945Y-67.315
X114.945Y-82.555
X116.2Y-105.4
X116.2Y-113.02
X116.2Y-125.72
X116.2Y-133.34
X116.2Y-140.325
X116.2Y-147.945
X116.84Y-118.745
X116.845Y-43.185
X116.845Y-58.425
X117.475Y-90.15
X117.475Y-97.77
X117.485Y-67.315
X117.485Y-82.555
X118.74Y-105.4
X118.74Y-113.02
X118.74Y-125.72
X118.74Y-133.34
X118.74Y-140.325
X118.74Y-147.945
X119.38Y-118.745
X119.385Y-43.185
X119.385Y-58.425
X120.015Y-90.15
X120.015Y-97.77
X120.025Y-67.315
X120.025Y-82.555
X121.28Y-105.4
X121.28Y-113.02
X121.28Y-125.72
X121.28Y-133.34
X121.28Y-140.325
X121.28Y-147.945
X121.92Y-118.745
X121.925Y-43.185
X121.925Y-58.425
X122.555Y-90.15
X122.555Y-97.77
X122.565Y-67.315
X122.565Y-82.555
X123.82Y-105.4
X123.82Y-113.02
X123.82Y-125.72
X123.82Y-133.34
X123.82Y-140.325
X123.82Y-147.945
X124.46Y-118.745
X124.465Y-43.185
X124.465Y-58.425
X125.095Y-90.15
X125.095Y-97.77
X125.105Y-67.315
X125.105Y-82.555
X126.36Y-105.4
X126.36Y-113.02
X126.36Y-125.72
X126.36Y-133.34
X126.36Y-140.325
X126.36Y-147.945
X127.0Y-118.745
X127.005Y-43.185
X127.005Y-58.425
X127.635Y-90.15
X127.635Y-97.77
X127.645Y-67.315
X127.645Y-82.555
X128.9Y-105.4
X128.9Y-113.02
X128.9Y-125.72
X128.9Y-133.34
X128.9Y-140.325
X128.9Y-147.945
X128.97Y-156.845
X129.54Y-118.745
X129.545Y-43.185
X129.545Y-58.425
X130.175Y-90.15
X130.175Y-97.77
X130.185Y-67.315
X130.185Y-82.555
X131.44Y-105.4
X131.44Y-113.02
X131.44Y-125.72
X131.44Y-133.34
X131.44Y-140.325
X131.44Y-147.945
X131.47Y-156.845
X132.085Y-43.185
X132.085Y-58.425
X132.715Y-90.15
X132.715Y-97.77
X132.725Y-67.315
X132.725Y-82.555
X134.625Y-43.185
X134.625Y-58.425
X137.165Y-43.185
X137.165Y-58.425
X139.705Y-43.185
X139.705Y-58.425
X142.245Y-43.185
X142.245Y-58.425
X144.785Y-43.185
X144.785Y-58.425
X147.325Y-43.185
X147.325Y-58.425
X149.865Y-43.185
X149.865Y-58.425
X152.405Y-43.185
X152.405Y-58.425
X154.945Y-43.185
X154.945Y-58.425
X178.435Y-51.475
X178.435Y-56.475
X184.78Y-50.155
X184.78Y-57.775
X187.32Y-50.155
X187.32Y-57.775
X189.86Y-50.155
X189.86Y-57.775
X192.4Y-50.155
X192.4Y-57.775
X194.94Y-50.155
X194.94Y-57.775
X197.48Y-50.155
X197.48Y-57.775
X200.02Y-50.155
X200.02Y-57.775
X206.375Y-43.18
X211.375Y-43.18
X215.9Y-37.505
X215.9Y-42.505
X221.61Y-36.185
X221.61Y-43.805
X223.52Y-50.8
X223.52Y-58.42
X224.15Y-36.185
X224.15Y-43.805
X226.69Y-36.185
X226.69Y-43.805
X229.23Y-36.185
X229.23Y-43.805
X231.77Y-36.185
X231.77Y-43.805
X234.31Y-36.185
X234.31Y-43.805
X236.85Y-36.185
X236.85Y-43.805
X238.76Y-50.8
X238.76Y-58.42
T5
X113.665Y-176.53
X116.205Y-176.53
X124.455Y-176.53
X126.995Y-176.53
X133.985Y-176.53
X136.525Y-176.53
T6
X101.15Y-29.0
X102.535Y-26.16
X103.92Y-29.0
X105.305Y-26.16
X106.69Y-29.0
X108.075Y-26.16
X109.46Y-29.0
X110.845Y-26.16
X112.23Y-29.0
X134.62Y-21.59
X134.62Y-24.13
X137.16Y-21.59
X137.16Y-24.13
X139.7Y-21.59
X139.7Y-24.13
X142.24Y-21.59
X142.24Y-24.13
X144.78Y-21.59
X144.78Y-24.13
X147.32Y-21.59
X147.32Y-24.13
X149.86Y-21.59
X149.86Y-24.13
X152.4Y-21.59
X152.4Y-24.13
X153.67Y-64.135
X153.67Y-66.675
X153.67Y-69.215
X172.085Y-63.517
X172.085Y-66.057
X174.625Y-63.517
X174.625Y-66.057
X177.165Y-63.517
X177.165Y-66.057
X179.705Y-63.517
X179.705Y-66.057
X181.61Y-25.383
X181.61Y-27.922
X182.245Y-63.517
X182.245Y-66.057
X184.15Y-25.383
X184.15Y-27.922
X184.785Y-63.517
X184.785Y-66.057
X186.69Y-25.383
X186.69Y-27.922
X187.325Y-63.517
X187.325Y-66.057
X189.23Y-25.383
X189.23Y-27.922
X189.865Y-63.517
X189.865Y-66.057
X191.77Y-25.383
X191.77Y-27.922
X192.405Y-63.517
X192.405Y-66.057
X194.31Y-25.383
X194.31Y-27.922
X194.945Y-63.517
X194.945Y-66.057
X196.85Y-25.383
X196.85Y-27.922
X197.485Y-63.517
X197.485Y-66.057
X199.39Y-25.383
X199.39Y-27.922
X200.025Y-63.517
X200.025Y-66.057
X201.93Y-25.383
X201.93Y-27.922
X202.565Y-63.517
X202.565Y-66.057
X204.47Y-25.383
X204.47Y-27.922
X205.105Y-63.517
X205.105Y-66.057
X207.01Y-25.383
X207.01Y-27.922
X207.645Y-63.517
X207.645Y-66.057
X209.55Y-25.383
X209.55Y-27.922
X210.185Y-63.517
X210.185Y-66.057
X212.09Y-25.383
X212.09Y-27.922
X212.725Y-63.517
X212.725Y-66.057
X214.63Y-25.383
X214.63Y-27.922
X217.17Y-25.383
X217.17Y-27.922
X219.71Y-25.383
X219.71Y-27.922
X222.25Y-25.383
X222.25Y-27.922
X234.315Y-27.235
T7
X227.33Y-67.83
X229.87Y-67.83
X232.41Y-67.83
X234.95Y-67.83
T8
X45.72Y-16.14
X48.26Y-28.84
X48.26Y-32.65
X48.26Y-36.46
X50.8Y-16.14
T9
X94.19Y-28.7
X119.19Y-28.7
T6
X62.932Y-24.225G85X62.932Y-26.225
G05
X68.632Y-22.225G85X66.632Y-22.225
G05
X68.632Y-28.225G85X66.632Y-28.225
G05
T0
M30
