%TF.GenerationSoftware,KiCad,Pcbnew,(6.0.6)*%
%TF.CreationDate,2022-10-29T21:57:17+02:00*%
%TF.ProjectId,SF-7017,53462d37-3031-4372-9e6b-696361645f70,rev?*%
%TF.SameCoordinates,Original*%
%TF.FileFunction,Paste,Bot*%
%TF.FilePolarity,Positive*%
%FSLAX46Y46*%
G04 Gerber Fmt 4.6, Leading zero omitted, Abs format (unit mm)*
G04 Created by KiCad (PCBNEW (6.0.6)) date 2022-10-29 21:57:17*
%MOMM*%
%LPD*%
G01*
G04 APERTURE LIST*
%ADD10C,0.150000*%
G04 APERTURE END LIST*
D10*
%TO.C,IC21*%
X189762142Y-53427380D02*
X190428809Y-53427380D01*
X190000238Y-54427380D01*
X191238333Y-53760714D02*
X191238333Y-54427380D01*
X191000238Y-53379761D02*
X190762142Y-54094047D01*
X191381190Y-54094047D01*
X192238333Y-54427380D02*
X191762142Y-54427380D01*
X191762142Y-53427380D01*
X192524047Y-54379761D02*
X192666904Y-54427380D01*
X192905000Y-54427380D01*
X193000238Y-54379761D01*
X193047857Y-54332142D01*
X193095476Y-54236904D01*
X193095476Y-54141666D01*
X193047857Y-54046428D01*
X193000238Y-53998809D01*
X192905000Y-53951190D01*
X192714523Y-53903571D01*
X192619285Y-53855952D01*
X192571666Y-53808333D01*
X192524047Y-53713095D01*
X192524047Y-53617857D01*
X192571666Y-53522619D01*
X192619285Y-53475000D01*
X192714523Y-53427380D01*
X192952619Y-53427380D01*
X193095476Y-53475000D01*
X193714523Y-53427380D02*
X193809761Y-53427380D01*
X193905000Y-53475000D01*
X193952619Y-53522619D01*
X194000238Y-53617857D01*
X194047857Y-53808333D01*
X194047857Y-54046428D01*
X194000238Y-54236904D01*
X193952619Y-54332142D01*
X193905000Y-54379761D01*
X193809761Y-54427380D01*
X193714523Y-54427380D01*
X193619285Y-54379761D01*
X193571666Y-54332142D01*
X193524047Y-54236904D01*
X193476428Y-54046428D01*
X193476428Y-53808333D01*
X193524047Y-53617857D01*
X193571666Y-53522619D01*
X193619285Y-53475000D01*
X193714523Y-53427380D01*
X194666904Y-53427380D02*
X194762142Y-53427380D01*
X194857380Y-53475000D01*
X194905000Y-53522619D01*
X194952619Y-53617857D01*
X195000238Y-53808333D01*
X195000238Y-54046428D01*
X194952619Y-54236904D01*
X194905000Y-54332142D01*
X194857380Y-54379761D01*
X194762142Y-54427380D01*
X194666904Y-54427380D01*
X194571666Y-54379761D01*
X194524047Y-54332142D01*
X194476428Y-54236904D01*
X194428809Y-54046428D01*
X194428809Y-53808333D01*
X194476428Y-53617857D01*
X194524047Y-53522619D01*
X194571666Y-53475000D01*
X194666904Y-53427380D01*
%TD*%
M02*
