%FSLAX45Y45*%
G04 Gerber Fmt 4.5, Leading zero omitted, Abs format (unit mm)*
G04 Created by KiCad (PCBNEW (6.0.6)) date 2022-10-29 21:57:21*
%MOMM*%
%LPD*%
G01*
G04 APERTURE LIST*
%TA.AperFunction,Profile*%
%ADD10C,0.100000*%
%TD*%
%ADD11C,0.200000*%
G04 APERTURE END LIST*
D10*
X14922500Y-7810500D02*
X25200000Y-7800000D01*
X14589500Y-7239000D02*
G75*
G03*
X14589500Y-7239000I-175000J0D01*
G01*
X3985000Y-18334700D02*
G75*
G03*
X3985000Y-18334700I-175000J0D01*
G01*
X24813000Y-2095500D02*
G75*
G03*
X24813000Y-2095500I-175000J0D01*
G01*
X14589500Y-18351500D02*
G75*
G03*
X14589500Y-18351500I-175000J0D01*
G01*
X25200000Y-7800000D02*
X25200000Y-1400000D01*
X3921500Y-2095500D02*
G75*
G03*
X3921500Y-2095500I-175000J0D01*
G01*
X25200000Y-1400000D02*
X3200000Y-1400000D01*
X24813000Y-7239000D02*
G75*
G03*
X24813000Y-7239000I-175000J0D01*
G01*
X3200000Y-1400000D02*
X3200000Y-18732500D01*
X14922500Y-18732500D02*
X14922500Y-7810500D01*
X3200000Y-18732500D02*
X14922500Y-18732500D01*
D11*
X3452619Y-19047976D02*
X3452619Y-18847976D01*
X3500238Y-18847976D01*
X3528809Y-18857500D01*
X3547857Y-18876548D01*
X3557381Y-18895595D01*
X3566905Y-18933690D01*
X3566905Y-18962262D01*
X3557381Y-19000357D01*
X3547857Y-19019405D01*
X3528809Y-19038452D01*
X3500238Y-19047976D01*
X3452619Y-19047976D01*
X3652619Y-19047976D02*
X3652619Y-18914643D01*
X3652619Y-18952738D02*
X3662143Y-18933690D01*
X3671667Y-18924167D01*
X3690714Y-18914643D01*
X3709762Y-18914643D01*
X3776428Y-19047976D02*
X3776428Y-18914643D01*
X3776428Y-18847976D02*
X3766905Y-18857500D01*
X3776428Y-18867024D01*
X3785952Y-18857500D01*
X3776428Y-18847976D01*
X3776428Y-18867024D01*
X3900238Y-19047976D02*
X3881190Y-19038452D01*
X3871667Y-19019405D01*
X3871667Y-18847976D01*
X4005000Y-19047976D02*
X3985952Y-19038452D01*
X3976428Y-19019405D01*
X3976428Y-18847976D01*
X4233571Y-19047976D02*
X4233571Y-18847976D01*
X4300238Y-18990833D01*
X4366905Y-18847976D01*
X4366905Y-19047976D01*
X4547857Y-19047976D02*
X4547857Y-18943214D01*
X4538333Y-18924167D01*
X4519286Y-18914643D01*
X4481190Y-18914643D01*
X4462143Y-18924167D01*
X4547857Y-19038452D02*
X4528810Y-19047976D01*
X4481190Y-19047976D01*
X4462143Y-19038452D01*
X4452619Y-19019405D01*
X4452619Y-19000357D01*
X4462143Y-18981310D01*
X4481190Y-18971786D01*
X4528810Y-18971786D01*
X4547857Y-18962262D01*
X4643095Y-18914643D02*
X4643095Y-19114643D01*
X4643095Y-18924167D02*
X4662143Y-18914643D01*
X4700238Y-18914643D01*
X4719286Y-18924167D01*
X4728810Y-18933690D01*
X4738333Y-18952738D01*
X4738333Y-19009881D01*
X4728810Y-19028929D01*
X4719286Y-19038452D01*
X4700238Y-19047976D01*
X4662143Y-19047976D01*
X4643095Y-19038452D01*
X4824048Y-19028929D02*
X4833571Y-19038452D01*
X4824048Y-19047976D01*
X4814524Y-19038452D01*
X4824048Y-19028929D01*
X4824048Y-19047976D01*
X4824048Y-18924167D02*
X4833571Y-18933690D01*
X4824048Y-18943214D01*
X4814524Y-18933690D01*
X4824048Y-18924167D01*
X4824048Y-18943214D01*
M02*
