%TF.GenerationSoftware,KiCad,Pcbnew,(6.0.6)*%
%TF.CreationDate,2022-10-29T21:57:17+02:00*%
%TF.ProjectId,SF-7017,53462d37-3031-4372-9e6b-696361645f70,rev?*%
%TF.SameCoordinates,Original*%
%TF.FileFunction,Soldermask,Bot*%
%TF.FilePolarity,Negative*%
%FSLAX46Y46*%
G04 Gerber Fmt 4.6, Leading zero omitted, Abs format (unit mm)*
G04 Created by KiCad (PCBNEW (6.0.6)) date 2022-10-29 21:57:17*
%MOMM*%
%LPD*%
G01*
G04 APERTURE LIST*
G04 Aperture macros list*
%AMRoundRect*
0 Rectangle with rounded corners*
0 $1 Rounding radius*
0 $2 $3 $4 $5 $6 $7 $8 $9 X,Y pos of 4 corners*
0 Add a 4 corners polygon primitive as box body*
4,1,4,$2,$3,$4,$5,$6,$7,$8,$9,$2,$3,0*
0 Add four circle primitives for the rounded corners*
1,1,$1+$1,$2,$3*
1,1,$1+$1,$4,$5*
1,1,$1+$1,$6,$7*
1,1,$1+$1,$8,$9*
0 Add four rect primitives between the rounded corners*
20,1,$1+$1,$2,$3,$4,$5,0*
20,1,$1+$1,$4,$5,$6,$7,0*
20,1,$1+$1,$6,$7,$8,$9,0*
20,1,$1+$1,$8,$9,$2,$3,0*%
G04 Aperture macros list end*
%ADD10C,1.600000*%
%ADD11R,1.600000X1.600000*%
%ADD12O,1.600000X1.600000*%
%ADD13RoundRect,0.250000X0.600000X-0.600000X0.600000X0.600000X-0.600000X0.600000X-0.600000X-0.600000X0*%
%ADD14C,1.700000*%
%ADD15R,1.700000X1.700000*%
%ADD16O,1.700000X1.700000*%
%ADD17R,2.775000X2.775000*%
%ADD18C,2.775000*%
%ADD19C,1.400000*%
%ADD20O,1.400000X1.400000*%
%ADD21R,1.800000X1.800000*%
%ADD22C,1.800000*%
%ADD23RoundRect,0.250000X-0.620000X-0.620000X0.620000X-0.620000X0.620000X0.620000X-0.620000X0.620000X0*%
%ADD24C,1.740000*%
%ADD25R,1.500000X1.500000*%
%ADD26O,1.500000X1.500000*%
%ADD27R,3.500000X3.500000*%
%ADD28RoundRect,0.750000X-1.000000X0.750000X-1.000000X-0.750000X1.000000X-0.750000X1.000000X0.750000X0*%
%ADD29RoundRect,0.875000X-0.875000X0.875000X-0.875000X-0.875000X0.875000X-0.875000X0.875000X0.875000X0*%
%ADD30RoundRect,0.250000X-0.600000X0.600000X-0.600000X-0.600000X0.600000X-0.600000X0.600000X0.600000X0*%
%ADD31C,4.000000*%
G04 APERTURE END LIST*
D10*
%TO.C,C3*%
X109855000Y-126405000D03*
X109855000Y-131405000D03*
%TD*%
%TO.C,C22*%
X178435000Y-56475000D03*
X178435000Y-51475000D03*
%TD*%
D11*
%TO.C,IC17*%
X80640000Y-111750000D03*
D12*
X83180000Y-111750000D03*
X85720000Y-111750000D03*
X88260000Y-111750000D03*
X90800000Y-111750000D03*
X93340000Y-111750000D03*
X95880000Y-111750000D03*
X95880000Y-104130000D03*
X93340000Y-104130000D03*
X90800000Y-104130000D03*
X88260000Y-104130000D03*
X85720000Y-104130000D03*
X83180000Y-104130000D03*
X80640000Y-104130000D03*
%TD*%
D11*
%TO.C,IC20*%
X116200000Y-133340000D03*
D12*
X118740000Y-133340000D03*
X121280000Y-133340000D03*
X123820000Y-133340000D03*
X126360000Y-133340000D03*
X128900000Y-133340000D03*
X131440000Y-133340000D03*
X131440000Y-125720000D03*
X128900000Y-125720000D03*
X126360000Y-125720000D03*
X123820000Y-125720000D03*
X121280000Y-125720000D03*
X118740000Y-125720000D03*
X116200000Y-125720000D03*
%TD*%
D11*
%TO.C,IC26*%
X221610000Y-43805000D03*
D12*
X224150000Y-43805000D03*
X226690000Y-43805000D03*
X229230000Y-43805000D03*
X231770000Y-43805000D03*
X234310000Y-43805000D03*
X236850000Y-43805000D03*
X236850000Y-36185000D03*
X234310000Y-36185000D03*
X231770000Y-36185000D03*
X229230000Y-36185000D03*
X226690000Y-36185000D03*
X224150000Y-36185000D03*
X221610000Y-36185000D03*
%TD*%
D13*
%TO.C,J1*%
X181610000Y-27922500D03*
D14*
X181610000Y-25382500D03*
X184150000Y-27922500D03*
X184150000Y-25382500D03*
X186690000Y-27922500D03*
X186690000Y-25382500D03*
X189230000Y-27922500D03*
X189230000Y-25382500D03*
X191770000Y-27922500D03*
X191770000Y-25382500D03*
X194310000Y-27922500D03*
X194310000Y-25382500D03*
X196850000Y-27922500D03*
X196850000Y-25382500D03*
X199390000Y-27922500D03*
X199390000Y-25382500D03*
X201930000Y-27922500D03*
X201930000Y-25382500D03*
X204470000Y-27922500D03*
X204470000Y-25382500D03*
X207010000Y-27922500D03*
X207010000Y-25382500D03*
X209550000Y-27922500D03*
X209550000Y-25382500D03*
X212090000Y-27922500D03*
X212090000Y-25382500D03*
X214630000Y-27922500D03*
X214630000Y-25382500D03*
X217170000Y-27922500D03*
X217170000Y-25382500D03*
X219710000Y-27922500D03*
X219710000Y-25382500D03*
X222250000Y-27922500D03*
X222250000Y-25382500D03*
%TD*%
D11*
%TO.C,IC15*%
X80640000Y-138420000D03*
D12*
X83180000Y-138420000D03*
X85720000Y-138420000D03*
X88260000Y-138420000D03*
X90800000Y-138420000D03*
X93340000Y-138420000D03*
X95880000Y-138420000D03*
X95880000Y-130800000D03*
X93340000Y-130800000D03*
X90800000Y-130800000D03*
X88260000Y-130800000D03*
X85720000Y-130800000D03*
X83180000Y-130800000D03*
X80640000Y-130800000D03*
%TD*%
D15*
%TO.C,J6*%
X153670000Y-64135000D03*
D16*
X153670000Y-66675000D03*
X153670000Y-69215000D03*
%TD*%
D10*
%TO.C,C7*%
X39370000Y-166330000D03*
X39370000Y-161330000D03*
%TD*%
%TO.C,C1*%
X215900000Y-37505000D03*
X215900000Y-42505000D03*
%TD*%
D17*
%TO.C,SW1*%
X48260000Y-28840000D03*
D18*
X48260000Y-32650000D03*
X48260000Y-36460000D03*
X50800000Y-16140000D03*
X45720000Y-16140000D03*
%TD*%
D10*
%TO.C,C19*%
X75565000Y-123785000D03*
X75565000Y-118785000D03*
%TD*%
D11*
%TO.C,IC38*%
X45100000Y-167630000D03*
D12*
X47640000Y-167630000D03*
X50180000Y-167630000D03*
X52720000Y-167630000D03*
X55260000Y-167630000D03*
X57800000Y-167630000D03*
X60340000Y-167630000D03*
X62880000Y-167630000D03*
X62880000Y-160010000D03*
X60340000Y-160010000D03*
X57800000Y-160010000D03*
X55260000Y-160010000D03*
X52720000Y-160010000D03*
X50180000Y-160010000D03*
X47640000Y-160010000D03*
X45100000Y-160010000D03*
%TD*%
D11*
%TO.C,RN2*%
X116840000Y-118745000D03*
D12*
X119380000Y-118745000D03*
X121920000Y-118745000D03*
X124460000Y-118745000D03*
X127000000Y-118745000D03*
X129540000Y-118745000D03*
%TD*%
D19*
%TO.C,R7*%
X113030000Y-158505000D03*
D20*
X120650000Y-158505000D03*
%TD*%
D11*
%TO.C,IC21*%
X184780000Y-57775000D03*
D12*
X187320000Y-57775000D03*
X189860000Y-57775000D03*
X192400000Y-57775000D03*
X194940000Y-57775000D03*
X197480000Y-57775000D03*
X200020000Y-57775000D03*
X200020000Y-50155000D03*
X197480000Y-50155000D03*
X194940000Y-50155000D03*
X192400000Y-50155000D03*
X189860000Y-50155000D03*
X187320000Y-50155000D03*
X184780000Y-50155000D03*
%TD*%
D11*
%TO.C,IC14*%
X80640000Y-151755000D03*
D12*
X83180000Y-151755000D03*
X85720000Y-151755000D03*
X88260000Y-151755000D03*
X90800000Y-151755000D03*
X93340000Y-151755000D03*
X95880000Y-151755000D03*
X95880000Y-144135000D03*
X93340000Y-144135000D03*
X90800000Y-144135000D03*
X88260000Y-144135000D03*
X85720000Y-144135000D03*
X83180000Y-144135000D03*
X80640000Y-144135000D03*
%TD*%
D10*
%TO.C,C15*%
X206375000Y-43180000D03*
X211375000Y-43180000D03*
%TD*%
D11*
%TO.C,IC18*%
X116200000Y-113020000D03*
D12*
X118740000Y-113020000D03*
X121280000Y-113020000D03*
X123820000Y-113020000D03*
X126360000Y-113020000D03*
X128900000Y-113020000D03*
X131440000Y-113020000D03*
X131440000Y-105400000D03*
X128900000Y-105400000D03*
X126360000Y-105400000D03*
X123820000Y-105400000D03*
X121280000Y-105400000D03*
X118740000Y-105400000D03*
X116200000Y-105400000D03*
%TD*%
D21*
%TO.C,D3*%
X113665000Y-176530000D03*
D22*
X116205000Y-176530000D03*
%TD*%
D10*
%TO.C,C23*%
X75565000Y-150455000D03*
X75565000Y-145455000D03*
%TD*%
%TO.C,C12*%
X101600000Y-53300000D03*
X101600000Y-48300000D03*
%TD*%
D11*
%TO.C,IC6*%
X116200000Y-147945000D03*
D12*
X118740000Y-147945000D03*
X121280000Y-147945000D03*
X123820000Y-147945000D03*
X126360000Y-147945000D03*
X128900000Y-147945000D03*
X131440000Y-147945000D03*
X131440000Y-140325000D03*
X128900000Y-140325000D03*
X126360000Y-140325000D03*
X123820000Y-140325000D03*
X121280000Y-140325000D03*
X118740000Y-140325000D03*
X116200000Y-140325000D03*
%TD*%
D10*
%TO.C,C11*%
X39370000Y-53300000D03*
X39370000Y-48300000D03*
%TD*%
D11*
%TO.C,X2*%
X93980000Y-161290000D03*
D10*
X78740000Y-161290000D03*
X78740000Y-168910000D03*
X93980000Y-168910000D03*
%TD*%
%TO.C,C5*%
X109855000Y-106720000D03*
X109855000Y-111720000D03*
%TD*%
D11*
%TO.C,IC5*%
X94615000Y-97770000D03*
D12*
X97155000Y-97770000D03*
X99695000Y-97770000D03*
X102235000Y-97770000D03*
X104775000Y-97770000D03*
X107315000Y-97770000D03*
X109855000Y-97770000D03*
X112395000Y-97770000D03*
X114935000Y-97770000D03*
X117475000Y-97770000D03*
X120015000Y-97770000D03*
X122555000Y-97770000D03*
X125095000Y-97770000D03*
X127635000Y-97770000D03*
X130175000Y-97770000D03*
X132715000Y-97770000D03*
X132715000Y-90150000D03*
X130175000Y-90150000D03*
X127635000Y-90150000D03*
X125095000Y-90150000D03*
X122555000Y-90150000D03*
X120015000Y-90150000D03*
X117475000Y-90150000D03*
X114935000Y-90150000D03*
X112395000Y-90150000D03*
X109855000Y-90150000D03*
X107315000Y-90150000D03*
X104775000Y-90150000D03*
X102235000Y-90150000D03*
X99695000Y-90150000D03*
X97155000Y-90150000D03*
X94615000Y-90150000D03*
%TD*%
D21*
%TO.C,D2*%
X124455000Y-176530000D03*
D22*
X126995000Y-176530000D03*
%TD*%
D19*
%TO.C,R1*%
X245745000Y-36195000D03*
D20*
X245745000Y-43815000D03*
%TD*%
D23*
%TO.C,J10*%
X227330000Y-67830000D03*
D24*
X229870000Y-67830000D03*
X232410000Y-67830000D03*
X234950000Y-67830000D03*
%TD*%
D11*
%TO.C,C16*%
X60639900Y-133985000D03*
D10*
X62639900Y-133985000D03*
%TD*%
D25*
%TO.C,D4*%
X113025000Y-154305000D03*
D26*
X120645000Y-154305000D03*
%TD*%
D10*
%TO.C,C4*%
X88900000Y-96480000D03*
X88900000Y-91480000D03*
%TD*%
D15*
%TO.C,J11*%
X234315000Y-27235000D03*
%TD*%
D10*
%TO.C,C10*%
X39370000Y-125690000D03*
X39370000Y-120690000D03*
%TD*%
%TO.C,C6*%
X94615000Y-78065000D03*
X94615000Y-73065000D03*
%TD*%
D11*
%TO.C,IC13*%
X99705000Y-82555000D03*
D12*
X102245000Y-82555000D03*
X104785000Y-82555000D03*
X107325000Y-82555000D03*
X109865000Y-82555000D03*
X112405000Y-82555000D03*
X114945000Y-82555000D03*
X117485000Y-82555000D03*
X120025000Y-82555000D03*
X122565000Y-82555000D03*
X125105000Y-82555000D03*
X127645000Y-82555000D03*
X130185000Y-82555000D03*
X132725000Y-82555000D03*
X132725000Y-67315000D03*
X130185000Y-67315000D03*
X127645000Y-67315000D03*
X125105000Y-67315000D03*
X122565000Y-67315000D03*
X120025000Y-67315000D03*
X117485000Y-67315000D03*
X114945000Y-67315000D03*
X112405000Y-67315000D03*
X109865000Y-67315000D03*
X107325000Y-67315000D03*
X104785000Y-67315000D03*
X102245000Y-67315000D03*
X99705000Y-67315000D03*
%TD*%
D19*
%TO.C,R4*%
X114935000Y-164690000D03*
D20*
X114935000Y-172310000D03*
%TD*%
D10*
%TO.C,C8*%
X39370000Y-95210000D03*
X39370000Y-90210000D03*
%TD*%
D11*
%TO.C,RN1*%
X67945000Y-36830000D03*
D12*
X70485000Y-36830000D03*
X73025000Y-36830000D03*
X75565000Y-36830000D03*
X78105000Y-36830000D03*
X80645000Y-36830000D03*
X83185000Y-36830000D03*
X85725000Y-36830000D03*
X88265000Y-36830000D03*
%TD*%
D10*
%TO.C,C20*%
X75565000Y-110450000D03*
X75565000Y-105450000D03*
%TD*%
D27*
%TO.C,J9*%
X67632500Y-28225000D03*
D28*
X67632500Y-22225000D03*
D29*
X62932500Y-25225000D03*
%TD*%
D11*
%TO.C,C14*%
X53019900Y-133985000D03*
D10*
X55019900Y-133985000D03*
%TD*%
%TO.C,C18*%
X75565000Y-137120000D03*
X75565000Y-132120000D03*
%TD*%
D11*
%TO.C,IC33*%
X45070000Y-82555000D03*
D12*
X47610000Y-82555000D03*
X50150000Y-82555000D03*
X52690000Y-82555000D03*
X55230000Y-82555000D03*
X57770000Y-82555000D03*
X60310000Y-82555000D03*
X62850000Y-82555000D03*
X65390000Y-82555000D03*
X67930000Y-82555000D03*
X70470000Y-82555000D03*
X73010000Y-82555000D03*
X75550000Y-82555000D03*
X78090000Y-82555000D03*
X78090000Y-67315000D03*
X75550000Y-67315000D03*
X73010000Y-67315000D03*
X70470000Y-67315000D03*
X67930000Y-67315000D03*
X65390000Y-67315000D03*
X62850000Y-67315000D03*
X60310000Y-67315000D03*
X57770000Y-67315000D03*
X55230000Y-67315000D03*
X52690000Y-67315000D03*
X50150000Y-67315000D03*
X47610000Y-67315000D03*
X45070000Y-67315000D03*
%TD*%
D11*
%TO.C,J4*%
X45105000Y-149215000D03*
D12*
X47645000Y-149215000D03*
X50185000Y-149215000D03*
X52725000Y-149215000D03*
X55265000Y-149215000D03*
X57805000Y-149215000D03*
X60345000Y-149215000D03*
X60345000Y-141595000D03*
X57805000Y-141595000D03*
X55265000Y-141595000D03*
X52725000Y-141595000D03*
X50185000Y-141595000D03*
X47645000Y-141595000D03*
X45105000Y-141595000D03*
%TD*%
D10*
%TO.C,C2*%
X39365000Y-111720000D03*
X39365000Y-106720000D03*
%TD*%
%TO.C,C17*%
X109855000Y-141645000D03*
X109855000Y-146645000D03*
%TD*%
D11*
%TO.C,IC2*%
X106685000Y-58425000D03*
D12*
X109225000Y-58425000D03*
X111765000Y-58425000D03*
X114305000Y-58425000D03*
X116845000Y-58425000D03*
X119385000Y-58425000D03*
X121925000Y-58425000D03*
X124465000Y-58425000D03*
X127005000Y-58425000D03*
X129545000Y-58425000D03*
X132085000Y-58425000D03*
X134625000Y-58425000D03*
X137165000Y-58425000D03*
X139705000Y-58425000D03*
X142245000Y-58425000D03*
X144785000Y-58425000D03*
X147325000Y-58425000D03*
X149865000Y-58425000D03*
X152405000Y-58425000D03*
X154945000Y-58425000D03*
X154945000Y-43185000D03*
X152405000Y-43185000D03*
X149865000Y-43185000D03*
X147325000Y-43185000D03*
X144785000Y-43185000D03*
X142245000Y-43185000D03*
X139705000Y-43185000D03*
X137165000Y-43185000D03*
X134625000Y-43185000D03*
X132085000Y-43185000D03*
X129545000Y-43185000D03*
X127005000Y-43185000D03*
X124465000Y-43185000D03*
X121925000Y-43185000D03*
X119385000Y-43185000D03*
X116845000Y-43185000D03*
X114305000Y-43185000D03*
X111765000Y-43185000D03*
X109225000Y-43185000D03*
X106685000Y-43185000D03*
%TD*%
D11*
%TO.C,X1*%
X223520000Y-58420000D03*
D10*
X238760000Y-58420000D03*
X238760000Y-50800000D03*
X223520000Y-50800000D03*
%TD*%
D19*
%TO.C,R3*%
X125730000Y-164690000D03*
D20*
X125730000Y-172310000D03*
%TD*%
D11*
%TO.C,IC22*%
X45075000Y-113020000D03*
D12*
X47615000Y-113020000D03*
X50155000Y-113020000D03*
X52695000Y-113020000D03*
X55235000Y-113020000D03*
X57775000Y-113020000D03*
X60315000Y-113020000D03*
X62855000Y-113020000D03*
X62855000Y-105400000D03*
X60315000Y-105400000D03*
X57775000Y-105400000D03*
X55235000Y-105400000D03*
X52695000Y-105400000D03*
X50155000Y-105400000D03*
X47615000Y-105400000D03*
X45075000Y-105400000D03*
%TD*%
D19*
%TO.C,R2*%
X135255000Y-164690000D03*
D20*
X135255000Y-172310000D03*
%TD*%
D30*
%TO.C,J3*%
X212725000Y-63517500D03*
D14*
X212725000Y-66057500D03*
X210185000Y-63517500D03*
X210185000Y-66057500D03*
X207645000Y-63517500D03*
X207645000Y-66057500D03*
X205105000Y-63517500D03*
X205105000Y-66057500D03*
X202565000Y-63517500D03*
X202565000Y-66057500D03*
X200025000Y-63517500D03*
X200025000Y-66057500D03*
X197485000Y-63517500D03*
X197485000Y-66057500D03*
X194945000Y-63517500D03*
X194945000Y-66057500D03*
X192405000Y-63517500D03*
X192405000Y-66057500D03*
X189865000Y-63517500D03*
X189865000Y-66057500D03*
X187325000Y-63517500D03*
X187325000Y-66057500D03*
X184785000Y-63517500D03*
X184785000Y-66057500D03*
X182245000Y-63517500D03*
X182245000Y-66057500D03*
X179705000Y-63517500D03*
X179705000Y-66057500D03*
X177165000Y-63517500D03*
X177165000Y-66057500D03*
X174625000Y-63517500D03*
X174625000Y-66057500D03*
X172085000Y-63517500D03*
X172085000Y-66057500D03*
%TD*%
D31*
%TO.C,J5*%
X94190000Y-28700300D03*
X119190000Y-28700300D03*
D11*
X112230000Y-29000300D03*
D10*
X109460000Y-29000300D03*
X106690000Y-29000300D03*
X103920000Y-29000300D03*
X101150000Y-29000300D03*
X110845000Y-26160300D03*
X108075000Y-26160300D03*
X105305000Y-26160300D03*
X102535000Y-26160300D03*
%TD*%
D11*
%TO.C,IC3*%
X45090000Y-58425000D03*
D12*
X47630000Y-58425000D03*
X50170000Y-58425000D03*
X52710000Y-58425000D03*
X55250000Y-58425000D03*
X57790000Y-58425000D03*
X60330000Y-58425000D03*
X62870000Y-58425000D03*
X65410000Y-58425000D03*
X67950000Y-58425000D03*
X70490000Y-58425000D03*
X73030000Y-58425000D03*
X75570000Y-58425000D03*
X78110000Y-58425000D03*
X80650000Y-58425000D03*
X83190000Y-58425000D03*
X85730000Y-58425000D03*
X88270000Y-58425000D03*
X90810000Y-58425000D03*
X93350000Y-58425000D03*
X93350000Y-43185000D03*
X90810000Y-43185000D03*
X88270000Y-43185000D03*
X85730000Y-43185000D03*
X83190000Y-43185000D03*
X80650000Y-43185000D03*
X78110000Y-43185000D03*
X75570000Y-43185000D03*
X73030000Y-43185000D03*
X70490000Y-43185000D03*
X67950000Y-43185000D03*
X65410000Y-43185000D03*
X62870000Y-43185000D03*
X60330000Y-43185000D03*
X57790000Y-43185000D03*
X55250000Y-43185000D03*
X52710000Y-43185000D03*
X50170000Y-43185000D03*
X47630000Y-43185000D03*
X45090000Y-43185000D03*
%TD*%
D15*
%TO.C,J2*%
X152400000Y-21590000D03*
D16*
X152400000Y-24130000D03*
X149860000Y-21590000D03*
X149860000Y-24130000D03*
X147320000Y-21590000D03*
X147320000Y-24130000D03*
X144780000Y-21590000D03*
X144780000Y-24130000D03*
X142240000Y-21590000D03*
X142240000Y-24130000D03*
X139700000Y-21590000D03*
X139700000Y-24130000D03*
X137160000Y-21590000D03*
X137160000Y-24130000D03*
X134620000Y-21590000D03*
X134620000Y-24130000D03*
%TD*%
D19*
%TO.C,R19*%
X208280000Y-57150000D03*
D20*
X208280000Y-49530000D03*
%TD*%
D11*
%TO.C,C13*%
X46034900Y-133985000D03*
D10*
X48034900Y-133985000D03*
%TD*%
D11*
%TO.C,U10*%
X45100000Y-127625000D03*
D12*
X47640000Y-127625000D03*
X50180000Y-127625000D03*
X52720000Y-127625000D03*
X55260000Y-127625000D03*
X57800000Y-127625000D03*
X60340000Y-127625000D03*
X62880000Y-127625000D03*
X62880000Y-120005000D03*
X60340000Y-120005000D03*
X57800000Y-120005000D03*
X55260000Y-120005000D03*
X52720000Y-120005000D03*
X50180000Y-120005000D03*
X47640000Y-120005000D03*
X45100000Y-120005000D03*
%TD*%
D11*
%TO.C,C21*%
X128969900Y-156845000D03*
D10*
X131469900Y-156845000D03*
%TD*%
D11*
%TO.C,IC16*%
X80640000Y-124450000D03*
D12*
X83180000Y-124450000D03*
X85720000Y-124450000D03*
X88260000Y-124450000D03*
X90800000Y-124450000D03*
X93340000Y-124450000D03*
X95880000Y-124450000D03*
X95880000Y-116830000D03*
X93340000Y-116830000D03*
X90800000Y-116830000D03*
X88260000Y-116830000D03*
X85720000Y-116830000D03*
X83180000Y-116830000D03*
X80640000Y-116830000D03*
%TD*%
D11*
%TO.C,U8*%
X45090000Y-97780000D03*
D12*
X47630000Y-97780000D03*
X50170000Y-97780000D03*
X52710000Y-97780000D03*
X55250000Y-97780000D03*
X57790000Y-97780000D03*
X60330000Y-97780000D03*
X62870000Y-97780000D03*
X65410000Y-97780000D03*
X67950000Y-97780000D03*
X67950000Y-90160000D03*
X65410000Y-90160000D03*
X62870000Y-90160000D03*
X60330000Y-90160000D03*
X57790000Y-90160000D03*
X55250000Y-90160000D03*
X52710000Y-90160000D03*
X50170000Y-90160000D03*
X47630000Y-90160000D03*
X45090000Y-90160000D03*
%TD*%
D10*
%TO.C,C9*%
X39370000Y-76160000D03*
X39370000Y-71160000D03*
%TD*%
D19*
%TO.C,R18*%
X213995000Y-57150000D03*
D20*
X213995000Y-49530000D03*
%TD*%
D11*
%TO.C,C29*%
X38414900Y-133985000D03*
D10*
X40414900Y-133985000D03*
%TD*%
D21*
%TO.C,D1*%
X133985000Y-176530000D03*
D22*
X136525000Y-176530000D03*
%TD*%
M02*
