%TF.GenerationSoftware,KiCad,Pcbnew,(6.0.6)*%
%TF.CreationDate,2022-10-29T21:57:17+02:00*%
%TF.ProjectId,SF-7017,53462d37-3031-4372-9e6b-696361645f70,rev?*%
%TF.SameCoordinates,Original*%
%TF.FileFunction,Copper,L2,Bot*%
%TF.FilePolarity,Positive*%
%FSLAX46Y46*%
G04 Gerber Fmt 4.6, Leading zero omitted, Abs format (unit mm)*
G04 Created by KiCad (PCBNEW (6.0.6)) date 2022-10-29 21:57:17*
%MOMM*%
%LPD*%
G01*
G04 APERTURE LIST*
G04 Aperture macros list*
%AMRoundRect*
0 Rectangle with rounded corners*
0 $1 Rounding radius*
0 $2 $3 $4 $5 $6 $7 $8 $9 X,Y pos of 4 corners*
0 Add a 4 corners polygon primitive as box body*
4,1,4,$2,$3,$4,$5,$6,$7,$8,$9,$2,$3,0*
0 Add four circle primitives for the rounded corners*
1,1,$1+$1,$2,$3*
1,1,$1+$1,$4,$5*
1,1,$1+$1,$6,$7*
1,1,$1+$1,$8,$9*
0 Add four rect primitives between the rounded corners*
20,1,$1+$1,$2,$3,$4,$5,0*
20,1,$1+$1,$4,$5,$6,$7,0*
20,1,$1+$1,$6,$7,$8,$9,0*
20,1,$1+$1,$8,$9,$2,$3,0*%
G04 Aperture macros list end*
%TA.AperFunction,ComponentPad*%
%ADD10C,1.600000*%
%TD*%
%TA.AperFunction,ComponentPad*%
%ADD11R,1.600000X1.600000*%
%TD*%
%TA.AperFunction,ComponentPad*%
%ADD12O,1.600000X1.600000*%
%TD*%
%TA.AperFunction,ComponentPad*%
%ADD13RoundRect,0.250000X0.600000X-0.600000X0.600000X0.600000X-0.600000X0.600000X-0.600000X-0.600000X0*%
%TD*%
%TA.AperFunction,ComponentPad*%
%ADD14C,1.700000*%
%TD*%
%TA.AperFunction,ComponentPad*%
%ADD15R,1.700000X1.700000*%
%TD*%
%TA.AperFunction,ComponentPad*%
%ADD16O,1.700000X1.700000*%
%TD*%
%TA.AperFunction,ComponentPad*%
%ADD17R,2.775000X2.775000*%
%TD*%
%TA.AperFunction,ComponentPad*%
%ADD18C,2.775000*%
%TD*%
%TA.AperFunction,ComponentPad*%
%ADD19C,1.400000*%
%TD*%
%TA.AperFunction,ComponentPad*%
%ADD20O,1.400000X1.400000*%
%TD*%
%TA.AperFunction,ComponentPad*%
%ADD21R,1.800000X1.800000*%
%TD*%
%TA.AperFunction,ComponentPad*%
%ADD22C,1.800000*%
%TD*%
%TA.AperFunction,ComponentPad*%
%ADD23RoundRect,0.250000X-0.620000X-0.620000X0.620000X-0.620000X0.620000X0.620000X-0.620000X0.620000X0*%
%TD*%
%TA.AperFunction,ComponentPad*%
%ADD24C,1.740000*%
%TD*%
%TA.AperFunction,ComponentPad*%
%ADD25R,1.500000X1.500000*%
%TD*%
%TA.AperFunction,ComponentPad*%
%ADD26O,1.500000X1.500000*%
%TD*%
%TA.AperFunction,ComponentPad*%
%ADD27R,3.500000X3.500000*%
%TD*%
%TA.AperFunction,ComponentPad*%
%ADD28RoundRect,0.750000X-1.000000X0.750000X-1.000000X-0.750000X1.000000X-0.750000X1.000000X0.750000X0*%
%TD*%
%TA.AperFunction,ComponentPad*%
%ADD29RoundRect,0.875000X-0.875000X0.875000X-0.875000X-0.875000X0.875000X-0.875000X0.875000X0.875000X0*%
%TD*%
%TA.AperFunction,ComponentPad*%
%ADD30RoundRect,0.250000X-0.600000X0.600000X-0.600000X-0.600000X0.600000X-0.600000X0.600000X0.600000X0*%
%TD*%
%TA.AperFunction,ComponentPad*%
%ADD31C,4.000000*%
%TD*%
%TA.AperFunction,ViaPad*%
%ADD32C,0.800000*%
%TD*%
%TA.AperFunction,Conductor*%
%ADD33C,0.250000*%
%TD*%
G04 APERTURE END LIST*
D10*
%TO.P,C3,1*%
%TO.N,+5V*%
X109855000Y-126405000D03*
%TO.P,C3,2*%
%TO.N,GND*%
X109855000Y-131405000D03*
%TD*%
%TO.P,C22,1*%
%TO.N,+5V*%
X178435000Y-56475000D03*
%TO.P,C22,2*%
%TO.N,GND*%
X178435000Y-51475000D03*
%TD*%
D11*
%TO.P,IC17,1*%
%TO.N,Net-(IC17-Pad1)*%
X80640000Y-111750000D03*
D12*
%TO.P,IC17,2*%
%TO.N,~{RAM_OE}*%
X83180000Y-111750000D03*
%TO.P,IC17,3*%
%TO.N,Net-(IC14-Pad1)*%
X85720000Y-111750000D03*
%TO.P,IC17,4*%
%TO.N,~{ROM_CE}*%
X88260000Y-111750000D03*
%TO.P,IC17,5*%
%TO.N,N/C*%
X90800000Y-111750000D03*
%TO.P,IC17,6*%
X93340000Y-111750000D03*
%TO.P,IC17,7,GND*%
%TO.N,GND*%
X95880000Y-111750000D03*
%TO.P,IC17,8*%
%TO.N,Net-(IC17-Pad1)*%
X95880000Y-104130000D03*
%TO.P,IC17,9*%
%TO.N,Net-(IC17-Pad10)*%
X93340000Y-104130000D03*
%TO.P,IC17,10*%
X90800000Y-104130000D03*
%TO.P,IC17,11*%
%TO.N,Net-(IC17-Pad11)*%
X88260000Y-104130000D03*
%TO.P,IC17,12*%
X85720000Y-104130000D03*
%TO.P,IC17,13*%
%TO.N,~{RAM_CE1}*%
X83180000Y-104130000D03*
%TO.P,IC17,14,VCC*%
%TO.N,+5V*%
X80640000Y-104130000D03*
%TD*%
D11*
%TO.P,IC20,1*%
%TO.N,RXD*%
X116200000Y-133340000D03*
D12*
%TO.P,IC20,2*%
%TO.N,Net-(IC20-Pad2)*%
X118740000Y-133340000D03*
%TO.P,IC20,3*%
X121280000Y-133340000D03*
%TO.P,IC20,4*%
%TO.N,Net-(D2-Pad1)*%
X123820000Y-133340000D03*
%TO.P,IC20,5*%
%TO.N,TXD*%
X126360000Y-133340000D03*
%TO.P,IC20,6*%
%TO.N,Net-(IC20-Pad6)*%
X128900000Y-133340000D03*
%TO.P,IC20,7,GND*%
%TO.N,GND*%
X131440000Y-133340000D03*
%TO.P,IC20,8*%
%TO.N,Net-(D3-Pad1)*%
X131440000Y-125720000D03*
%TO.P,IC20,9*%
%TO.N,Net-(IC20-Pad6)*%
X128900000Y-125720000D03*
%TO.P,IC20,10*%
%TO.N,Reset55*%
X126360000Y-125720000D03*
%TO.P,IC20,11*%
%TO.N,Net-(C21-Pad1)*%
X123820000Y-125720000D03*
%TO.P,IC20,12*%
%TO.N,N/C*%
X121280000Y-125720000D03*
%TO.P,IC20,13*%
X118740000Y-125720000D03*
%TO.P,IC20,14,VCC*%
%TO.N,+5V*%
X116200000Y-125720000D03*
%TD*%
D11*
%TO.P,IC26,1*%
%TO.N,~{MREQ1}*%
X221610000Y-43805000D03*
D12*
%TO.P,IC26,2*%
%TO.N,~{MEMW}*%
X224150000Y-43805000D03*
%TO.P,IC26,3*%
%TO.N,~{MEMW1}*%
X226690000Y-43805000D03*
%TO.P,IC26,4*%
%TO.N,~{MREQ1}*%
X229230000Y-43805000D03*
%TO.P,IC26,5*%
%TO.N,~{MEMR}*%
X231770000Y-43805000D03*
%TO.P,IC26,6*%
%TO.N,~{MEMR1}*%
X234310000Y-43805000D03*
%TO.P,IC26,7,GND*%
%TO.N,GND*%
X236850000Y-43805000D03*
%TO.P,IC26,8*%
%TO.N,RESET*%
X236850000Y-36185000D03*
%TO.P,IC26,9*%
%TO.N,Reset55*%
X234310000Y-36185000D03*
%TO.P,IC26,10*%
%TO.N,RSTCT*%
X231770000Y-36185000D03*
%TO.P,IC26,11*%
%TO.N,N/C*%
X229230000Y-36185000D03*
%TO.P,IC26,12*%
X226690000Y-36185000D03*
%TO.P,IC26,13*%
X224150000Y-36185000D03*
%TO.P,IC26,14,VCC*%
%TO.N,+5V*%
X221610000Y-36185000D03*
%TD*%
D13*
%TO.P,J1,1,Pin_1*%
%TO.N,A0*%
X181610000Y-27922500D03*
D14*
%TO.P,J1,2,Pin_2*%
%TO.N,A1*%
X181610000Y-25382500D03*
%TO.P,J1,3,Pin_3*%
%TO.N,A2*%
X184150000Y-27922500D03*
%TO.P,J1,4,Pin_4*%
%TO.N,A3*%
X184150000Y-25382500D03*
%TO.P,J1,5,Pin_5*%
%TO.N,A4*%
X186690000Y-27922500D03*
%TO.P,J1,6,Pin_6*%
%TO.N,A5*%
X186690000Y-25382500D03*
%TO.P,J1,7,Pin_7*%
%TO.N,A6*%
X189230000Y-27922500D03*
%TO.P,J1,8,Pin_8*%
%TO.N,A7*%
X189230000Y-25382500D03*
%TO.P,J1,9,Pin_9*%
%TO.N,A8*%
X191770000Y-27922500D03*
%TO.P,J1,10,Pin_10*%
%TO.N,A9*%
X191770000Y-25382500D03*
%TO.P,J1,11,Pin_11*%
%TO.N,A10*%
X194310000Y-27922500D03*
%TO.P,J1,12,Pin_12*%
%TO.N,A11*%
X194310000Y-25382500D03*
%TO.P,J1,13,Pin_13*%
%TO.N,A12*%
X196850000Y-27922500D03*
%TO.P,J1,14,Pin_14*%
%TO.N,A13*%
X196850000Y-25382500D03*
%TO.P,J1,15,Pin_15*%
%TO.N,A14*%
X199390000Y-27922500D03*
%TO.P,J1,16,Pin_16*%
%TO.N,A15*%
X199390000Y-25382500D03*
%TO.P,J1,17,Pin_17*%
%TO.N,D0*%
X201930000Y-27922500D03*
%TO.P,J1,18,Pin_18*%
%TO.N,D1*%
X201930000Y-25382500D03*
%TO.P,J1,19,Pin_19*%
%TO.N,D2*%
X204470000Y-27922500D03*
%TO.P,J1,20,Pin_20*%
%TO.N,D3*%
X204470000Y-25382500D03*
%TO.P,J1,21,Pin_21*%
%TO.N,D4*%
X207010000Y-27922500D03*
%TO.P,J1,22,Pin_22*%
%TO.N,D5*%
X207010000Y-25382500D03*
%TO.P,J1,23,Pin_23*%
%TO.N,D6*%
X209550000Y-27922500D03*
%TO.P,J1,24,Pin_24*%
%TO.N,D7*%
X209550000Y-25382500D03*
%TO.P,J1,25,Pin_25*%
%TO.N,unconnected-(J1-Pad25)*%
X212090000Y-27922500D03*
%TO.P,J1,26,Pin_26*%
%TO.N,~{IOR}*%
X212090000Y-25382500D03*
%TO.P,J1,27,Pin_27*%
%TO.N,unconnected-(J1-Pad27)*%
X214630000Y-27922500D03*
%TO.P,J1,28,Pin_28*%
%TO.N,~{IOW}*%
X214630000Y-25382500D03*
%TO.P,J1,29,Pin_29*%
%TO.N,unconnected-(J1-Pad29)*%
X217170000Y-27922500D03*
%TO.P,J1,30,Pin_30*%
%TO.N,~{MEMR}*%
X217170000Y-25382500D03*
%TO.P,J1,31,Pin_31*%
%TO.N,unconnected-(J1-Pad31)*%
X219710000Y-27922500D03*
%TO.P,J1,32,Pin_32*%
%TO.N,~{MEMW}*%
X219710000Y-25382500D03*
%TO.P,J1,33,Pin_33*%
%TO.N,unconnected-(J1-Pad33)*%
X222250000Y-27922500D03*
%TO.P,J1,34,Pin_34*%
%TO.N,~{MREQ}*%
X222250000Y-25382500D03*
%TD*%
D11*
%TO.P,IC15,1*%
%TO.N,Net-(IC14-Pad1)*%
X80640000Y-138420000D03*
D12*
%TO.P,IC15,2*%
%TO.N,A14*%
X83180000Y-138420000D03*
%TO.P,IC15,3*%
%TO.N,A15*%
X85720000Y-138420000D03*
%TO.P,IC15,4*%
%TO.N,N/C*%
X88260000Y-138420000D03*
%TO.P,IC15,5*%
X90800000Y-138420000D03*
%TO.P,IC15,6*%
X93340000Y-138420000D03*
%TO.P,IC15,7,GND*%
%TO.N,GND*%
X95880000Y-138420000D03*
%TO.P,IC15,8*%
%TO.N,N/C*%
X95880000Y-130800000D03*
%TO.P,IC15,9*%
X93340000Y-130800000D03*
%TO.P,IC15,10*%
X90800000Y-130800000D03*
%TO.P,IC15,11*%
%TO.N,~{ROMSEL}*%
X88260000Y-130800000D03*
%TO.P,IC15,12*%
%TO.N,~{MEMR1}*%
X85720000Y-130800000D03*
%TO.P,IC15,13*%
%TO.N,Net-(IC14-Pad2)*%
X83180000Y-130800000D03*
%TO.P,IC15,14,VCC*%
%TO.N,+5V*%
X80640000Y-130800000D03*
%TD*%
D15*
%TO.P,J6,1,Pin_1*%
%TO.N,fREADY*%
X153670000Y-64135000D03*
D16*
%TO.P,J6,2,Pin_2*%
%TO.N,READY*%
X153670000Y-66675000D03*
%TO.P,J6,3,Pin_3*%
%TO.N,~{fREADY}*%
X153670000Y-69215000D03*
%TD*%
D10*
%TO.P,C7,1*%
%TO.N,+5V*%
X39370000Y-166330000D03*
%TO.P,C7,2*%
%TO.N,GND*%
X39370000Y-161330000D03*
%TD*%
%TO.P,C1,1*%
%TO.N,+5V*%
X215900000Y-37505000D03*
%TO.P,C1,2*%
%TO.N,GND*%
X215900000Y-42505000D03*
%TD*%
D17*
%TO.P,SW1,1,A*%
%TO.N,unconnected-(SW1-Pad1)*%
X48260000Y-28840000D03*
D18*
%TO.P,SW1,2,B*%
%TO.N,Net-(J9-Pad1)*%
X48260000Y-32650000D03*
%TO.P,SW1,3,C*%
%TO.N,+5V*%
X48260000Y-36460000D03*
%TO.P,SW1,S1*%
%TO.N,N/C*%
X50800000Y-16140000D03*
%TO.P,SW1,S2*%
X45720000Y-16140000D03*
%TD*%
D10*
%TO.P,C19,1*%
%TO.N,+5V*%
X75565000Y-123785000D03*
%TO.P,C19,2*%
%TO.N,GND*%
X75565000Y-118785000D03*
%TD*%
D11*
%TO.P,IC38,1,Q11*%
%TO.N,unconnected-(IC38-Pad1)*%
X45100000Y-167630000D03*
D12*
%TO.P,IC38,2,Q5*%
%TO.N,Net-(IC38-Pad2)*%
X47640000Y-167630000D03*
%TO.P,IC38,3,Q4*%
%TO.N,Net-(IC38-Pad3)*%
X50180000Y-167630000D03*
%TO.P,IC38,4,Q6*%
%TO.N,Net-(IC38-Pad4)*%
X52720000Y-167630000D03*
%TO.P,IC38,5,Q3*%
%TO.N,Net-(IC38-Pad5)*%
X55260000Y-167630000D03*
%TO.P,IC38,6,Q2*%
%TO.N,Net-(IC38-Pad6)*%
X57800000Y-167630000D03*
%TO.P,IC38,7,Q1*%
%TO.N,Net-(IC38-Pad7)*%
X60340000Y-167630000D03*
%TO.P,IC38,8,VSS*%
%TO.N,GND*%
X62880000Y-167630000D03*
%TO.P,IC38,9,Q0*%
%TO.N,unconnected-(IC38-Pad9)*%
X62880000Y-160010000D03*
%TO.P,IC38,10,CLK*%
%TO.N,USARTCLK*%
X60340000Y-160010000D03*
%TO.P,IC38,11,Reset*%
%TO.N,GND*%
X57800000Y-160010000D03*
%TO.P,IC38,12,Q8*%
%TO.N,unconnected-(IC38-Pad12)*%
X55260000Y-160010000D03*
%TO.P,IC38,13,Q7*%
%TO.N,Net-(IC38-Pad13)*%
X52720000Y-160010000D03*
%TO.P,IC38,14,Q9*%
%TO.N,unconnected-(IC38-Pad14)*%
X50180000Y-160010000D03*
%TO.P,IC38,15,Q10*%
%TO.N,unconnected-(IC38-Pad15)*%
X47640000Y-160010000D03*
%TO.P,IC38,16,VDD*%
%TO.N,+5V*%
X45100000Y-160010000D03*
%TD*%
D11*
%TO.P,RN2,1,common*%
%TO.N,+5V*%
X116840000Y-118745000D03*
D12*
%TO.P,RN2,2,R1*%
%TO.N,~{INDEX}*%
X119380000Y-118745000D03*
%TO.P,RN2,3,R2*%
%TO.N,~{RDATA}*%
X121920000Y-118745000D03*
%TO.P,RN2,4,R3*%
%TO.N,~{TRK0}*%
X124460000Y-118745000D03*
%TO.P,RN2,5,R4*%
%TO.N,READY*%
X127000000Y-118745000D03*
%TO.P,RN2,6,R5*%
%TO.N,~{WRTPRO}*%
X129540000Y-118745000D03*
%TD*%
D19*
%TO.P,R7,1*%
%TO.N,+5V*%
X113030000Y-158505000D03*
D20*
%TO.P,R7,2*%
%TO.N,Net-(C21-Pad1)*%
X120650000Y-158505000D03*
%TD*%
D11*
%TO.P,IC21,1*%
%TO.N,~{IOW}*%
X184780000Y-57775000D03*
D12*
%TO.P,IC21,2*%
%TO.N,~{MEMW}*%
X187320000Y-57775000D03*
%TO.P,IC21,3*%
%TO.N,Net-(IC21-Pad3)*%
X189860000Y-57775000D03*
%TO.P,IC21,4*%
X192400000Y-57775000D03*
%TO.P,IC21,5*%
%TO.N,~{MREQ1}*%
X194940000Y-57775000D03*
%TO.P,IC21,6*%
%TO.N,~{IOWR}*%
X197480000Y-57775000D03*
%TO.P,IC21,7,GND*%
%TO.N,GND*%
X200020000Y-57775000D03*
%TO.P,IC21,8*%
%TO.N,~{IORD}*%
X200020000Y-50155000D03*
%TO.P,IC21,9*%
%TO.N,~{MREQ1}*%
X197480000Y-50155000D03*
%TO.P,IC21,10*%
%TO.N,Net-(IC21-Pad10)*%
X194940000Y-50155000D03*
%TO.P,IC21,11*%
X192400000Y-50155000D03*
%TO.P,IC21,12*%
%TO.N,~{MEMR}*%
X189860000Y-50155000D03*
%TO.P,IC21,13*%
%TO.N,~{IOR}*%
X187320000Y-50155000D03*
%TO.P,IC21,14,VCC*%
%TO.N,+5V*%
X184780000Y-50155000D03*
%TD*%
D11*
%TO.P,IC14,1*%
%TO.N,Net-(IC14-Pad1)*%
X80640000Y-151755000D03*
D12*
%TO.P,IC14,2*%
%TO.N,Net-(IC14-Pad2)*%
X83180000Y-151755000D03*
%TO.P,IC14,3*%
%TO.N,Net-(IC14-Pad3)*%
X85720000Y-151755000D03*
%TO.P,IC14,4*%
X88260000Y-151755000D03*
%TO.P,IC14,5*%
%TO.N,Net-(IC14-Pad5)*%
X90800000Y-151755000D03*
%TO.P,IC14,6*%
%TO.N,~{RAM_CE1}*%
X93340000Y-151755000D03*
%TO.P,IC14,7,GND*%
%TO.N,GND*%
X95880000Y-151755000D03*
%TO.P,IC14,8*%
%TO.N,N/C*%
X95880000Y-144135000D03*
%TO.P,IC14,9*%
X93340000Y-144135000D03*
%TO.P,IC14,10*%
X90800000Y-144135000D03*
%TO.P,IC14,11*%
%TO.N,Net-(IC14-Pad11)*%
X88260000Y-144135000D03*
%TO.P,IC14,12*%
%TO.N,~{MEMR1}*%
X85720000Y-144135000D03*
%TO.P,IC14,13*%
%TO.N,~{MEMW1}*%
X83180000Y-144135000D03*
%TO.P,IC14,14,VCC*%
%TO.N,+5V*%
X80640000Y-144135000D03*
%TD*%
D10*
%TO.P,C15,1*%
%TO.N,~{IORD}*%
X206375000Y-43180000D03*
%TO.P,C15,2*%
%TO.N,GND*%
X211375000Y-43180000D03*
%TD*%
D11*
%TO.P,IC18,1*%
%TO.N,~{INDEX}*%
X116200000Y-113020000D03*
D12*
%TO.P,IC18,2*%
%TO.N,INDEX*%
X118740000Y-113020000D03*
%TO.P,IC18,3*%
%TO.N,~{RDATA}*%
X121280000Y-113020000D03*
%TO.P,IC18,4*%
%TO.N,Net-(IC18-Pad4)*%
X123820000Y-113020000D03*
%TO.P,IC18,5*%
X126360000Y-113020000D03*
%TO.P,IC18,6*%
%TO.N,~{DSKD}*%
X128900000Y-113020000D03*
%TO.P,IC18,7,GND*%
%TO.N,GND*%
X131440000Y-113020000D03*
%TO.P,IC18,8*%
%TO.N,RW{slash}~{SEEK}*%
X131440000Y-105400000D03*
%TO.P,IC18,9*%
%TO.N,~{RW}{slash}SEEK*%
X128900000Y-105400000D03*
%TO.P,IC18,10*%
%TO.N,fREADY*%
X126360000Y-105400000D03*
%TO.P,IC18,11*%
%TO.N,~{fREADY}*%
X123820000Y-105400000D03*
%TO.P,IC18,12*%
%TO.N,N/C*%
X121280000Y-105400000D03*
%TO.P,IC18,13*%
X118740000Y-105400000D03*
%TO.P,IC18,14,VCC*%
%TO.N,+5V*%
X116200000Y-105400000D03*
%TD*%
D21*
%TO.P,D3,1,K*%
%TO.N,Net-(D3-Pad1)*%
X113665000Y-176530000D03*
D22*
%TO.P,D3,2,A*%
%TO.N,Net-(D3-Pad2)*%
X116205000Y-176530000D03*
%TD*%
D10*
%TO.P,C23,1*%
%TO.N,+5V*%
X75565000Y-150455000D03*
%TO.P,C23,2*%
%TO.N,GND*%
X75565000Y-145455000D03*
%TD*%
%TO.P,C12,1*%
%TO.N,+5V*%
X101600000Y-53300000D03*
%TO.P,C12,2*%
%TO.N,GND*%
X101600000Y-48300000D03*
%TD*%
D11*
%TO.P,IC6,1*%
%TO.N,WDATA*%
X116200000Y-147945000D03*
D12*
%TO.P,IC6,2*%
%TO.N,~{WDATA}*%
X118740000Y-147945000D03*
%TO.P,IC6,3*%
%TO.N,WGATE*%
X121280000Y-147945000D03*
%TO.P,IC6,4*%
%TO.N,~{WGATE}*%
X123820000Y-147945000D03*
%TO.P,IC6,5*%
%TO.N,SIDE*%
X126360000Y-147945000D03*
%TO.P,IC6,6*%
%TO.N,~{SIDE}*%
X128900000Y-147945000D03*
%TO.P,IC6,7,GND*%
%TO.N,GND*%
X131440000Y-147945000D03*
%TO.P,IC6,8*%
%TO.N,N/C*%
X131440000Y-140325000D03*
%TO.P,IC6,9*%
X128900000Y-140325000D03*
%TO.P,IC6,10*%
X126360000Y-140325000D03*
%TO.P,IC6,11*%
X123820000Y-140325000D03*
%TO.P,IC6,12*%
X121280000Y-140325000D03*
%TO.P,IC6,13*%
X118740000Y-140325000D03*
%TO.P,IC6,14,VCC*%
%TO.N,+5V*%
X116200000Y-140325000D03*
%TD*%
D10*
%TO.P,C11,1*%
%TO.N,+5V*%
X39370000Y-53300000D03*
%TO.P,C11,2*%
%TO.N,GND*%
X39370000Y-48300000D03*
%TD*%
D11*
%TO.P,X2,1,NC*%
%TO.N,unconnected-(X2-Pad1)*%
X93980000Y-161290000D03*
D10*
%TO.P,X2,7,GND*%
%TO.N,GND*%
X78740000Y-161290000D03*
%TO.P,X2,8,OUT*%
%TO.N,USARTCLK*%
X78740000Y-168910000D03*
%TO.P,X2,14,Vcc*%
%TO.N,+5V*%
X93980000Y-168910000D03*
%TD*%
%TO.P,C5,1*%
%TO.N,+5V*%
X109855000Y-106720000D03*
%TO.P,C5,2*%
%TO.N,GND*%
X109855000Y-111720000D03*
%TD*%
D11*
%TO.P,IC5,1,n.c.*%
%TO.N,unconnected-(IC5-Pad1)*%
X94615000Y-97770000D03*
D12*
%TO.P,IC5,2,n.c.*%
%TO.N,unconnected-(IC5-Pad2)*%
X97155000Y-97770000D03*
%TO.P,IC5,3,A14*%
%TO.N,A14*%
X99695000Y-97770000D03*
%TO.P,IC5,4,A12*%
%TO.N,A12*%
X102235000Y-97770000D03*
%TO.P,IC5,5,A7*%
%TO.N,A7*%
X104775000Y-97770000D03*
%TO.P,IC5,6,A6*%
%TO.N,A6*%
X107315000Y-97770000D03*
%TO.P,IC5,7,A5*%
%TO.N,A5*%
X109855000Y-97770000D03*
%TO.P,IC5,8,A4*%
%TO.N,A4*%
X112395000Y-97770000D03*
%TO.P,IC5,9,A3*%
%TO.N,A3*%
X114935000Y-97770000D03*
%TO.P,IC5,10,A2*%
%TO.N,A2*%
X117475000Y-97770000D03*
%TO.P,IC5,11,A1*%
%TO.N,A1*%
X120015000Y-97770000D03*
%TO.P,IC5,12,A0*%
%TO.N,A0*%
X122555000Y-97770000D03*
%TO.P,IC5,13,I/O0*%
%TO.N,D0*%
X125095000Y-97770000D03*
%TO.P,IC5,14,I/O1*%
%TO.N,D1*%
X127635000Y-97770000D03*
%TO.P,IC5,15,I/O2*%
%TO.N,D2*%
X130175000Y-97770000D03*
%TO.P,IC5,16,GND*%
%TO.N,GND*%
X132715000Y-97770000D03*
%TO.P,IC5,17,I/O3*%
%TO.N,D3*%
X132715000Y-90150000D03*
%TO.P,IC5,18,I/O4*%
%TO.N,D4*%
X130175000Y-90150000D03*
%TO.P,IC5,19,I/O5*%
%TO.N,D5*%
X127635000Y-90150000D03*
%TO.P,IC5,20,I/O6*%
%TO.N,D6*%
X125095000Y-90150000D03*
%TO.P,IC5,21,I/O7*%
%TO.N,D7*%
X122555000Y-90150000D03*
%TO.P,IC5,22,~{CE1}*%
%TO.N,~{RAM_CE1}*%
X120015000Y-90150000D03*
%TO.P,IC5,23,A10*%
%TO.N,A10*%
X117475000Y-90150000D03*
%TO.P,IC5,24,~{OE}*%
%TO.N,~{RAM_OE}*%
X114935000Y-90150000D03*
%TO.P,IC5,25,A11*%
%TO.N,A11*%
X112395000Y-90150000D03*
%TO.P,IC5,26,A9*%
%TO.N,A9*%
X109855000Y-90150000D03*
%TO.P,IC5,27,A8*%
%TO.N,A8*%
X107315000Y-90150000D03*
%TO.P,IC5,28,A13*%
%TO.N,A13*%
X104775000Y-90150000D03*
%TO.P,IC5,29,~{WE}*%
%TO.N,~{MEMW1}*%
X102235000Y-90150000D03*
%TO.P,IC5,30,CE2*%
%TO.N,+5V*%
X99695000Y-90150000D03*
%TO.P,IC5,31,A15*%
%TO.N,A15*%
X97155000Y-90150000D03*
%TO.P,IC5,32,VDD*%
%TO.N,+5V*%
X94615000Y-90150000D03*
%TD*%
D21*
%TO.P,D2,1,K*%
%TO.N,Net-(D2-Pad1)*%
X124455000Y-176530000D03*
D22*
%TO.P,D2,2,A*%
%TO.N,Net-(D2-Pad2)*%
X126995000Y-176530000D03*
%TD*%
D19*
%TO.P,R1,1*%
%TO.N,GND*%
X245745000Y-36195000D03*
D20*
%TO.P,R1,2*%
%TO.N,~{ROMSEL}*%
X245745000Y-43815000D03*
%TD*%
D23*
%TO.P,J10,1,Pin_1*%
%TO.N,+5V*%
X227330000Y-67830000D03*
D24*
%TO.P,J10,2,Pin_2*%
%TO.N,GND*%
X229870000Y-67830000D03*
%TO.P,J10,3,Pin_3*%
X232410000Y-67830000D03*
%TO.P,J10,4,Pin_4*%
%TO.N,unconnected-(J10-Pad4)*%
X234950000Y-67830000D03*
%TD*%
D11*
%TO.P,C16,1*%
%TO.N,GND*%
X60639900Y-133985000D03*
D10*
%TO.P,C16,2*%
%TO.N,Net-(C16-Pad2)*%
X62639900Y-133985000D03*
%TD*%
D25*
%TO.P,D4,1,K*%
%TO.N,+5V*%
X113025000Y-154305000D03*
D26*
%TO.P,D4,2,A*%
%TO.N,Net-(C21-Pad1)*%
X120645000Y-154305000D03*
%TD*%
D10*
%TO.P,C4,1*%
%TO.N,+5V*%
X88900000Y-96480000D03*
%TO.P,C4,2*%
%TO.N,GND*%
X88900000Y-91480000D03*
%TD*%
D15*
%TO.P,J11,1,Pin_1*%
%TO.N,GND*%
X234315000Y-27235000D03*
%TD*%
D10*
%TO.P,C10,1*%
%TO.N,+5V*%
X39370000Y-125690000D03*
%TO.P,C10,2*%
%TO.N,GND*%
X39370000Y-120690000D03*
%TD*%
%TO.P,C6,1*%
%TO.N,+5V*%
X94615000Y-78065000D03*
%TO.P,C6,2*%
%TO.N,GND*%
X94615000Y-73065000D03*
%TD*%
D11*
%TO.P,IC13,1,VPP*%
%TO.N,unconnected-(IC13-Pad1)*%
X99705000Y-82555000D03*
D12*
%TO.P,IC13,2,A12*%
%TO.N,A12*%
X102245000Y-82555000D03*
%TO.P,IC13,3,A7*%
%TO.N,A7*%
X104785000Y-82555000D03*
%TO.P,IC13,4,A6*%
%TO.N,A6*%
X107325000Y-82555000D03*
%TO.P,IC13,5,A5*%
%TO.N,A5*%
X109865000Y-82555000D03*
%TO.P,IC13,6,A4*%
%TO.N,A4*%
X112405000Y-82555000D03*
%TO.P,IC13,7,A3*%
%TO.N,A3*%
X114945000Y-82555000D03*
%TO.P,IC13,8,A2*%
%TO.N,A2*%
X117485000Y-82555000D03*
%TO.P,IC13,9,A1*%
%TO.N,A1*%
X120025000Y-82555000D03*
%TO.P,IC13,10,A0*%
%TO.N,A0*%
X122565000Y-82555000D03*
%TO.P,IC13,11,D0*%
%TO.N,D0*%
X125105000Y-82555000D03*
%TO.P,IC13,12,D1*%
%TO.N,D1*%
X127645000Y-82555000D03*
%TO.P,IC13,13,D2*%
%TO.N,D2*%
X130185000Y-82555000D03*
%TO.P,IC13,14,GND*%
%TO.N,GND*%
X132725000Y-82555000D03*
%TO.P,IC13,15,D3*%
%TO.N,D3*%
X132725000Y-67315000D03*
%TO.P,IC13,16,D4*%
%TO.N,D4*%
X130185000Y-67315000D03*
%TO.P,IC13,17,D5*%
%TO.N,D5*%
X127645000Y-67315000D03*
%TO.P,IC13,18,D6*%
%TO.N,D6*%
X125105000Y-67315000D03*
%TO.P,IC13,19,D7*%
%TO.N,D7*%
X122565000Y-67315000D03*
%TO.P,IC13,20,~{CE}*%
%TO.N,~{ROM_CE}*%
X120025000Y-67315000D03*
%TO.P,IC13,21,A10*%
%TO.N,A10*%
X117485000Y-67315000D03*
%TO.P,IC13,22,~{OE}*%
%TO.N,~{ROM_OE}*%
X114945000Y-67315000D03*
%TO.P,IC13,23,A11*%
%TO.N,A11*%
X112405000Y-67315000D03*
%TO.P,IC13,24,A9*%
%TO.N,A9*%
X109865000Y-67315000D03*
%TO.P,IC13,25,A8*%
%TO.N,A8*%
X107325000Y-67315000D03*
%TO.P,IC13,26,NC*%
%TO.N,unconnected-(IC13-Pad26)*%
X104785000Y-67315000D03*
%TO.P,IC13,27,~{PGM}*%
%TO.N,+5V*%
X102245000Y-67315000D03*
%TO.P,IC13,28,VCC*%
X99705000Y-67315000D03*
%TD*%
D19*
%TO.P,R4,1*%
%TO.N,Net-(D3-Pad2)*%
X114935000Y-164690000D03*
D20*
%TO.P,R4,2*%
%TO.N,+5V*%
X114935000Y-172310000D03*
%TD*%
D10*
%TO.P,C8,1*%
%TO.N,+5V*%
X39370000Y-95210000D03*
%TO.P,C8,2*%
%TO.N,GND*%
X39370000Y-90210000D03*
%TD*%
D11*
%TO.P,RN1,1,common*%
%TO.N,+5V*%
X67945000Y-36830000D03*
D12*
%TO.P,RN1,2,R1*%
%TO.N,~{DACK}*%
X70485000Y-36830000D03*
%TO.P,RN1,3,R2*%
%TO.N,BUSY*%
X73025000Y-36830000D03*
%TO.P,RN1,4,R3*%
%TO.N,~{STROBE}*%
X75565000Y-36830000D03*
%TO.P,RN1,5,R4*%
%TO.N,unconnected-(RN1-Pad5)*%
X78105000Y-36830000D03*
%TO.P,RN1,6,R5*%
%TO.N,RESET*%
X80645000Y-36830000D03*
%TO.P,RN1,7,R6*%
%TO.N,TC*%
X83185000Y-36830000D03*
%TO.P,RN1,8,R7*%
%TO.N,~{MOTOR}*%
X85725000Y-36830000D03*
%TO.P,RN1,9,R8*%
%TO.N,INUSE*%
X88265000Y-36830000D03*
%TD*%
D10*
%TO.P,C20,1*%
%TO.N,+5V*%
X75565000Y-110450000D03*
%TO.P,C20,2*%
%TO.N,GND*%
X75565000Y-105450000D03*
%TD*%
D27*
%TO.P,J9,1*%
%TO.N,Net-(J9-Pad1)*%
X67632500Y-28225000D03*
D28*
%TO.P,J9,2*%
%TO.N,GND*%
X67632500Y-22225000D03*
D29*
%TO.P,J9,3*%
%TO.N,N/C*%
X62932500Y-25225000D03*
%TD*%
D11*
%TO.P,C14,1*%
%TO.N,Net-(C14-Pad1)*%
X53019900Y-133985000D03*
D10*
%TO.P,C14,2*%
%TO.N,Net-(C14-Pad2)*%
X55019900Y-133985000D03*
%TD*%
%TO.P,C18,1*%
%TO.N,+5V*%
X75565000Y-137120000D03*
%TO.P,C18,2*%
%TO.N,GND*%
X75565000Y-132120000D03*
%TD*%
D11*
%TO.P,IC33,1,D2*%
%TO.N,D2*%
X45070000Y-82555000D03*
D12*
%TO.P,IC33,2,D3*%
%TO.N,D3*%
X47610000Y-82555000D03*
%TO.P,IC33,3,RxD*%
%TO.N,RXD*%
X50150000Y-82555000D03*
%TO.P,IC33,4,GND*%
%TO.N,GND*%
X52690000Y-82555000D03*
%TO.P,IC33,5,D4*%
%TO.N,D4*%
X55230000Y-82555000D03*
%TO.P,IC33,6,D5*%
%TO.N,D5*%
X57770000Y-82555000D03*
%TO.P,IC33,7,D6*%
%TO.N,D6*%
X60310000Y-82555000D03*
%TO.P,IC33,8,D7*%
%TO.N,D7*%
X62850000Y-82555000D03*
%TO.P,IC33,9,~{TxC*%
%TO.N,xCLK*%
X65390000Y-82555000D03*
%TO.P,IC33,10,~{WR*%
%TO.N,~{IOWR}*%
X67930000Y-82555000D03*
%TO.P,IC33,11,~{CS*%
%TO.N,~{8251CS}*%
X70470000Y-82555000D03*
%TO.P,IC33,12,C/~{D*%
%TO.N,A0*%
X73010000Y-82555000D03*
%TO.P,IC33,13,~{RD*%
%TO.N,~{IORD}*%
X75550000Y-82555000D03*
%TO.P,IC33,14,RxRDY*%
%TO.N,unconnected-(IC33-Pad14)*%
X78090000Y-82555000D03*
%TO.P,IC33,15,TxRDY*%
%TO.N,unconnected-(IC33-Pad15)*%
X78090000Y-67315000D03*
%TO.P,IC33,16,SYNDET/BD*%
%TO.N,unconnected-(IC33-Pad16)*%
X75550000Y-67315000D03*
%TO.P,IC33,17,~{CTS*%
%TO.N,GND*%
X73010000Y-67315000D03*
%TO.P,IC33,18,TxEMPTY*%
%TO.N,unconnected-(IC33-Pad18)*%
X70470000Y-67315000D03*
%TO.P,IC33,19,TxD*%
%TO.N,TXD*%
X67930000Y-67315000D03*
%TO.P,IC33,20,CLK*%
%TO.N,USARTCLK*%
X65390000Y-67315000D03*
%TO.P,IC33,21,RESET*%
%TO.N,RESET*%
X62850000Y-67315000D03*
%TO.P,IC33,22,~{DSR*%
%TO.N,~{DSR}*%
X60310000Y-67315000D03*
%TO.P,IC33,23,~{RTS*%
%TO.N,unconnected-(IC33-Pad23)*%
X57770000Y-67315000D03*
%TO.P,IC33,24,~{DTR*%
%TO.N,~{DTR}*%
X55230000Y-67315000D03*
%TO.P,IC33,25,~{RxC*%
%TO.N,xCLK*%
X52690000Y-67315000D03*
%TO.P,IC33,26,VCC*%
%TO.N,+5V*%
X50150000Y-67315000D03*
%TO.P,IC33,27,D0*%
%TO.N,D0*%
X47610000Y-67315000D03*
%TO.P,IC33,28,D1*%
%TO.N,D1*%
X45070000Y-67315000D03*
%TD*%
D11*
%TO.P,J4,1,Pin_1*%
%TO.N,Net-(IC38-Pad7)*%
X45105000Y-149215000D03*
D12*
%TO.P,J4,2,Pin_2*%
%TO.N,Net-(IC38-Pad6)*%
X47645000Y-149215000D03*
%TO.P,J4,3,Pin_3*%
%TO.N,Net-(IC38-Pad5)*%
X50185000Y-149215000D03*
%TO.P,J4,4,Pin_4*%
%TO.N,Net-(IC38-Pad3)*%
X52725000Y-149215000D03*
%TO.P,J4,5,Pin_5*%
%TO.N,Net-(IC38-Pad2)*%
X55265000Y-149215000D03*
%TO.P,J4,6,Pin_6*%
%TO.N,Net-(IC38-Pad4)*%
X57805000Y-149215000D03*
%TO.P,J4,7,Pin_7*%
%TO.N,Net-(IC38-Pad13)*%
X60345000Y-149215000D03*
%TO.P,J4,8,Pin_8*%
%TO.N,xCLK*%
X60345000Y-141595000D03*
%TO.P,J4,9,Pin_9*%
X57805000Y-141595000D03*
%TO.P,J4,10,Pin_10*%
X55265000Y-141595000D03*
%TO.P,J4,11,Pin_11*%
X52725000Y-141595000D03*
%TO.P,J4,12,Pin_12*%
X50185000Y-141595000D03*
%TO.P,J4,13,Pin_13*%
X47645000Y-141595000D03*
%TO.P,J4,14,Pin_14*%
X45105000Y-141595000D03*
%TD*%
D10*
%TO.P,C2,1*%
%TO.N,+5V*%
X39365000Y-111720000D03*
%TO.P,C2,2*%
%TO.N,GND*%
X39365000Y-106720000D03*
%TD*%
%TO.P,C17,1*%
%TO.N,+5V*%
X109855000Y-141645000D03*
%TO.P,C17,2*%
%TO.N,GND*%
X109855000Y-146645000D03*
%TD*%
D11*
%TO.P,IC2,1,PA3*%
%TO.N,unconnected-(IC2-Pad1)*%
X106685000Y-58425000D03*
D12*
%TO.P,IC2,2,PA2*%
%TO.N,INDEX*%
X109225000Y-58425000D03*
%TO.P,IC2,3,PA1*%
%TO.N,BUSY*%
X111765000Y-58425000D03*
%TO.P,IC2,4,PA0*%
%TO.N,FDCINT*%
X114305000Y-58425000D03*
%TO.P,IC2,5,~{RD}*%
%TO.N,~{IORD}*%
X116845000Y-58425000D03*
%TO.P,IC2,6,~{CS}*%
%TO.N,~{8255CS}*%
X119385000Y-58425000D03*
%TO.P,IC2,7,GND*%
%TO.N,GND*%
X121925000Y-58425000D03*
%TO.P,IC2,8,A1*%
%TO.N,A1*%
X124465000Y-58425000D03*
%TO.P,IC2,9,A0*%
%TO.N,A0*%
X127005000Y-58425000D03*
%TO.P,IC2,10,PC7*%
%TO.N,~{STROBE}*%
X129545000Y-58425000D03*
%TO.P,IC2,11,PC6*%
%TO.N,~{ROMSEL}*%
X132085000Y-58425000D03*
%TO.P,IC2,12,PC5*%
%TO.N,READY*%
X134625000Y-58425000D03*
%TO.P,IC2,13,PC4*%
%TO.N,unconnected-(IC2-Pad13)*%
X137165000Y-58425000D03*
%TO.P,IC2,14,PC0*%
%TO.N,INUSE*%
X139705000Y-58425000D03*
%TO.P,IC2,15,PC1*%
%TO.N,~{MOTOR}*%
X142245000Y-58425000D03*
%TO.P,IC2,16,PC2*%
%TO.N,TC*%
X144785000Y-58425000D03*
%TO.P,IC2,17,PC3*%
%TO.N,RSTCT*%
X147325000Y-58425000D03*
%TO.P,IC2,18,PB0*%
%TO.N,GPIO0*%
X149865000Y-58425000D03*
%TO.P,IC2,19,PB1*%
%TO.N,GPIO1*%
X152405000Y-58425000D03*
%TO.P,IC2,20,PB2*%
%TO.N,GPIO2*%
X154945000Y-58425000D03*
%TO.P,IC2,21,PB3*%
%TO.N,GPIO3*%
X154945000Y-43185000D03*
%TO.P,IC2,22,PB4*%
%TO.N,GPIO4*%
X152405000Y-43185000D03*
%TO.P,IC2,23,PB5*%
%TO.N,GPIO5*%
X149865000Y-43185000D03*
%TO.P,IC2,24,PB6*%
%TO.N,GPIO6*%
X147325000Y-43185000D03*
%TO.P,IC2,25,PB7*%
%TO.N,GPIO7*%
X144785000Y-43185000D03*
%TO.P,IC2,26,VCC*%
%TO.N,+5V*%
X142245000Y-43185000D03*
%TO.P,IC2,27,D7*%
%TO.N,D7*%
X139705000Y-43185000D03*
%TO.P,IC2,28,D6*%
%TO.N,D6*%
X137165000Y-43185000D03*
%TO.P,IC2,29,D5*%
%TO.N,D5*%
X134625000Y-43185000D03*
%TO.P,IC2,30,D4*%
%TO.N,D4*%
X132085000Y-43185000D03*
%TO.P,IC2,31,D3*%
%TO.N,D3*%
X129545000Y-43185000D03*
%TO.P,IC2,32,D2*%
%TO.N,D2*%
X127005000Y-43185000D03*
%TO.P,IC2,33,D1*%
%TO.N,D1*%
X124465000Y-43185000D03*
%TO.P,IC2,34,D0*%
%TO.N,D0*%
X121925000Y-43185000D03*
%TO.P,IC2,35,RESET*%
%TO.N,Reset55*%
X119385000Y-43185000D03*
%TO.P,IC2,36,~{WR}*%
%TO.N,~{IOWR}*%
X116845000Y-43185000D03*
%TO.P,IC2,37,PA7*%
%TO.N,unconnected-(IC2-Pad37)*%
X114305000Y-43185000D03*
%TO.P,IC2,38,PA6*%
%TO.N,unconnected-(IC2-Pad38)*%
X111765000Y-43185000D03*
%TO.P,IC2,39,PA5*%
%TO.N,unconnected-(IC2-Pad39)*%
X109225000Y-43185000D03*
%TO.P,IC2,40,PA4*%
%TO.N,unconnected-(IC2-Pad40)*%
X106685000Y-43185000D03*
%TD*%
D11*
%TO.P,X1,1,NC*%
%TO.N,unconnected-(X1-Pad1)*%
X223520000Y-58420000D03*
D10*
%TO.P,X1,7,GND*%
%TO.N,GND*%
X238760000Y-58420000D03*
%TO.P,X1,8,OUT*%
%TO.N,FDCCLK*%
X238760000Y-50800000D03*
%TO.P,X1,14,Vcc*%
%TO.N,+5V*%
X223520000Y-50800000D03*
%TD*%
D19*
%TO.P,R3,1*%
%TO.N,Net-(D2-Pad2)*%
X125730000Y-164690000D03*
D20*
%TO.P,R3,2*%
%TO.N,+5V*%
X125730000Y-172310000D03*
%TD*%
D11*
%TO.P,IC22,1,E*%
%TO.N,A4*%
X45075000Y-113020000D03*
D12*
%TO.P,IC22,2,A0*%
%TO.N,A2*%
X47615000Y-113020000D03*
%TO.P,IC22,3,A1*%
%TO.N,A3*%
X50155000Y-113020000D03*
%TO.P,IC22,4,O0*%
%TO.N,~{9266CS}*%
X52695000Y-113020000D03*
%TO.P,IC22,5,O1*%
%TO.N,~{8255CS}*%
X55235000Y-113020000D03*
%TO.P,IC22,6,O2*%
%TO.N,~{8251CS}*%
X57775000Y-113020000D03*
%TO.P,IC22,7,O3*%
%TO.N,unconnected-(IC22-Pad7)*%
X60315000Y-113020000D03*
%TO.P,IC22,8,GND*%
%TO.N,GND*%
X62855000Y-113020000D03*
%TO.P,IC22,9,O3*%
%TO.N,~{DS3}*%
X62855000Y-105400000D03*
%TO.P,IC22,10,O2*%
%TO.N,~{DS2}*%
X60315000Y-105400000D03*
%TO.P,IC22,11,O1*%
%TO.N,~{DS1}*%
X57775000Y-105400000D03*
%TO.P,IC22,12,O0*%
%TO.N,~{DS0}*%
X55235000Y-105400000D03*
%TO.P,IC22,13,A1*%
%TO.N,US1*%
X52695000Y-105400000D03*
%TO.P,IC22,14,A0*%
%TO.N,US0*%
X50155000Y-105400000D03*
%TO.P,IC22,15,E*%
%TO.N,GND*%
X47615000Y-105400000D03*
%TO.P,IC22,16,VCC*%
%TO.N,+5V*%
X45075000Y-105400000D03*
%TD*%
D19*
%TO.P,R2,1*%
%TO.N,Net-(D1-Pad2)*%
X135255000Y-164690000D03*
D20*
%TO.P,R2,2*%
%TO.N,+5V*%
X135255000Y-172310000D03*
%TD*%
D30*
%TO.P,J3,1,Pin_1*%
%TO.N,GND*%
X212725000Y-63517500D03*
D14*
%TO.P,J3,2,Pin_2*%
%TO.N,unconnected-(J3-Pad2)*%
X212725000Y-66057500D03*
%TO.P,J3,3,Pin_3*%
%TO.N,GND*%
X210185000Y-63517500D03*
%TO.P,J3,4,Pin_4*%
%TO.N,INUSE*%
X210185000Y-66057500D03*
%TO.P,J3,5,Pin_5*%
%TO.N,GND*%
X207645000Y-63517500D03*
%TO.P,J3,6,Pin_6*%
%TO.N,~{DS3}*%
X207645000Y-66057500D03*
%TO.P,J3,7,Pin_7*%
%TO.N,GND*%
X205105000Y-63517500D03*
%TO.P,J3,8,Pin_8*%
%TO.N,~{INDEX}*%
X205105000Y-66057500D03*
%TO.P,J3,9,Pin_9*%
%TO.N,GND*%
X202565000Y-63517500D03*
%TO.P,J3,10,Pin_10*%
%TO.N,~{DS0}*%
X202565000Y-66057500D03*
%TO.P,J3,11,Pin_11*%
%TO.N,GND*%
X200025000Y-63517500D03*
%TO.P,J3,12,Pin_12*%
%TO.N,~{DS1}*%
X200025000Y-66057500D03*
%TO.P,J3,13,Pin_13*%
%TO.N,GND*%
X197485000Y-63517500D03*
%TO.P,J3,14,Pin_14*%
%TO.N,~{DS2}*%
X197485000Y-66057500D03*
%TO.P,J3,15,Pin_15*%
%TO.N,GND*%
X194945000Y-63517500D03*
%TO.P,J3,16,Pin_16*%
%TO.N,~{MOTOR}*%
X194945000Y-66057500D03*
%TO.P,J3,17,Pin_17*%
%TO.N,GND*%
X192405000Y-63517500D03*
%TO.P,J3,18,Pin_18*%
%TO.N,~{DIR}*%
X192405000Y-66057500D03*
%TO.P,J3,19,Pin_19*%
%TO.N,GND*%
X189865000Y-63517500D03*
%TO.P,J3,20,Pin_20*%
%TO.N,~{STEP}*%
X189865000Y-66057500D03*
%TO.P,J3,21,Pin_21*%
%TO.N,GND*%
X187325000Y-63517500D03*
%TO.P,J3,22,Pin_22*%
%TO.N,~{WDATA}*%
X187325000Y-66057500D03*
%TO.P,J3,23,Pin_23*%
%TO.N,GND*%
X184785000Y-63517500D03*
%TO.P,J3,24,Pin_24*%
%TO.N,~{WGATE}*%
X184785000Y-66057500D03*
%TO.P,J3,25,Pin_25*%
%TO.N,GND*%
X182245000Y-63517500D03*
%TO.P,J3,26,Pin_26*%
%TO.N,~{TRK0}*%
X182245000Y-66057500D03*
%TO.P,J3,27,Pin_27*%
%TO.N,GND*%
X179705000Y-63517500D03*
%TO.P,J3,28,Pin_28*%
%TO.N,~{WRTPRO}*%
X179705000Y-66057500D03*
%TO.P,J3,29,Pin_29*%
%TO.N,GND*%
X177165000Y-63517500D03*
%TO.P,J3,30,Pin_30*%
%TO.N,~{RDATA}*%
X177165000Y-66057500D03*
%TO.P,J3,31,Pin_31*%
%TO.N,GND*%
X174625000Y-63517500D03*
%TO.P,J3,32,Pin_32*%
%TO.N,~{SIDE}*%
X174625000Y-66057500D03*
%TO.P,J3,33,Pin_33*%
%TO.N,GND*%
X172085000Y-63517500D03*
%TO.P,J3,34,Pin_34*%
%TO.N,~{fREADY}*%
X172085000Y-66057500D03*
%TD*%
D31*
%TO.P,J5,0*%
%TO.N,N/C*%
X94190000Y-28700300D03*
X119190000Y-28700300D03*
D11*
%TO.P,J5,1,1*%
%TO.N,unconnected-(J5-Pad1)*%
X112230000Y-29000300D03*
D10*
%TO.P,J5,2,2*%
%TO.N,RX*%
X109460000Y-29000300D03*
%TO.P,J5,3,3*%
%TO.N,TX*%
X106690000Y-29000300D03*
%TO.P,J5,4,4*%
%TO.N,DTR*%
X103920000Y-29000300D03*
%TO.P,J5,5,5*%
%TO.N,GND*%
X101150000Y-29000300D03*
%TO.P,J5,6,6*%
%TO.N,DSR*%
X110845000Y-26160300D03*
%TO.P,J5,7,7*%
%TO.N,unconnected-(J5-Pad7)*%
X108075000Y-26160300D03*
%TO.P,J5,8,8*%
%TO.N,unconnected-(J5-Pad8)*%
X105305000Y-26160300D03*
%TO.P,J5,9,9*%
%TO.N,unconnected-(J5-Pad9)*%
X102535000Y-26160300D03*
%TD*%
D11*
%TO.P,IC3,1,RESET*%
%TO.N,RESET*%
X45090000Y-58425000D03*
D12*
%TO.P,IC3,2,~{RD}*%
%TO.N,~{IORD}*%
X47630000Y-58425000D03*
%TO.P,IC3,3,~{WR}*%
%TO.N,~{IOWR}*%
X50170000Y-58425000D03*
%TO.P,IC3,4,~{CS}*%
%TO.N,~{9266CS}*%
X52710000Y-58425000D03*
%TO.P,IC3,5,A0*%
%TO.N,A0*%
X55250000Y-58425000D03*
%TO.P,IC3,6,DB0*%
%TO.N,D0*%
X57790000Y-58425000D03*
%TO.P,IC3,7,DB1*%
%TO.N,D1*%
X60330000Y-58425000D03*
%TO.P,IC3,8,DB2*%
%TO.N,D2*%
X62870000Y-58425000D03*
%TO.P,IC3,9,DB3*%
%TO.N,D3*%
X65410000Y-58425000D03*
%TO.P,IC3,10,DB4*%
%TO.N,D4*%
X67950000Y-58425000D03*
%TO.P,IC3,11,DB5*%
%TO.N,D5*%
X70490000Y-58425000D03*
%TO.P,IC3,12,DB6*%
%TO.N,D6*%
X73030000Y-58425000D03*
%TO.P,IC3,13,DB7*%
%TO.N,D7*%
X75570000Y-58425000D03*
%TO.P,IC3,14,DRQ*%
%TO.N,unconnected-(IC3-Pad14)*%
X78110000Y-58425000D03*
%TO.P,IC3,15,~{DACK}*%
%TO.N,~{DACK}*%
X80650000Y-58425000D03*
%TO.P,IC3,16,TC*%
%TO.N,TC*%
X83190000Y-58425000D03*
%TO.P,IC3,17,IDX*%
%TO.N,INDEX*%
X85730000Y-58425000D03*
%TO.P,IC3,18,INT*%
%TO.N,FDCINT*%
X88270000Y-58425000D03*
%TO.P,IC3,19,TEST*%
%TO.N,+5V*%
X90810000Y-58425000D03*
%TO.P,IC3,20,GND*%
%TO.N,GND*%
X93350000Y-58425000D03*
%TO.P,IC3,21,MINI*%
%TO.N,+5V*%
X93350000Y-43185000D03*
%TO.P,IC3,22,CLK*%
%TO.N,FDCCLK*%
X90810000Y-43185000D03*
%TO.P,IC3,23,~{DSKD}*%
%TO.N,~{DSKD}*%
X88270000Y-43185000D03*
%TO.P,IC3,24,P0*%
%TO.N,GND*%
X85730000Y-43185000D03*
%TO.P,IC3,25,WE*%
%TO.N,WGATE*%
X83190000Y-43185000D03*
%TO.P,IC3,26,MFM*%
%TO.N,unconnected-(IC3-Pad26)*%
X80650000Y-43185000D03*
%TO.P,IC3,27,HD*%
%TO.N,SIDE*%
X78110000Y-43185000D03*
%TO.P,IC3,28,US1*%
%TO.N,US1*%
X75570000Y-43185000D03*
%TO.P,IC3,29,US0*%
%TO.N,US0*%
X73030000Y-43185000D03*
%TO.P,IC3,30,WDOUT*%
%TO.N,WDATA*%
X70490000Y-43185000D03*
%TO.P,IC3,31,P1*%
%TO.N,GND*%
X67950000Y-43185000D03*
%TO.P,IC3,32,P2*%
X65410000Y-43185000D03*
%TO.P,IC3,33,FLT/TR0*%
%TO.N,FLT{slash}TRO*%
X62870000Y-43185000D03*
%TO.P,IC3,34,WP/TS*%
%TO.N,WP{slash}TS*%
X60330000Y-43185000D03*
%TO.P,IC3,35,RDY*%
%TO.N,READY*%
X57790000Y-43185000D03*
%TO.P,IC3,36,HDL*%
%TO.N,unconnected-(IC3-Pad36)*%
X55250000Y-43185000D03*
%TO.P,IC3,37,FR/STP*%
%TO.N,FR{slash}STEP*%
X52710000Y-43185000D03*
%TO.P,IC3,38,LCT/DIR*%
%TO.N,LCT{slash}DIR*%
X50170000Y-43185000D03*
%TO.P,IC3,39,RW/SEEK*%
%TO.N,~{RW}{slash}SEEK*%
X47630000Y-43185000D03*
%TO.P,IC3,40,VCC*%
%TO.N,+5V*%
X45090000Y-43185000D03*
%TD*%
D15*
%TO.P,J2,1,Pin_1*%
%TO.N,GPIO0*%
X152400000Y-21590000D03*
D16*
%TO.P,J2,2,Pin_2*%
%TO.N,~{STROBE}*%
X152400000Y-24130000D03*
%TO.P,J2,3,Pin_3*%
%TO.N,GPIO1*%
X149860000Y-21590000D03*
%TO.P,J2,4,Pin_4*%
%TO.N,BUSY*%
X149860000Y-24130000D03*
%TO.P,J2,5,Pin_5*%
%TO.N,GPIO2*%
X147320000Y-21590000D03*
%TO.P,J2,6,Pin_6*%
%TO.N,unconnected-(J2-Pad6)*%
X147320000Y-24130000D03*
%TO.P,J2,7,Pin_7*%
%TO.N,GPIO3*%
X144780000Y-21590000D03*
%TO.P,J2,8,Pin_8*%
%TO.N,unconnected-(J2-Pad8)*%
X144780000Y-24130000D03*
%TO.P,J2,9,Pin_9*%
%TO.N,GPIO4*%
X142240000Y-21590000D03*
%TO.P,J2,10,Pin_10*%
%TO.N,unconnected-(J2-Pad10)*%
X142240000Y-24130000D03*
%TO.P,J2,11,Pin_11*%
%TO.N,GPIO5*%
X139700000Y-21590000D03*
%TO.P,J2,12,Pin_12*%
%TO.N,unconnected-(J2-Pad12)*%
X139700000Y-24130000D03*
%TO.P,J2,13,Pin_13*%
%TO.N,GPIO6*%
X137160000Y-21590000D03*
%TO.P,J2,14,Pin_14*%
%TO.N,+5V*%
X137160000Y-24130000D03*
%TO.P,J2,15,Pin_15*%
%TO.N,GPIO7*%
X134620000Y-21590000D03*
%TO.P,J2,16,Pin_16*%
%TO.N,GND*%
X134620000Y-24130000D03*
%TD*%
D19*
%TO.P,R19,1*%
%TO.N,~{IOR}*%
X208280000Y-57150000D03*
D20*
%TO.P,R19,2*%
%TO.N,+5V*%
X208280000Y-49530000D03*
%TD*%
D11*
%TO.P,C13,1*%
%TO.N,Net-(C13-Pad1)*%
X46034900Y-133985000D03*
D10*
%TO.P,C13,2*%
%TO.N,Net-(C13-Pad2)*%
X48034900Y-133985000D03*
%TD*%
D11*
%TO.P,U10,1,C1+*%
%TO.N,Net-(C13-Pad1)*%
X45100000Y-127625000D03*
D12*
%TO.P,U10,2,VS+*%
%TO.N,Net-(C29-Pad1)*%
X47640000Y-127625000D03*
%TO.P,U10,3,C1-*%
%TO.N,Net-(C13-Pad2)*%
X50180000Y-127625000D03*
%TO.P,U10,4,C2+*%
%TO.N,Net-(C14-Pad1)*%
X52720000Y-127625000D03*
%TO.P,U10,5,C2-*%
%TO.N,Net-(C14-Pad2)*%
X55260000Y-127625000D03*
%TO.P,U10,6,VS-*%
%TO.N,Net-(C16-Pad2)*%
X57800000Y-127625000D03*
%TO.P,U10,7,T2OUT*%
%TO.N,TX*%
X60340000Y-127625000D03*
%TO.P,U10,8,R2IN*%
%TO.N,RX*%
X62880000Y-127625000D03*
%TO.P,U10,9,R2OUT*%
%TO.N,RXD*%
X62880000Y-120005000D03*
%TO.P,U10,10,T2IN*%
%TO.N,TXD*%
X60340000Y-120005000D03*
%TO.P,U10,11,T1IN*%
%TO.N,~{DTR}*%
X57800000Y-120005000D03*
%TO.P,U10,12,R1OUT*%
%TO.N,~{DSR}*%
X55260000Y-120005000D03*
%TO.P,U10,13,R1IN*%
%TO.N,DSR*%
X52720000Y-120005000D03*
%TO.P,U10,14,T1OUT*%
%TO.N,DTR*%
X50180000Y-120005000D03*
%TO.P,U10,15,GND*%
%TO.N,GND*%
X47640000Y-120005000D03*
%TO.P,U10,16,VCC*%
%TO.N,+5V*%
X45100000Y-120005000D03*
%TD*%
D11*
%TO.P,C21,1*%
%TO.N,Net-(C21-Pad1)*%
X128969900Y-156845000D03*
D10*
%TO.P,C21,2*%
%TO.N,GND*%
X131469900Y-156845000D03*
%TD*%
D11*
%TO.P,IC16,1*%
%TO.N,Net-(IC14-Pad11)*%
X80640000Y-124450000D03*
D12*
%TO.P,IC16,2*%
%TO.N,Net-(IC16-Pad2)*%
X83180000Y-124450000D03*
%TO.P,IC16,3*%
X85720000Y-124450000D03*
%TO.P,IC16,4*%
%TO.N,Net-(IC14-Pad5)*%
X88260000Y-124450000D03*
%TO.P,IC16,5*%
%TO.N,N/C*%
X90800000Y-124450000D03*
%TO.P,IC16,6*%
X93340000Y-124450000D03*
%TO.P,IC16,7,GND*%
%TO.N,GND*%
X95880000Y-124450000D03*
%TO.P,IC16,8*%
%TO.N,~{ROM_OE}*%
X95880000Y-116830000D03*
%TO.P,IC16,9*%
%TO.N,Net-(IC14-Pad2)*%
X93340000Y-116830000D03*
%TO.P,IC16,10*%
%TO.N,~{MREQ1}*%
X90800000Y-116830000D03*
%TO.P,IC16,11*%
%TO.N,Net-(IC16-Pad11)*%
X88260000Y-116830000D03*
%TO.P,IC16,12*%
X85720000Y-116830000D03*
%TO.P,IC16,13*%
%TO.N,~{MREQ}*%
X83180000Y-116830000D03*
%TO.P,IC16,14,VCC*%
%TO.N,+5V*%
X80640000Y-116830000D03*
%TD*%
D11*
%TO.P,U8,1,OEa*%
%TO.N,~{RW}{slash}SEEK*%
X45090000Y-97780000D03*
D12*
%TO.P,U8,2,I0a*%
%TO.N,+5V*%
X47630000Y-97780000D03*
%TO.P,U8,3,O3b*%
%TO.N,FLT{slash}TRO*%
X50170000Y-97780000D03*
%TO.P,U8,4,I1a*%
%TO.N,~{WRTPRO}*%
X52710000Y-97780000D03*
%TO.P,U8,5,O2b*%
%TO.N,WP{slash}TS*%
X55250000Y-97780000D03*
%TO.P,U8,6,I2a*%
%TO.N,FR{slash}STEP*%
X57790000Y-97780000D03*
%TO.P,U8,7,O1b*%
%TO.N,~{STEP}*%
X60330000Y-97780000D03*
%TO.P,U8,8,I3a*%
%TO.N,LCT{slash}DIR*%
X62870000Y-97780000D03*
%TO.P,U8,9,O0b*%
%TO.N,~{DIR}*%
X65410000Y-97780000D03*
%TO.P,U8,10,GND*%
%TO.N,GND*%
X67950000Y-97780000D03*
%TO.P,U8,11,I0b*%
%TO.N,LCT{slash}DIR*%
X67950000Y-90160000D03*
%TO.P,U8,12,O3a*%
%TO.N,unconnected-(U8-Pad12)*%
X65410000Y-90160000D03*
%TO.P,U8,13,I1b*%
%TO.N,FR{slash}STEP*%
X62870000Y-90160000D03*
%TO.P,U8,14,O2a*%
%TO.N,unconnected-(U8-Pad14)*%
X60330000Y-90160000D03*
%TO.P,U8,15,I2b*%
%TO.N,GND*%
X57790000Y-90160000D03*
%TO.P,U8,16,O1a*%
%TO.N,WP{slash}TS*%
X55250000Y-90160000D03*
%TO.P,U8,17,I3b*%
%TO.N,~{TRK0}*%
X52710000Y-90160000D03*
%TO.P,U8,18,O0a*%
%TO.N,FLT{slash}TRO*%
X50170000Y-90160000D03*
%TO.P,U8,19,OEb*%
%TO.N,RW{slash}~{SEEK}*%
X47630000Y-90160000D03*
%TO.P,U8,20,VCC*%
%TO.N,+5V*%
X45090000Y-90160000D03*
%TD*%
D10*
%TO.P,C9,1*%
%TO.N,+5V*%
X39370000Y-76160000D03*
%TO.P,C9,2*%
%TO.N,GND*%
X39370000Y-71160000D03*
%TD*%
D19*
%TO.P,R18,1*%
%TO.N,+5V*%
X213995000Y-57150000D03*
D20*
%TO.P,R18,2*%
%TO.N,~{IOW}*%
X213995000Y-49530000D03*
%TD*%
D11*
%TO.P,C29,1*%
%TO.N,Net-(C29-Pad1)*%
X38414900Y-133985000D03*
D10*
%TO.P,C29,2*%
%TO.N,+5V*%
X40414900Y-133985000D03*
%TD*%
D21*
%TO.P,D1,1,K*%
%TO.N,GND*%
X133985000Y-176530000D03*
D22*
%TO.P,D1,2,A*%
%TO.N,Net-(D1-Pad2)*%
X136525000Y-176530000D03*
%TD*%
D32*
%TO.N,A14*%
X100458000Y-134075100D03*
%TO.N,A15*%
X103554900Y-80215300D03*
X115598100Y-31936700D03*
%TO.N,~{ROMSEL}*%
X135041500Y-49510800D03*
X90066200Y-75028900D03*
%TO.N,~{IORD}*%
X75971900Y-78477300D03*
X121734200Y-49754700D03*
X64842100Y-75235400D03*
%TO.N,A12*%
X109545500Y-75882100D03*
X115750700Y-42120400D03*
%TO.N,A7*%
X153863400Y-72741800D03*
%TO.N,A6*%
X113210700Y-44251500D03*
%TO.N,A5*%
X151307100Y-73401800D03*
%TO.N,A4*%
X152307300Y-73401800D03*
X111738000Y-91682400D03*
%TO.N,A3*%
X136409800Y-78060500D03*
%TO.N,A2*%
X116826200Y-91672100D03*
%TO.N,A1*%
X122768600Y-59659300D03*
X155257500Y-60347100D03*
%TO.N,A0*%
X121150200Y-63283800D03*
X156656700Y-60273700D03*
X67718700Y-76179500D03*
%TO.N,D0*%
X123827800Y-52870500D03*
%TO.N,D1*%
X164451600Y-41079100D03*
X125046100Y-54387100D03*
%TO.N,D2*%
X127006300Y-37530700D03*
%TO.N,GND*%
X67808900Y-103832700D03*
X132725000Y-68718300D03*
X91260900Y-47875900D03*
X88532100Y-73065000D03*
%TO.N,D3*%
X192337300Y-40969400D03*
X133570000Y-55376000D03*
X129450000Y-53938900D03*
%TO.N,D4*%
X129937500Y-55696100D03*
X139828300Y-38902600D03*
%TO.N,D5*%
X137314000Y-64330300D03*
%TO.N,D6*%
X137451600Y-40398700D03*
%TO.N,D7*%
X159467900Y-42353700D03*
X136313800Y-63605200D03*
X76653400Y-81663400D03*
%TO.N,A10*%
X169225700Y-62880000D03*
%TO.N,A11*%
X168541600Y-62142500D03*
%TO.N,A9*%
X167815100Y-60442700D03*
%TO.N,A8*%
X171140300Y-59028500D03*
%TO.N,A13*%
X156546500Y-71232600D03*
%TO.N,~{MEMW}*%
X188445100Y-44941600D03*
%TO.N,+5V*%
X93080000Y-96480000D03*
X147632300Y-55383600D03*
%TO.N,RESET*%
X56390400Y-51095200D03*
%TO.N,~{IOR}*%
X206177300Y-48842700D03*
%TO.N,~{9266CS}*%
X42305000Y-63195300D03*
%TO.N,TC*%
X82601800Y-47295600D03*
%TO.N,INDEX*%
X91006800Y-90360700D03*
X106186000Y-92456500D03*
%TO.N,~{DSKD}*%
X92632200Y-67538200D03*
X117469900Y-101132400D03*
X96804600Y-64473400D03*
X91837700Y-101132400D03*
%TO.N,SIDE*%
X85767900Y-46671900D03*
%TO.N,US0*%
X69863300Y-96969300D03*
%TO.N,WDATA*%
X60877500Y-39555800D03*
X36764200Y-146582900D03*
%TO.N,~{RW}{slash}SEEK*%
X41929700Y-48771400D03*
%TO.N,~{8255CS}*%
X79324200Y-80316100D03*
%TO.N,~{STROBE}*%
X130815000Y-27827500D03*
%TO.N,TX*%
X101383500Y-64643200D03*
X83314500Y-82392700D03*
%TO.N,DTR*%
X77015700Y-44197600D03*
%TO.N,TXD*%
X81725900Y-77494100D03*
%TO.N,~{DTR}*%
X54015800Y-69143100D03*
%TO.N,~{DSR}*%
X59533600Y-93052600D03*
%TO.N,~{DS0}*%
X193545600Y-69536400D03*
X70414900Y-93268500D03*
%TO.N,USARTCLK*%
X83735400Y-77675400D03*
%TO.N,~{DIR}*%
X69846500Y-89749100D03*
%TO.N,~{STEP}*%
X62323800Y-92993600D03*
%TO.N,~{WDATA}*%
X164221700Y-68800800D03*
%TO.N,~{TRK0}*%
X159323200Y-69250900D03*
X52903500Y-101761400D03*
%TO.N,~{RDATA}*%
X147581200Y-102471200D03*
%TO.N,READY*%
X134795200Y-64811200D03*
X163968500Y-65607300D03*
%TO.N,~{DACK}*%
X69360300Y-56849800D03*
%TO.N,~{RAM_OE}*%
X83728300Y-92446900D03*
%TO.N,Net-(IC14-Pad2)*%
X79461400Y-139713300D03*
%TO.N,~{ROM_OE}*%
X93874600Y-80196500D03*
%TO.N,~{RAM_CE1}*%
X99444800Y-99899500D03*
X120034200Y-95473000D03*
%TO.N,~{MEMR1}*%
X88818700Y-127579300D03*
%TO.N,~{MEMW1}*%
X97066600Y-92017200D03*
X183517900Y-72730800D03*
%TO.N,RSTCT*%
X153759600Y-45372000D03*
%TO.N,~{MREQ1}*%
X132855700Y-112432900D03*
X169808600Y-53438100D03*
%TO.N,~{MREQ}*%
X84460000Y-43942100D03*
%TO.N,~{ROM_CE}*%
X91864900Y-82176800D03*
%TO.N,~{IOWR}*%
X116845000Y-48041200D03*
%TD*%
D33*
%TO.N,A14*%
X199390000Y-32891300D02*
X191012800Y-41268500D01*
X148889900Y-77913800D02*
X148889900Y-132807000D01*
X131618200Y-150078700D02*
X115535400Y-150078700D01*
X191012800Y-54227000D02*
X188590000Y-56649800D01*
X191012800Y-41268500D02*
X191012800Y-54227000D01*
X100458000Y-135001300D02*
X100458000Y-134075100D01*
X149075900Y-77727800D02*
X148889900Y-77913800D01*
X177316700Y-77727800D02*
X149075900Y-77727800D01*
X199390000Y-27922500D02*
X199390000Y-32891300D01*
X188590000Y-66454500D02*
X177316700Y-77727800D01*
X115535400Y-150078700D02*
X100458000Y-135001300D01*
X99695000Y-98895100D02*
X100458000Y-99658100D01*
X188590000Y-56649800D02*
X188590000Y-66454500D01*
X100458000Y-99658100D02*
X100458000Y-134075100D01*
X99695000Y-97770000D02*
X99695000Y-98895100D01*
X148889900Y-132807000D02*
X131618200Y-150078700D01*
%TO.N,A15*%
X96783300Y-91275100D02*
X96000300Y-92058100D01*
X96315600Y-139579200D02*
X87771100Y-139579200D01*
X115598100Y-31936700D02*
X103554900Y-43979900D01*
X86845100Y-138653200D02*
X86845100Y-138420000D01*
X96000300Y-92058100D02*
X96000300Y-100208400D01*
X103554900Y-43979900D02*
X103554900Y-80215300D01*
X85720000Y-138420000D02*
X86845100Y-138420000D01*
X96000300Y-100208400D02*
X97538900Y-101747000D01*
X97155000Y-90150000D02*
X97155000Y-91275100D01*
X97538900Y-138355900D02*
X96315600Y-139579200D01*
X97538900Y-101747000D02*
X97538900Y-138355900D01*
X97155000Y-91275100D02*
X96783300Y-91275100D01*
X87771100Y-139579200D02*
X86845100Y-138653200D01*
%TO.N,~{MEMR}*%
X231770000Y-43805000D02*
X231770000Y-42679900D01*
X227960000Y-29400100D02*
X227960000Y-38869900D01*
X217170000Y-25382500D02*
X218346400Y-24206100D01*
X218346400Y-24206100D02*
X222766000Y-24206100D01*
X222766000Y-24206100D02*
X227960000Y-29400100D01*
X227960000Y-38869900D02*
X231770000Y-42679900D01*
%TO.N,~{ROMSEL}*%
X90066200Y-96993000D02*
X90066200Y-75028900D01*
X87134900Y-130800000D02*
X87134900Y-131081300D01*
X132085000Y-57299900D02*
X132085000Y-52467300D01*
X88260000Y-130800000D02*
X87134900Y-130800000D01*
X132085000Y-58425000D02*
X132085000Y-57299900D01*
X82053900Y-131316300D02*
X82053900Y-129707400D01*
X82053900Y-129707400D02*
X84450000Y-127311300D01*
X86990000Y-121127800D02*
X86990000Y-100069200D01*
X87134900Y-131081300D02*
X86227200Y-131989000D01*
X82726600Y-131989000D02*
X82053900Y-131316300D01*
X84450000Y-127311300D02*
X84450000Y-123667800D01*
X132085000Y-52467300D02*
X135041500Y-49510800D01*
X86227200Y-131989000D02*
X82726600Y-131989000D01*
X86990000Y-100069200D02*
X90066200Y-96993000D01*
X84450000Y-123667800D02*
X86990000Y-121127800D01*
%TO.N,~{IORD}*%
X200020000Y-49029900D02*
X200525100Y-49029900D01*
X48755100Y-59210900D02*
X56600100Y-67055900D01*
X116845000Y-54643900D02*
X121734200Y-49754700D01*
X200020000Y-50155000D02*
X200020000Y-49029900D01*
X48755100Y-58425000D02*
X48755100Y-59210900D01*
X116845000Y-58425000D02*
X116845000Y-54643900D01*
X47630000Y-58425000D02*
X48755100Y-58425000D01*
X56600100Y-67780300D02*
X64055200Y-75235400D01*
X75971900Y-78477300D02*
X75971900Y-81008000D01*
X64055200Y-75235400D02*
X64842100Y-75235400D01*
X75971900Y-81008000D02*
X75550000Y-81429900D01*
X56600100Y-67055900D02*
X56600100Y-67780300D01*
X200525100Y-49029900D02*
X206375000Y-43180000D01*
X75550000Y-82555000D02*
X75550000Y-81429900D01*
%TO.N,A12*%
X115750700Y-42120400D02*
X115430200Y-42440900D01*
X102235000Y-96644900D02*
X102235000Y-96008400D01*
X102235000Y-96008400D02*
X101077500Y-94850900D01*
X110631200Y-48658800D02*
X110631200Y-66181200D01*
X110631200Y-66181200D02*
X111039800Y-66589800D01*
X101077500Y-84847600D02*
X102245000Y-83680100D01*
X102245000Y-82555000D02*
X102245000Y-83680100D01*
X101077500Y-94850900D02*
X101077500Y-84847600D01*
X115430200Y-42440900D02*
X115430200Y-43859800D01*
X111039800Y-74387800D02*
X109545500Y-75882100D01*
X115430200Y-43859800D02*
X110631200Y-48658800D01*
X102235000Y-97770000D02*
X102235000Y-96644900D01*
X111039800Y-66589800D02*
X111039800Y-74387800D01*
%TO.N,A7*%
X187960000Y-26652500D02*
X187960000Y-36849500D01*
X104775000Y-92652700D02*
X104775000Y-96644900D01*
X105966200Y-91461500D02*
X104775000Y-92652700D01*
X104785000Y-82555000D02*
X104785000Y-87370600D01*
X189230000Y-25382500D02*
X187960000Y-26652500D01*
X187960000Y-36849500D02*
X172258200Y-52551300D01*
X172258200Y-54347000D02*
X153863400Y-72741800D01*
X105966200Y-88551800D02*
X105966200Y-91461500D01*
X104775000Y-97770000D02*
X104775000Y-96644900D01*
X104785000Y-87370600D02*
X105966200Y-88551800D01*
X172258200Y-52551300D02*
X172258200Y-54347000D01*
%TO.N,A6*%
X108499800Y-66589800D02*
X108068800Y-66158800D01*
X108068800Y-66158800D02*
X108068800Y-49393400D01*
X107325000Y-87367000D02*
X107325000Y-82555000D01*
X107325000Y-82555000D02*
X107325000Y-73012900D01*
X108440200Y-95519700D02*
X108440200Y-88482200D01*
X107315000Y-97770000D02*
X107315000Y-96644900D01*
X107315000Y-96644900D02*
X108440200Y-95519700D01*
X108440200Y-88482200D02*
X107325000Y-87367000D01*
X108499800Y-71838100D02*
X108499800Y-66589800D01*
X107325000Y-73012900D02*
X108499800Y-71838100D01*
X108068800Y-49393400D02*
X113210700Y-44251500D01*
%TO.N,A5*%
X186690000Y-25382500D02*
X185420000Y-26652500D01*
X109865000Y-82555000D02*
X109865000Y-83680100D01*
X109855000Y-97770000D02*
X109855000Y-96644900D01*
X170533700Y-44718900D02*
X170533700Y-54683600D01*
X185420000Y-26652500D02*
X185420000Y-29832600D01*
X110983500Y-84798600D02*
X110983500Y-95516400D01*
X170533700Y-54683600D02*
X153650700Y-71566600D01*
X185420000Y-29832600D02*
X170533700Y-44718900D01*
X151307100Y-73376600D02*
X151307100Y-73401800D01*
X153117100Y-71566600D02*
X151307100Y-73376600D01*
X110983500Y-95516400D02*
X109855000Y-96644900D01*
X153650700Y-71566600D02*
X153117100Y-71566600D01*
X109865000Y-83680100D02*
X110983500Y-84798600D01*
%TO.N,A4*%
X112395000Y-96644900D02*
X111738000Y-95987900D01*
X152307300Y-73401800D02*
X152307300Y-73272600D01*
X170983800Y-53112200D02*
X186690000Y-37406000D01*
X111738000Y-95987900D02*
X111738000Y-91682400D01*
X152307300Y-73272600D02*
X153563200Y-72016700D01*
X153857500Y-72016700D02*
X170983800Y-54890400D01*
X186690000Y-37406000D02*
X186690000Y-27922500D01*
X170983800Y-54890400D02*
X170983800Y-53112200D01*
X112395000Y-97770000D02*
X112395000Y-96644900D01*
X153563200Y-72016700D02*
X153857500Y-72016700D01*
%TO.N,A3*%
X114945000Y-82555000D02*
X114945000Y-83680100D01*
X113790900Y-84834200D02*
X114945000Y-83680100D01*
X151456700Y-62048500D02*
X155940500Y-62048500D01*
X182880500Y-29154500D02*
X182880500Y-26652000D01*
X165311800Y-52677200D02*
X165311800Y-46723200D01*
X113790900Y-95500800D02*
X113790900Y-84834200D01*
X165311800Y-46723200D02*
X182880500Y-29154500D01*
X136409800Y-78060500D02*
X136409800Y-77095400D01*
X114935000Y-97770000D02*
X114935000Y-96644900D01*
X136409800Y-77095400D02*
X151456700Y-62048500D01*
X182880500Y-26652000D02*
X184150000Y-25382500D01*
X155940500Y-62048500D02*
X165311800Y-52677200D01*
X114935000Y-96644900D02*
X113790900Y-95500800D01*
%TO.N,A2*%
X155990000Y-62723600D02*
X166212000Y-52501600D01*
X146332200Y-73361800D02*
X146332200Y-69251300D01*
X136250600Y-83443400D02*
X146332200Y-73361800D01*
X117475000Y-97207400D02*
X117475000Y-96644900D01*
X152859900Y-62723600D02*
X155990000Y-62723600D01*
X132834600Y-92287400D02*
X136250600Y-88871400D01*
X146332200Y-69251300D02*
X152859900Y-62723600D01*
X116826200Y-95996100D02*
X116826200Y-91672100D01*
X126365000Y-98133200D02*
X126365000Y-97389000D01*
X117475000Y-97207400D02*
X117475000Y-97770000D01*
X131466600Y-92287400D02*
X132834600Y-92287400D01*
X119478200Y-98929400D02*
X125568800Y-98929400D01*
X166212000Y-47618600D02*
X184150000Y-29680600D01*
X117475000Y-97770000D02*
X118600100Y-97770000D01*
X118600100Y-97770000D02*
X118600100Y-98051300D01*
X126365000Y-97389000D02*
X131466600Y-92287400D01*
X125568800Y-98929400D02*
X126365000Y-98133200D01*
X166212000Y-52501600D02*
X166212000Y-47618600D01*
X136250600Y-88871400D02*
X136250600Y-83443400D01*
X184150000Y-29680600D02*
X184150000Y-27922500D01*
X117475000Y-96644900D02*
X116826200Y-95996100D01*
X118600100Y-98051300D02*
X119478200Y-98929400D01*
%TO.N,A1*%
X120025000Y-81429900D02*
X118895700Y-80300600D01*
X118888600Y-95518500D02*
X120015000Y-96644900D01*
X118895700Y-80300600D02*
X118895700Y-63532200D01*
X120025000Y-82555000D02*
X120025000Y-83680100D01*
X118895700Y-63532200D02*
X122768600Y-59659300D01*
X120025000Y-82555000D02*
X120025000Y-81429900D01*
X158433500Y-57171100D02*
X155257500Y-60347100D01*
X158433500Y-48559000D02*
X158433500Y-57171100D01*
X120025000Y-83680100D02*
X118888600Y-84816500D01*
X181610000Y-25382500D02*
X158433500Y-48559000D01*
X118888600Y-84816500D02*
X118888600Y-95518500D01*
X120015000Y-97770000D02*
X120015000Y-96644900D01*
%TO.N,A0*%
X156656700Y-60273700D02*
X158883700Y-58046700D01*
X122555000Y-97770000D02*
X122555000Y-96644900D01*
X121405500Y-95495400D02*
X122555000Y-96644900D01*
X59072500Y-65849500D02*
X59072500Y-67734600D01*
X59072500Y-67734600D02*
X67517400Y-76179500D01*
X158883700Y-50648800D02*
X181610000Y-27922500D01*
X158883700Y-58046700D02*
X158883700Y-50648800D01*
X122565000Y-81992400D02*
X121405500Y-83151900D01*
X122565000Y-82555000D02*
X122565000Y-81992400D01*
X121150200Y-63283800D02*
X121150200Y-80577600D01*
X121150200Y-80577600D02*
X122565000Y-81992400D01*
X55250000Y-62027000D02*
X59072500Y-65849500D01*
X121405500Y-83151900D02*
X121405500Y-95495400D01*
X55250000Y-58425000D02*
X55250000Y-62027000D01*
X67517400Y-76179500D02*
X67718700Y-76179500D01*
%TO.N,D0*%
X123827800Y-52870500D02*
X123339800Y-53358500D01*
X123690200Y-68349500D02*
X125105000Y-69764300D01*
X121925000Y-44310100D02*
X123827800Y-46212900D01*
X123690200Y-59550200D02*
X123690200Y-68349500D01*
X123964300Y-95514200D02*
X123964300Y-85457400D01*
X123964300Y-85457400D02*
X125105000Y-84316700D01*
X125105000Y-84316700D02*
X125105000Y-83680100D01*
X125095000Y-97770000D02*
X125095000Y-96644900D01*
X125105000Y-69764300D02*
X125105000Y-82555000D01*
X123339800Y-59199800D02*
X123690200Y-59550200D01*
X123827800Y-46212900D02*
X123827800Y-52870500D01*
X123339800Y-53358500D02*
X123339800Y-59199800D01*
X125105000Y-82555000D02*
X125105000Y-83680100D01*
X121925000Y-43185000D02*
X121925000Y-44310100D01*
X125095000Y-96644900D02*
X123964300Y-95514200D01*
%TO.N,D1*%
X126496100Y-59816100D02*
X126496100Y-69513000D01*
X124465000Y-43185000D02*
X124465000Y-44310100D01*
X125590200Y-58910200D02*
X126496100Y-59816100D01*
X181069300Y-24189900D02*
X200737400Y-24189900D01*
X125046100Y-44891200D02*
X125046100Y-54387100D01*
X164451600Y-40807600D02*
X181069300Y-24189900D01*
X200737400Y-24189900D02*
X201930000Y-25382500D01*
X127645000Y-82555000D02*
X127645000Y-81429900D01*
X124465000Y-44310100D02*
X125046100Y-44891200D01*
X126496100Y-69513000D02*
X127178800Y-70195700D01*
X127178800Y-70195700D02*
X127178800Y-80963700D01*
X164451600Y-41079100D02*
X164451600Y-40807600D01*
X127178800Y-80963700D02*
X127645000Y-81429900D01*
X125046100Y-54387100D02*
X125590200Y-54931200D01*
X125590200Y-54931200D02*
X125590200Y-58910200D01*
%TO.N,D2*%
X127005000Y-37532000D02*
X127006300Y-37530700D01*
X128419800Y-66189800D02*
X128419800Y-45724900D01*
X127005000Y-43185000D02*
X127005000Y-37532000D01*
X127005000Y-43185000D02*
X127005000Y-44310100D01*
X129059800Y-66829800D02*
X128419800Y-66189800D01*
X128419800Y-45724900D02*
X127005000Y-44310100D01*
X130185000Y-75640000D02*
X129059800Y-74514800D01*
X129059800Y-74514800D02*
X129059800Y-66829800D01*
X130185000Y-82555000D02*
X130185000Y-75640000D01*
%TO.N,GND*%
X65410000Y-43185000D02*
X65410000Y-40627700D01*
X236850000Y-44367500D02*
X236850000Y-44930100D01*
X39370000Y-120690000D02*
X38224000Y-119544000D01*
X76713900Y-160120600D02*
X71514500Y-160120600D01*
X76756100Y-130928900D02*
X75565000Y-132120000D01*
X109855000Y-111720000D02*
X108729100Y-112845900D01*
X65410000Y-40627700D02*
X65410000Y-24447500D01*
X78740000Y-161290000D02*
X77570600Y-160120600D01*
X91260900Y-47875900D02*
X91260900Y-55210800D01*
X94689400Y-126765700D02*
X95880000Y-125575100D01*
X57790000Y-90160000D02*
X57790000Y-89034900D01*
X91260900Y-55210800D02*
X91832100Y-55782000D01*
X37764600Y-88604600D02*
X37764600Y-72765400D01*
X77570600Y-160120600D02*
X76713900Y-160120600D01*
X76713900Y-146603900D02*
X76713900Y-160120600D01*
X71514500Y-160120600D02*
X64005100Y-167630000D01*
X76705600Y-144314400D02*
X75565000Y-145455000D01*
X122477600Y-49076600D02*
X122477600Y-56747300D01*
X120791200Y-36783700D02*
X120791200Y-47390200D01*
X175464500Y-54445500D02*
X178435000Y-51475000D01*
X95880000Y-112875100D02*
X97075200Y-114070300D01*
X38211600Y-91368400D02*
X39370000Y-90210000D01*
X132565800Y-135590900D02*
X131440000Y-134465100D01*
X95880000Y-111750000D02*
X95880000Y-112875100D01*
X38194100Y-49475900D02*
X39370000Y-48300000D01*
X39365000Y-106720000D02*
X38211600Y-105566600D01*
X133444900Y-24130000D02*
X120791200Y-36783700D01*
X134620000Y-24130000D02*
X133444900Y-24130000D01*
X67808900Y-106941000D02*
X62855000Y-111894900D01*
X97075200Y-114070300D02*
X97075200Y-122129700D01*
X108729100Y-112845900D02*
X108729100Y-130279100D01*
X175464500Y-62678000D02*
X175464500Y-54445500D01*
X131440000Y-146819900D02*
X132565800Y-145694100D01*
X131440000Y-113020000D02*
X131440000Y-111894900D01*
X67950000Y-98905100D02*
X67950000Y-103691600D01*
X57790000Y-89034900D02*
X52690000Y-83934900D01*
X234315000Y-27235000D02*
X234315000Y-28410100D01*
X39370000Y-71160000D02*
X38194100Y-69984100D01*
X95880000Y-124450000D02*
X95880000Y-125575100D01*
X48740100Y-105118600D02*
X49583800Y-104274900D01*
X65410000Y-40627700D02*
X45308600Y-40627700D01*
X37764600Y-72765400D02*
X39370000Y-71160000D01*
X45308600Y-40627700D02*
X39370000Y-46566300D01*
X51418400Y-104274900D02*
X56375200Y-99318100D01*
X97075200Y-122129700D02*
X95880000Y-123324900D01*
X95880000Y-124450000D02*
X95880000Y-123324900D01*
X86855100Y-43560700D02*
X86855100Y-43185000D01*
X62880000Y-167630000D02*
X64005100Y-167630000D01*
X133985000Y-159360100D02*
X131469900Y-156845000D01*
X101600000Y-48300000D02*
X101600000Y-29450300D01*
X94615000Y-73065000D02*
X94615000Y-66477300D01*
X200025000Y-58905100D02*
X200020000Y-58900100D01*
X75565000Y-118785000D02*
X76756100Y-119976100D01*
X52690000Y-83934900D02*
X52690000Y-82555000D01*
X244283700Y-37656300D02*
X243561200Y-37656300D01*
X48740100Y-105400000D02*
X48740100Y-105118600D01*
X131440000Y-133340000D02*
X131440000Y-134465100D01*
X38224000Y-119544000D02*
X38224000Y-107861000D01*
X94689400Y-136104300D02*
X94689400Y-126765700D01*
X200020000Y-57775000D02*
X200020000Y-58900100D01*
X121925000Y-58425000D02*
X121925000Y-57299900D01*
X93350000Y-58425000D02*
X93350000Y-57299900D01*
X91832100Y-55782000D02*
X93350000Y-57299900D01*
X232410000Y-67830000D02*
X232410000Y-62860000D01*
X94615000Y-66477300D02*
X89663900Y-61526200D01*
X67808900Y-103832700D02*
X67808900Y-106941000D01*
X200025000Y-63517500D02*
X200025000Y-58905100D01*
X132725000Y-82555000D02*
X132725000Y-68718300D01*
X122477600Y-56747300D02*
X121925000Y-57299900D01*
X88532100Y-91112100D02*
X88532100Y-73065000D01*
X76705600Y-133260600D02*
X76705600Y-144314400D01*
X115313600Y-152103600D02*
X126728500Y-152103600D01*
X126728500Y-152103600D02*
X131469900Y-156845000D01*
X47615000Y-105400000D02*
X48740100Y-105400000D01*
X131440000Y-147945000D02*
X131440000Y-146819900D01*
X56375200Y-92699900D02*
X57790000Y-91285100D01*
X232410000Y-62860000D02*
X236850000Y-58420000D01*
X88900000Y-91480000D02*
X88532100Y-91112100D01*
X132715000Y-110619900D02*
X131440000Y-111894900D01*
X56375200Y-99318100D02*
X56375200Y-92699900D01*
X120791200Y-47390200D02*
X122477600Y-49076600D01*
X76756100Y-119976100D02*
X76756100Y-130928900D01*
X39370000Y-46566300D02*
X39370000Y-48300000D01*
X132715000Y-97770000D02*
X132715000Y-110619900D01*
X109855000Y-146645000D02*
X115313600Y-152103600D01*
X236850000Y-44367500D02*
X243561200Y-37656300D01*
X236850000Y-43805000D02*
X236850000Y-44367500D01*
X245745000Y-36195000D02*
X244283700Y-37656300D01*
X38224000Y-107861000D02*
X39365000Y-106720000D01*
X75565000Y-132120000D02*
X76705600Y-133260600D01*
X194945000Y-63517500D02*
X197485000Y-63517500D01*
X108729100Y-130279100D02*
X109855000Y-131405000D01*
X89663900Y-61526200D02*
X89663900Y-57950200D01*
X91170300Y-47875900D02*
X86855100Y-43560700D01*
X57790000Y-90160000D02*
X57790000Y-91285100D01*
X133985000Y-176530000D02*
X133985000Y-159360100D01*
X62855000Y-113020000D02*
X62855000Y-111894900D01*
X39370000Y-90210000D02*
X37764600Y-88604600D01*
X89663900Y-57950200D02*
X91832100Y-55782000D01*
X174625000Y-63517500D02*
X175464500Y-62678000D01*
X38211600Y-105566600D02*
X38211600Y-91368400D01*
X91260900Y-47875900D02*
X91170300Y-47875900D01*
X210185000Y-63517500D02*
X212725000Y-63517500D01*
X65410000Y-24447500D02*
X67632500Y-22225000D01*
X236850000Y-58420000D02*
X238760000Y-58420000D01*
X243561200Y-37656300D02*
X234315000Y-28410100D01*
X49583800Y-104274900D02*
X51418400Y-104274900D01*
X67950000Y-103691600D02*
X67808900Y-103832700D01*
X236850000Y-58420000D02*
X236850000Y-44930100D01*
X101600000Y-29450300D02*
X101150000Y-29000300D01*
X132565800Y-145694100D02*
X132565800Y-135590900D01*
X38194100Y-69984100D02*
X38194100Y-49475900D01*
X95880000Y-137294900D02*
X94689400Y-136104300D01*
X75565000Y-145455000D02*
X76713900Y-146603900D01*
X67950000Y-97780000D02*
X67950000Y-98905100D01*
X85730000Y-43185000D02*
X86855100Y-43185000D01*
X95880000Y-138420000D02*
X95880000Y-137294900D01*
%TO.N,D3*%
X132725000Y-66752400D02*
X133888500Y-67915900D01*
X133888500Y-67915900D02*
X133888500Y-87851400D01*
X203200000Y-26652500D02*
X204470000Y-25382500D01*
X132725000Y-66752400D02*
X132725000Y-66189900D01*
X132715000Y-90150000D02*
X132715000Y-89024900D01*
X133570000Y-55376000D02*
X133355000Y-55591000D01*
X133355000Y-55591000D02*
X133355000Y-65559900D01*
X129450000Y-53938900D02*
X129545000Y-53843900D01*
X133355000Y-65559900D02*
X132725000Y-66189900D01*
X133888500Y-87851400D02*
X132715000Y-89024900D01*
X129545000Y-53843900D02*
X129545000Y-43185000D01*
X203200000Y-30106700D02*
X203200000Y-26652500D01*
X192337300Y-40969400D02*
X203200000Y-30106700D01*
X132725000Y-67315000D02*
X132725000Y-66752400D01*
%TO.N,D4*%
X131313800Y-69568900D02*
X131313800Y-87886100D01*
X132647600Y-43185000D02*
X131365000Y-44467600D01*
X137211200Y-38902600D02*
X139828300Y-38902600D01*
X131313800Y-87886100D02*
X130175000Y-89024900D01*
X130717700Y-56476300D02*
X130717700Y-65657200D01*
X131365000Y-54268600D02*
X129937500Y-55696100D01*
X132647600Y-43185000D02*
X133210100Y-43185000D01*
X130717700Y-65657200D02*
X130185000Y-66189900D01*
X132085000Y-43185000D02*
X132647600Y-43185000D01*
X130175000Y-90150000D02*
X130175000Y-89024900D01*
X129937500Y-55696100D02*
X130717700Y-56476300D01*
X130185000Y-67315000D02*
X130185000Y-66189900D01*
X133210100Y-42903700D02*
X137211200Y-38902600D01*
X130185000Y-67315000D02*
X130185000Y-68440100D01*
X130185000Y-68440100D02*
X131313800Y-69568900D01*
X131365000Y-44467600D02*
X131365000Y-54268600D01*
X133210100Y-43185000D02*
X133210100Y-42903700D01*
%TO.N,D5*%
X137813600Y-39635000D02*
X140975000Y-42796400D01*
X157459800Y-57508200D02*
X155417700Y-59550300D01*
X134625000Y-43185000D02*
X134625000Y-42199900D01*
X155417700Y-59550300D02*
X140975000Y-59550300D01*
X137314000Y-63211300D02*
X137314000Y-64330300D01*
X127645000Y-80019900D02*
X128786400Y-81161300D01*
X137189900Y-39635000D02*
X137813600Y-39635000D01*
X128786400Y-81161300D02*
X128786400Y-87873500D01*
X140975000Y-42796400D02*
X140975000Y-59550300D01*
X180765600Y-23739700D02*
X157459800Y-47045500D01*
X134625000Y-42199900D02*
X137189900Y-39635000D01*
X127635000Y-90150000D02*
X127635000Y-89024900D01*
X157459800Y-47045500D02*
X157459800Y-57508200D01*
X127645000Y-67315000D02*
X127645000Y-80019900D01*
X140975000Y-59550300D02*
X137314000Y-63211300D01*
X128786400Y-87873500D02*
X127635000Y-89024900D01*
X205367200Y-23739700D02*
X180765600Y-23739700D01*
X207010000Y-25382500D02*
X205367200Y-23739700D01*
%TO.N,D6*%
X125095000Y-89587400D02*
X126793200Y-91285600D01*
X135588500Y-63041700D02*
X135954500Y-62675700D01*
X126793200Y-91285600D02*
X133199700Y-91285600D01*
X137165000Y-40685300D02*
X137165000Y-43185000D01*
X126271100Y-70242700D02*
X126271100Y-87848800D01*
X133199700Y-91285600D02*
X135588500Y-88896800D01*
X125095000Y-89587400D02*
X125095000Y-89024900D01*
X126271100Y-87848800D02*
X125095000Y-89024900D01*
X125105000Y-68440100D02*
X125105000Y-69076600D01*
X135954500Y-45520600D02*
X137165000Y-44310100D01*
X125105000Y-69076600D02*
X126271100Y-70242700D01*
X125095000Y-90150000D02*
X125095000Y-89587400D01*
X137165000Y-43185000D02*
X137165000Y-44310100D01*
X135954500Y-62675700D02*
X135954500Y-45520600D01*
X137451600Y-40398700D02*
X137165000Y-40685300D01*
X135588500Y-88896800D02*
X135588500Y-63041700D01*
X125105000Y-67315000D02*
X125105000Y-68440100D01*
%TO.N,D7*%
X178584800Y-23236800D02*
X159467900Y-42353700D01*
X209550000Y-25382500D02*
X207404300Y-23236800D01*
X122555000Y-85911900D02*
X122555000Y-90150000D01*
X136313800Y-63226200D02*
X136313800Y-63605200D01*
X75570000Y-59550100D02*
X74410600Y-60709500D01*
X123698200Y-84768700D02*
X122555000Y-85911900D01*
X139705000Y-44310100D02*
X138290200Y-45724900D01*
X207404300Y-23236800D02*
X178584800Y-23236800D01*
X122565000Y-67315000D02*
X122565000Y-68440100D01*
X138290200Y-61249800D02*
X136313800Y-63226200D01*
X75570000Y-58425000D02*
X75570000Y-59550100D01*
X138290200Y-45724900D02*
X138290200Y-61249800D01*
X76731200Y-81585600D02*
X76653400Y-81663400D01*
X139705000Y-43185000D02*
X139705000Y-44310100D01*
X74410600Y-71916600D02*
X76731200Y-74237200D01*
X123698200Y-69573300D02*
X123698200Y-84768700D01*
X122565000Y-68440100D02*
X123698200Y-69573300D01*
X74410600Y-60709500D02*
X74410600Y-71916600D01*
X76731200Y-74237200D02*
X76731200Y-81585600D01*
%TO.N,A10*%
X174564300Y-57541400D02*
X174564300Y-53118000D01*
X118616400Y-83502200D02*
X117475000Y-84643600D01*
X118616400Y-81151300D02*
X118616400Y-83502200D01*
X174564300Y-53118000D02*
X194310000Y-33372300D01*
X194310000Y-33372300D02*
X194310000Y-27922500D01*
X117485000Y-67315000D02*
X117485000Y-80019900D01*
X117475000Y-84643600D02*
X117475000Y-90150000D01*
X117485000Y-80019900D02*
X118616400Y-81151300D01*
X169225700Y-62880000D02*
X174564300Y-57541400D01*
%TO.N,A11*%
X174114200Y-57080100D02*
X174114200Y-52931500D01*
X113554500Y-69589600D02*
X113554500Y-83167300D01*
X168541600Y-62142500D02*
X169051800Y-62142500D01*
X169051800Y-62142500D02*
X174114200Y-57080100D01*
X193040000Y-34005700D02*
X193040000Y-26652500D01*
X112405000Y-67315000D02*
X112405000Y-68440100D01*
X112395000Y-84326800D02*
X112395000Y-90150000D01*
X113554500Y-83167300D02*
X112395000Y-84326800D01*
X112405000Y-68440100D02*
X113554500Y-69589600D01*
X193040000Y-26652500D02*
X194310000Y-25382500D01*
X174114200Y-52931500D02*
X193040000Y-34005700D01*
%TO.N,A9*%
X190500000Y-26652500D02*
X191770000Y-25382500D01*
X167815100Y-60442700D02*
X172989000Y-55268800D01*
X108679300Y-87849200D02*
X108679300Y-75340800D01*
X172989000Y-52783400D02*
X190500000Y-35272400D01*
X109855000Y-89024900D02*
X108679300Y-87849200D01*
X172989000Y-55268800D02*
X172989000Y-52783400D01*
X190500000Y-35272400D02*
X190500000Y-26652500D01*
X109865000Y-74155100D02*
X109865000Y-68440100D01*
X109855000Y-90150000D02*
X109855000Y-89024900D01*
X109865000Y-67315000D02*
X109865000Y-68440100D01*
X108679300Y-75340800D02*
X109865000Y-74155100D01*
%TO.N,A8*%
X191770000Y-34639100D02*
X191770000Y-27922500D01*
X107325000Y-67315000D02*
X106199900Y-67315000D01*
X107315000Y-87993700D02*
X106199900Y-86878600D01*
X106199900Y-86878600D02*
X106199900Y-67315000D01*
X173664100Y-56504700D02*
X173664100Y-52745000D01*
X173664100Y-52745000D02*
X191770000Y-34639100D01*
X171140300Y-59028500D02*
X173664100Y-56504700D01*
X107315000Y-90150000D02*
X107315000Y-87993700D01*
%TO.N,A13*%
X156546500Y-71232600D02*
X156546500Y-71002200D01*
X169162500Y-63989700D02*
X175014400Y-58137800D01*
X163559000Y-63989700D02*
X169162500Y-63989700D01*
X175014400Y-58137800D02*
X175014400Y-53304600D01*
X156546500Y-71002200D02*
X163559000Y-63989700D01*
X195580000Y-32739000D02*
X195580000Y-26652500D01*
X175014400Y-53304600D02*
X195580000Y-32739000D01*
X195580000Y-26652500D02*
X196850000Y-25382500D01*
%TO.N,~{MEMW}*%
X188445100Y-55524800D02*
X188445100Y-44941600D01*
X219710000Y-25382500D02*
X220980000Y-26652500D01*
X187320000Y-57775000D02*
X187320000Y-56649900D01*
X224150000Y-43805000D02*
X224150000Y-42679900D01*
X187320000Y-56649900D02*
X188445100Y-55524800D01*
X222880000Y-41409900D02*
X224150000Y-42679900D01*
X220980000Y-26652500D02*
X220980000Y-32209500D01*
X220980000Y-32209500D02*
X222880000Y-34109500D01*
X222880000Y-34109500D02*
X222880000Y-41409900D01*
%TO.N,+5V*%
X86990000Y-151377000D02*
X86990000Y-160210000D01*
X99695000Y-89024900D02*
X95049800Y-84379700D01*
X74395300Y-135950300D02*
X74395300Y-124954700D01*
X114935000Y-171284900D02*
X113030000Y-169379900D01*
X116200000Y-120510100D02*
X116840000Y-119870100D01*
X99705000Y-67315000D02*
X98579900Y-67315000D01*
X45100000Y-160010000D02*
X45100000Y-158884900D01*
X46230200Y-139800300D02*
X46230200Y-145488100D01*
X211379800Y-53654900D02*
X215056300Y-49978400D01*
X39365000Y-115353700D02*
X44016300Y-120005000D01*
X145367900Y-53119200D02*
X147632300Y-55383600D01*
X95049800Y-84379700D02*
X95049800Y-78499800D01*
X116200000Y-139199900D02*
X114756300Y-137756200D01*
X142245000Y-43185000D02*
X143370100Y-43185000D01*
X213995000Y-56270100D02*
X213995000Y-57150000D01*
X227330000Y-54610000D02*
X227330000Y-67830000D01*
X95049800Y-78499800D02*
X94615000Y-78065000D01*
X45090000Y-89034900D02*
X39370000Y-83314900D01*
X90810000Y-58425000D02*
X90810000Y-59550100D01*
X46230200Y-145488100D02*
X46230200Y-157754700D01*
X214725100Y-43192900D02*
X214725100Y-38679900D01*
X116200000Y-125720000D02*
X116200000Y-120510100D01*
X75565000Y-137120000D02*
X74395300Y-135950300D01*
X145946500Y-34091600D02*
X145946500Y-43803800D01*
X113030000Y-155385100D02*
X113030000Y-158505000D01*
X113030000Y-169379900D02*
X113030000Y-167200000D01*
X90810000Y-59550100D02*
X98574900Y-67315000D01*
X44016300Y-120005000D02*
X44016300Y-121213800D01*
X183654900Y-51255100D02*
X183654900Y-50155000D01*
X45100000Y-120005000D02*
X44016300Y-120005000D01*
X45090000Y-90160000D02*
X45090000Y-91285100D01*
X215056300Y-49978400D02*
X215056300Y-43524100D01*
X74401400Y-138283600D02*
X74401400Y-145488100D01*
X47630000Y-93825100D02*
X47630000Y-97780000D01*
X93350000Y-45050000D02*
X101600000Y-53300000D01*
X45100000Y-160010000D02*
X45100000Y-161135100D01*
X80873100Y-145260100D02*
X86990000Y-151377000D01*
X113030000Y-167200000D02*
X113030000Y-158505000D01*
X74401400Y-145488100D02*
X74401400Y-149291400D01*
X47630000Y-97780000D02*
X47630000Y-98905100D01*
X114756300Y-126405000D02*
X114878800Y-126282500D01*
X80640000Y-145260100D02*
X80873100Y-145260100D01*
X94615000Y-90150000D02*
X94615000Y-94945000D01*
X93350000Y-43185000D02*
X93350000Y-45050000D01*
X145946500Y-43803800D02*
X145367900Y-44382400D01*
X86990000Y-160210000D02*
X93980000Y-167200000D01*
X74395300Y-124954700D02*
X75565000Y-123785000D01*
X116200000Y-140325000D02*
X116200000Y-139199900D01*
X211379800Y-53654900D02*
X213995000Y-56270100D01*
X47630000Y-98905100D02*
X45075000Y-101460100D01*
X114756300Y-137756200D02*
X114756300Y-126405000D01*
X46230200Y-145488100D02*
X74401400Y-145488100D01*
X44016300Y-121213800D02*
X39540100Y-125690000D01*
X113109600Y-109974600D02*
X113109600Y-113889500D01*
X45075000Y-106525100D02*
X44559900Y-106525100D01*
X44564900Y-161135100D02*
X39370000Y-166330000D01*
X39365000Y-111720000D02*
X39365000Y-115353700D01*
X44559900Y-106525100D02*
X39365000Y-111720000D01*
X137160000Y-24130000D02*
X137160000Y-25305100D01*
X45075000Y-101460100D02*
X45075000Y-105400000D01*
X45090000Y-89597400D02*
X45090000Y-90160000D01*
X208280000Y-50555100D02*
X211379800Y-53654900D01*
X98574900Y-67315000D02*
X98579900Y-67315000D01*
X137160000Y-25305100D02*
X145946500Y-34091600D01*
X80640000Y-144135000D02*
X80640000Y-145260100D01*
X45075000Y-105400000D02*
X45075000Y-106525100D01*
X208280000Y-49530000D02*
X208280000Y-50555100D01*
X39540100Y-125690000D02*
X39370000Y-125690000D01*
X109855000Y-106720000D02*
X113109600Y-109974600D01*
X39540100Y-125690000D02*
X39540100Y-133110200D01*
X80640000Y-116830000D02*
X80640000Y-115704900D01*
X114756300Y-126405000D02*
X109855000Y-126405000D01*
X116840000Y-118745000D02*
X116840000Y-117619900D01*
X39370000Y-83314900D02*
X39370000Y-76160000D01*
X45090000Y-89597400D02*
X45090000Y-89034900D01*
X80640000Y-105375000D02*
X75565000Y-110450000D01*
X80640000Y-104130000D02*
X80640000Y-105375000D01*
X75565000Y-110450000D02*
X80640000Y-115525000D01*
X94615000Y-94945000D02*
X93080000Y-96480000D01*
X116200000Y-125720000D02*
X116200000Y-126282500D01*
X113109600Y-113889500D02*
X116840000Y-117619900D01*
X45090000Y-91285100D02*
X47630000Y-93825100D01*
X93980000Y-167200000D02*
X113030000Y-167200000D01*
X113025000Y-155380100D02*
X113030000Y-155385100D01*
X184780000Y-50155000D02*
X183654900Y-50155000D01*
X93980000Y-168910000D02*
X93980000Y-167200000D01*
X75565000Y-137120000D02*
X74401400Y-138283600D01*
X145367900Y-44382400D02*
X144334300Y-44382400D01*
X114935000Y-172310000D02*
X114935000Y-171284900D01*
X178435000Y-56475000D02*
X183654900Y-51255100D01*
X80640000Y-115525000D02*
X80640000Y-115704900D01*
X214725100Y-38679900D02*
X215900000Y-37505000D01*
X40414900Y-133985000D02*
X46230200Y-139800300D01*
X74401400Y-149291400D02*
X75565000Y-150455000D01*
X223520000Y-50800000D02*
X227330000Y-54610000D01*
X116840000Y-118745000D02*
X116840000Y-119870100D01*
X46230200Y-157754700D02*
X45100000Y-158884900D01*
X99695000Y-90150000D02*
X99695000Y-89024900D01*
X215056300Y-43524100D02*
X214725100Y-43192900D01*
X45100000Y-161135100D02*
X44564900Y-161135100D01*
X145367900Y-44382400D02*
X145367900Y-53119200D01*
X144334300Y-44382400D02*
X143370100Y-43418200D01*
X39540100Y-133110200D02*
X40414900Y-133985000D01*
X114878800Y-126282500D02*
X116200000Y-126282500D01*
X113025000Y-154305000D02*
X113025000Y-155380100D01*
X143370100Y-43418200D02*
X143370100Y-43185000D01*
%TO.N,RESET*%
X56390400Y-59730300D02*
X56390400Y-51095200D01*
X62850000Y-66189900D02*
X56390400Y-59730300D01*
X62850000Y-67315000D02*
X62850000Y-66189900D01*
%TO.N,~{IOR}*%
X207238500Y-56108500D02*
X207238500Y-48842700D01*
X210820000Y-26652500D02*
X212090000Y-25382500D01*
X207238500Y-48842700D02*
X207238500Y-45541500D01*
X207238500Y-45541500D02*
X210820000Y-41960000D01*
X208280000Y-57150000D02*
X207238500Y-56108500D01*
X207238500Y-48842700D02*
X206177300Y-48842700D01*
X210820000Y-41960000D02*
X210820000Y-26652500D01*
%TO.N,~{IOW}*%
X213995000Y-49530000D02*
X213995000Y-48504900D01*
X213439400Y-47949300D02*
X213439400Y-26573100D01*
X213995000Y-48504900D02*
X213439400Y-47949300D01*
X213439400Y-26573100D02*
X214630000Y-25382500D01*
%TO.N,~{9266CS}*%
X48758100Y-93683300D02*
X48758100Y-102498700D01*
X46475000Y-105908100D02*
X52461800Y-111894900D01*
X48758100Y-102498700D02*
X46475000Y-104781800D01*
X42305000Y-63195300D02*
X42305000Y-85575000D01*
X42305000Y-85575000D02*
X46360000Y-89630000D01*
X46360000Y-91285200D02*
X48758100Y-93683300D01*
X46475000Y-104781800D02*
X46475000Y-105908100D01*
X52695000Y-113020000D02*
X52695000Y-111894900D01*
X46360000Y-89630000D02*
X46360000Y-91285200D01*
X52461800Y-111894900D02*
X52695000Y-111894900D01*
%TO.N,TC*%
X83190000Y-57299900D02*
X82601800Y-56711700D01*
X82601800Y-56711700D02*
X82601800Y-47295600D01*
X83190000Y-58425000D02*
X83190000Y-57299900D01*
%TO.N,INDEX*%
X91006800Y-71068300D02*
X91006800Y-90360700D01*
X118740000Y-111894900D02*
X106186000Y-99340900D01*
X85730000Y-58425000D02*
X85730000Y-65791500D01*
X118740000Y-113020000D02*
X118740000Y-111894900D01*
X85730000Y-65791500D02*
X91006800Y-71068300D01*
X106186000Y-99340900D02*
X106186000Y-92456500D01*
%TO.N,~{DSKD}*%
X128900000Y-113020000D02*
X127774900Y-113020000D01*
X88270000Y-43185000D02*
X88270000Y-44310100D01*
X92632200Y-90529400D02*
X92632200Y-67538200D01*
X117469900Y-105723700D02*
X117469900Y-101132400D01*
X91837700Y-91323900D02*
X92632200Y-90529400D01*
X88270000Y-44310100D02*
X88736300Y-44310100D01*
X96804600Y-52378400D02*
X96804600Y-64473400D01*
X123000200Y-107964000D02*
X119710200Y-107964000D01*
X91837700Y-101132400D02*
X91837700Y-91323900D01*
X127774900Y-113020000D02*
X127774900Y-112738700D01*
X119710200Y-107964000D02*
X117469900Y-105723700D01*
X88736300Y-44310100D02*
X96804600Y-52378400D01*
X127774900Y-112738700D02*
X123000200Y-107964000D01*
%TO.N,Net-(C13-Pad1)*%
X46034900Y-129685000D02*
X46034900Y-133985000D01*
X45100000Y-128750100D02*
X46034900Y-129685000D01*
X45100000Y-127625000D02*
X45100000Y-128750100D01*
%TO.N,WGATE*%
X89540000Y-42838200D02*
X89540000Y-43506300D01*
X100943800Y-65228900D02*
X100943800Y-79383200D01*
X117382000Y-143100700D02*
X117382000Y-148220400D01*
X100943800Y-79383200D02*
X103602800Y-82042200D01*
X117382000Y-148220400D02*
X118273900Y-149112300D01*
X103602800Y-129321500D02*
X117382000Y-143100700D01*
X84315100Y-43185000D02*
X84315100Y-42903700D01*
X100658400Y-64943500D02*
X100943800Y-65228900D01*
X121280000Y-147945000D02*
X120154900Y-147945000D01*
X119201300Y-149112300D02*
X120154900Y-148158700D01*
X100658400Y-54624700D02*
X100658400Y-64943500D01*
X103602800Y-82042200D02*
X103602800Y-129321500D01*
X88761600Y-42059800D02*
X89540000Y-42838200D01*
X85159000Y-42059800D02*
X88761600Y-42059800D01*
X83190000Y-43185000D02*
X84315100Y-43185000D01*
X89540000Y-43506300D02*
X100658400Y-54624700D01*
X84315100Y-42903700D02*
X85159000Y-42059800D01*
X120154900Y-148158700D02*
X120154900Y-147945000D01*
X118273900Y-149112300D02*
X119201300Y-149112300D01*
%TO.N,SIDE*%
X98425000Y-93410600D02*
X98425000Y-89024800D01*
X100945500Y-95931100D02*
X98425000Y-93410600D01*
X101240800Y-135066500D02*
X101240800Y-116324900D01*
X94599700Y-85199500D02*
X94599700Y-79896200D01*
X126360000Y-147945000D02*
X124722800Y-149582200D01*
X93484300Y-78780800D02*
X93484300Y-67328800D01*
X115756500Y-149582200D02*
X101240800Y-135066500D01*
X94599700Y-79896200D02*
X93484300Y-78780800D01*
X124722800Y-149582200D02*
X115756500Y-149582200D01*
X93484300Y-67328800D02*
X87000000Y-60844500D01*
X101240800Y-116324900D02*
X100945500Y-116029600D01*
X87000000Y-60844500D02*
X87000000Y-47904000D01*
X98425000Y-89024800D02*
X94599700Y-85199500D01*
X87000000Y-47904000D02*
X85767900Y-46671900D01*
X100945500Y-116029600D02*
X100945500Y-95931100D01*
%TO.N,US1*%
X64140000Y-98170900D02*
X58693900Y-103617000D01*
X55369700Y-103617000D02*
X53820100Y-105166600D01*
X71659800Y-45362100D02*
X70919400Y-46102500D01*
X52695000Y-105400000D02*
X53820100Y-105400000D01*
X53820100Y-105166600D02*
X53820100Y-105400000D01*
X58693900Y-103617000D02*
X55369700Y-103617000D01*
X73600200Y-42059000D02*
X72554500Y-42059000D01*
X74444900Y-42903700D02*
X73600200Y-42059000D01*
X72554500Y-42059000D02*
X71659800Y-42953700D01*
X64140000Y-95878300D02*
X64140000Y-98170900D01*
X69121400Y-90896900D02*
X64140000Y-95878300D01*
X69121400Y-58158200D02*
X69121400Y-90896900D01*
X75570000Y-43185000D02*
X74444900Y-43185000D01*
X70919400Y-56360200D02*
X69121400Y-58158200D01*
X71659800Y-42953700D02*
X71659800Y-45362100D01*
X70919400Y-46102500D02*
X70919400Y-56360200D01*
X74444900Y-43185000D02*
X74444900Y-42903700D01*
%TO.N,US0*%
X73030000Y-44310100D02*
X73030000Y-44946700D01*
X71884800Y-46091900D02*
X71884800Y-94947800D01*
X73030000Y-43185000D02*
X73030000Y-44310100D01*
X73030000Y-44946700D02*
X71884800Y-46091900D01*
X71884800Y-94947800D02*
X69863300Y-96969300D01*
%TO.N,WDATA*%
X36764200Y-48523100D02*
X36764200Y-146582900D01*
X45731500Y-39555800D02*
X36764200Y-48523100D01*
X60877500Y-39555800D02*
X45731500Y-39555800D01*
%TO.N,Net-(C16-Pad2)*%
X57800000Y-128750100D02*
X62639900Y-133590000D01*
X57800000Y-127625000D02*
X57800000Y-128750100D01*
X62639900Y-133590000D02*
X62639900Y-133985000D01*
%TO.N,FLT{slash}TRO*%
X45540300Y-41077800D02*
X43030700Y-43587400D01*
X50170000Y-90160000D02*
X50170000Y-89034900D01*
X59870800Y-41077800D02*
X45540300Y-41077800D01*
X61744900Y-42951900D02*
X59870800Y-41077800D01*
X49416400Y-89034900D02*
X50170000Y-89034900D01*
X43030700Y-43587400D02*
X43030700Y-82649200D01*
X62870000Y-43185000D02*
X61744900Y-43185000D01*
X50170000Y-97780000D02*
X50170000Y-90160000D01*
X43030700Y-82649200D02*
X49416400Y-89034900D01*
X61744900Y-43185000D02*
X61744900Y-42951900D01*
%TO.N,WP{slash}TS*%
X60330000Y-43185000D02*
X59204900Y-43185000D01*
X55250000Y-90160000D02*
X55250000Y-89034900D01*
X51420000Y-85204900D02*
X51420000Y-74854500D01*
X59204900Y-43008600D02*
X59204900Y-43185000D01*
X43480800Y-47585200D02*
X46360000Y-44706000D01*
X47607000Y-41584100D02*
X57780400Y-41584100D01*
X57780400Y-41584100D02*
X59204900Y-43008600D01*
X46360000Y-42831100D02*
X47607000Y-41584100D01*
X55250000Y-97780000D02*
X55250000Y-90160000D01*
X55250000Y-89034900D02*
X51420000Y-85204900D01*
X51420000Y-74854500D02*
X46340000Y-69774500D01*
X46340000Y-69774500D02*
X46340000Y-64085400D01*
X46360000Y-44706000D02*
X46360000Y-42831100D01*
X43480800Y-61226200D02*
X43480800Y-47585200D01*
X46340000Y-64085400D02*
X43480800Y-61226200D01*
%TO.N,FR{slash}STEP*%
X43964800Y-60356900D02*
X48880000Y-65272100D01*
X48880000Y-65272100D02*
X48880000Y-69957200D01*
X57790000Y-93770800D02*
X57790000Y-96654900D01*
X59204800Y-89651300D02*
X59204800Y-92356000D01*
X49643600Y-42050500D02*
X48900000Y-42794100D01*
X48900000Y-43552100D02*
X43964800Y-48487300D01*
X59821200Y-89034900D02*
X59204800Y-89651300D01*
X51584900Y-42903700D02*
X50731700Y-42050500D01*
X43964800Y-48487300D02*
X43964800Y-60356900D01*
X62870000Y-90160000D02*
X62870000Y-89034900D01*
X52710000Y-43185000D02*
X51584900Y-43185000D01*
X59204800Y-92356000D02*
X57790000Y-93770800D01*
X59040000Y-80117200D02*
X59040000Y-88253700D01*
X48880000Y-69957200D02*
X59040000Y-80117200D01*
X50731700Y-42050500D02*
X49643600Y-42050500D01*
X57790000Y-97780000D02*
X57790000Y-96654900D01*
X62870000Y-89034900D02*
X59821200Y-89034900D01*
X59040000Y-88253700D02*
X59821200Y-89034900D01*
X48900000Y-42794100D02*
X48900000Y-43552100D01*
X51584900Y-43185000D02*
X51584900Y-42903700D01*
%TO.N,LCT{slash}DIR*%
X62870000Y-96365100D02*
X62870000Y-96654900D01*
X64120000Y-80909700D02*
X51420000Y-68209700D01*
X67950000Y-89034900D02*
X64120000Y-85204900D01*
X46475300Y-48004800D02*
X50170000Y-44310100D01*
X51420000Y-68209700D02*
X51420000Y-64314500D01*
X67950000Y-90160000D02*
X67950000Y-89034900D01*
X62870000Y-97780000D02*
X62870000Y-96654900D01*
X67950000Y-90722500D02*
X67950000Y-91285100D01*
X46475300Y-59369800D02*
X46475300Y-48004800D01*
X67950000Y-91285100D02*
X62870000Y-96365100D01*
X67950000Y-90722500D02*
X67950000Y-90160000D01*
X51420000Y-64314500D02*
X46475300Y-59369800D01*
X50170000Y-43185000D02*
X50170000Y-44310100D01*
X64120000Y-85204900D02*
X64120000Y-80909700D01*
%TO.N,~{RW}{slash}SEEK*%
X41579900Y-72359000D02*
X38216900Y-75722000D01*
X45090000Y-92365000D02*
X45090000Y-97780000D01*
X41579900Y-49121200D02*
X41579900Y-72359000D01*
X38216900Y-85491900D02*
X45090000Y-92365000D01*
X41929700Y-48771400D02*
X41579900Y-49121200D01*
X38216900Y-75722000D02*
X38216900Y-85491900D01*
%TO.N,BUSY*%
X74150100Y-36596800D02*
X74150100Y-36830000D01*
X149860000Y-24130000D02*
X148684900Y-24130000D01*
X145319800Y-20379900D02*
X126117500Y-20379900D01*
X118222600Y-47710300D02*
X111765000Y-54167900D01*
X121520600Y-24976800D02*
X121520600Y-33005800D01*
X121070500Y-24526700D02*
X86220200Y-24526700D01*
X86220200Y-24526700D02*
X74150100Y-36596800D01*
X121520600Y-24976800D02*
X121070500Y-24526700D01*
X111765000Y-58425000D02*
X111765000Y-57299900D01*
X147877100Y-22954900D02*
X147000800Y-22954900D01*
X148684900Y-23762700D02*
X147877100Y-22954900D01*
X146050000Y-21110100D02*
X145319800Y-20379900D01*
X147000800Y-22954900D02*
X146050000Y-22004100D01*
X118222600Y-36303800D02*
X118222600Y-47710300D01*
X148684900Y-24130000D02*
X148684900Y-23762700D01*
X111765000Y-54167900D02*
X111765000Y-57299900D01*
X126117500Y-20379900D02*
X121520600Y-24976800D01*
X121520600Y-33005800D02*
X118222600Y-36303800D01*
X73025000Y-36830000D02*
X74150100Y-36830000D01*
X146050000Y-22004100D02*
X146050000Y-21110100D01*
%TO.N,~{8255CS}*%
X63505400Y-114626800D02*
X57685600Y-114626800D01*
X56360100Y-113301300D02*
X56360100Y-113020000D01*
X79324200Y-80316100D02*
X79324200Y-88182200D01*
X57685600Y-114626800D02*
X56360100Y-113301300D01*
X70977500Y-96528900D02*
X70977500Y-107154700D01*
X79324200Y-88182200D02*
X70977500Y-96528900D01*
X70977500Y-107154700D02*
X63505400Y-114626800D01*
X55235000Y-113020000D02*
X56360100Y-113020000D01*
%TO.N,~{STROBE}*%
X129545000Y-58425000D02*
X129545000Y-57299900D01*
X129212400Y-55319000D02*
X129212400Y-56967300D01*
X130815000Y-53716400D02*
X129212400Y-55319000D01*
X129212400Y-56967300D02*
X129545000Y-57299900D01*
X130815000Y-27827500D02*
X130815000Y-53716400D01*
%TO.N,Net-(IC38-Pad6)*%
X46509500Y-159340500D02*
X46509500Y-168127700D01*
X47165300Y-168783500D02*
X55754500Y-168783500D01*
X55754500Y-168783500D02*
X56674900Y-167863100D01*
X47645000Y-158205000D02*
X46509500Y-159340500D01*
X56674900Y-167863100D02*
X56674900Y-167630000D01*
X46509500Y-168127700D02*
X47165300Y-168783500D01*
X57800000Y-167630000D02*
X56674900Y-167630000D01*
X47645000Y-149215000D02*
X47645000Y-158205000D01*
%TO.N,GPIO0*%
X152400000Y-22765100D02*
X152767200Y-22765100D01*
X152400000Y-21590000D02*
X152400000Y-22765100D01*
X156080500Y-26078400D02*
X156080500Y-51084400D01*
X156080500Y-51084400D02*
X149865000Y-57299900D01*
X152767200Y-22765100D02*
X156080500Y-26078400D01*
X149865000Y-58425000D02*
X149865000Y-57299900D01*
%TO.N,GPIO1*%
X152405000Y-58425000D02*
X152405000Y-57299900D01*
X153442400Y-20414800D02*
X156559500Y-23531900D01*
X156559500Y-53145400D02*
X152405000Y-57299900D01*
X156559500Y-23531900D02*
X156559500Y-53145400D01*
X149860000Y-21590000D02*
X151035100Y-21590000D01*
X151035100Y-21590000D02*
X151035100Y-20782100D01*
X151035100Y-20782100D02*
X151402400Y-20414800D01*
X151402400Y-20414800D02*
X153442400Y-20414800D01*
%TO.N,GPIO2*%
X157009700Y-55235200D02*
X157009700Y-23296600D01*
X154945000Y-57299900D02*
X157009700Y-55235200D01*
X149757900Y-19961900D02*
X148495100Y-21224700D01*
X147320000Y-21590000D02*
X148495100Y-21590000D01*
X154945000Y-58425000D02*
X154945000Y-57299900D01*
X157009700Y-23296600D02*
X153675000Y-19961900D01*
X153675000Y-19961900D02*
X149757900Y-19961900D01*
X148495100Y-21224700D02*
X148495100Y-21590000D01*
%TO.N,GPIO3*%
X145147300Y-22765100D02*
X145955100Y-23572900D01*
X145955100Y-25210300D02*
X154945000Y-34200200D01*
X145955100Y-23572900D02*
X145955100Y-25210300D01*
X154945000Y-34200200D02*
X154945000Y-43185000D01*
X144780000Y-22765100D02*
X145147300Y-22765100D01*
X144780000Y-21590000D02*
X144780000Y-22765100D01*
%TO.N,GPIO4*%
X143415100Y-28303900D02*
X152405000Y-37293800D01*
X142240000Y-21590000D02*
X142240000Y-22765100D01*
X142607300Y-22765100D02*
X143415100Y-23572900D01*
X142240000Y-22765100D02*
X142607300Y-22765100D01*
X143415100Y-23572900D02*
X143415100Y-28303900D01*
X152405000Y-37293800D02*
X152405000Y-43185000D01*
%TO.N,GPIO5*%
X140067300Y-22765100D02*
X140967200Y-23665000D01*
X139700000Y-21590000D02*
X139700000Y-22765100D01*
X140967200Y-23665000D02*
X140967200Y-27485800D01*
X149865000Y-36383600D02*
X149865000Y-43185000D01*
X140967200Y-27485800D02*
X149865000Y-36383600D01*
X139700000Y-22765100D02*
X140067300Y-22765100D01*
%TO.N,GPIO6*%
X137160000Y-21590000D02*
X137160000Y-22765100D01*
X137527300Y-22765100D02*
X138335100Y-23572900D01*
X138335100Y-25496100D02*
X147325000Y-34486000D01*
X147325000Y-34486000D02*
X147325000Y-43185000D01*
X138335100Y-23572900D02*
X138335100Y-25496100D01*
X137160000Y-22765100D02*
X137527300Y-22765100D01*
%TO.N,GPIO7*%
X144785000Y-42059900D02*
X135839400Y-33114300D01*
X144785000Y-43185000D02*
X144785000Y-42059900D01*
X134987300Y-22765100D02*
X134620000Y-22765100D01*
X135839400Y-23617200D02*
X134987300Y-22765100D01*
X135839400Y-33114300D02*
X135839400Y-23617200D01*
X134620000Y-21590000D02*
X134620000Y-22765100D01*
%TO.N,Net-(C13-Pad2)*%
X50180000Y-127625000D02*
X50180000Y-131839900D01*
X50180000Y-131839900D02*
X48034900Y-133985000D01*
%TO.N,Net-(C14-Pad1)*%
X52720000Y-127625000D02*
X52720000Y-132560000D01*
X52720000Y-132560000D02*
X53019900Y-132859900D01*
X53019900Y-133985000D02*
X53019900Y-132859900D01*
%TO.N,Net-(C14-Pad2)*%
X55260000Y-128750100D02*
X55019900Y-128990200D01*
X55019900Y-128990200D02*
X55019900Y-133985000D01*
X55260000Y-127625000D02*
X55260000Y-128750100D01*
%TO.N,RX*%
X84722500Y-39993000D02*
X81847600Y-42867900D01*
X87723600Y-39993000D02*
X84722500Y-39993000D01*
X81847600Y-42867900D02*
X81847600Y-59770600D01*
X62880000Y-127625000D02*
X62880000Y-126499900D01*
X73282700Y-100176900D02*
X73282700Y-116097200D01*
X81847600Y-59770600D02*
X82483100Y-60406100D01*
X99859400Y-27857200D02*
X87723600Y-39993000D01*
X73282700Y-116097200D02*
X62880000Y-126499900D01*
X108316900Y-27857200D02*
X99859400Y-27857200D01*
X109460000Y-29000300D02*
X108316900Y-27857200D01*
X82483100Y-90976500D02*
X73282700Y-100176900D01*
X82483100Y-60406100D02*
X82483100Y-90976500D01*
%TO.N,TX*%
X60340000Y-127625000D02*
X61465100Y-127625000D01*
X61465100Y-127625000D02*
X61465100Y-127906300D01*
X102775100Y-63251600D02*
X102775100Y-32915200D01*
X101383500Y-64643200D02*
X102775100Y-63251600D01*
X63416100Y-128754000D02*
X73965800Y-118204300D01*
X83314500Y-91061100D02*
X83314500Y-82392700D01*
X73965800Y-100409800D02*
X83314500Y-91061100D01*
X102775100Y-32915200D02*
X106690000Y-29000300D01*
X73965800Y-118204300D02*
X73965800Y-100409800D01*
X61465100Y-127906300D02*
X62312800Y-128754000D01*
X62312800Y-128754000D02*
X63416100Y-128754000D01*
%TO.N,DTR*%
X63443300Y-115334400D02*
X71493500Y-107284200D01*
X76935600Y-44277700D02*
X77015700Y-44197600D01*
X71493500Y-97021400D02*
X80097300Y-88417600D01*
X51305100Y-120005000D02*
X51305100Y-119723700D01*
X80097300Y-88417600D02*
X80097300Y-65980700D01*
X80097300Y-65980700D02*
X76935600Y-62819000D01*
X76935600Y-62819000D02*
X76935600Y-44277700D01*
X55694400Y-115334400D02*
X63443300Y-115334400D01*
X50180000Y-120005000D02*
X51305100Y-120005000D01*
X71493500Y-107284200D02*
X71493500Y-97021400D01*
X51305100Y-119723700D02*
X55694400Y-115334400D01*
%TO.N,DSR*%
X80560400Y-89041400D02*
X80560400Y-61734500D01*
X63629800Y-115784500D02*
X72102800Y-107311500D01*
X53845100Y-119723700D02*
X57784300Y-115784500D01*
X109674500Y-27330800D02*
X110845000Y-26160300D01*
X72102800Y-97499000D02*
X80560400Y-89041400D01*
X87913600Y-38774100D02*
X99356900Y-27330800D01*
X53845100Y-120005000D02*
X53845100Y-119723700D01*
X83449900Y-38774100D02*
X87913600Y-38774100D01*
X79521600Y-42702400D02*
X83449900Y-38774100D01*
X79521600Y-60695700D02*
X79521600Y-42702400D01*
X99356900Y-27330800D02*
X109674500Y-27330800D01*
X57784300Y-115784500D02*
X63629800Y-115784500D01*
X52720000Y-120005000D02*
X53845100Y-120005000D01*
X80560400Y-61734500D02*
X79521600Y-60695700D01*
X72102800Y-107311500D02*
X72102800Y-97499000D01*
%TO.N,TXD*%
X81725900Y-90344200D02*
X72832400Y-99237700D01*
X60340000Y-120005000D02*
X60340000Y-118879900D01*
X72832400Y-99237700D02*
X72832400Y-107218500D01*
X61171000Y-118879900D02*
X60340000Y-118879900D01*
X81725900Y-77494100D02*
X81725900Y-90344200D01*
X72832400Y-107218500D02*
X61171000Y-118879900D01*
%TO.N,~{DTR}*%
X54015800Y-69143100D02*
X54718800Y-68440100D01*
X54718800Y-68440100D02*
X55230000Y-68440100D01*
X55230000Y-67315000D02*
X55230000Y-68440100D01*
%TO.N,~{DSR}*%
X51547900Y-107538300D02*
X51547900Y-104886600D01*
X54094000Y-121171000D02*
X49698200Y-121171000D01*
X51547900Y-104886600D02*
X55848100Y-100586400D01*
X53825600Y-109816000D02*
X51547900Y-107538300D01*
X55260000Y-120005000D02*
X54094000Y-121171000D01*
X56643100Y-100586400D02*
X59204800Y-98024700D01*
X59204800Y-98024700D02*
X59204800Y-93381400D01*
X49698200Y-121171000D02*
X49008500Y-120481300D01*
X53825600Y-114758900D02*
X53825600Y-109816000D01*
X55848100Y-100586400D02*
X56643100Y-100586400D01*
X49008500Y-119576000D02*
X53825600Y-114758900D01*
X49008500Y-120481300D02*
X49008500Y-119576000D01*
X59204800Y-93381400D02*
X59533600Y-93052600D01*
%TO.N,xCLK*%
X52690000Y-68843100D02*
X52690000Y-68440100D01*
X65390000Y-81429900D02*
X65276800Y-81429900D01*
X65276800Y-81429900D02*
X52690000Y-68843100D01*
X52690000Y-67315000D02*
X52690000Y-68440100D01*
X65390000Y-82555000D02*
X65390000Y-81429900D01*
%TO.N,~{DS0}*%
X55235000Y-105400000D02*
X56360100Y-105400000D01*
X70414900Y-93268500D02*
X66680000Y-97003400D01*
X66680000Y-97003400D02*
X66680000Y-98117700D01*
X56360100Y-105166800D02*
X56360100Y-105400000D01*
X199086100Y-69536400D02*
X193545600Y-69536400D01*
X66680000Y-98117700D02*
X60676000Y-104121700D01*
X57405200Y-104121700D02*
X56360100Y-105166800D01*
X202565000Y-66057500D02*
X199086100Y-69536400D01*
X60676000Y-104121700D02*
X57405200Y-104121700D01*
%TO.N,Net-(IC38-Pad2)*%
X48770100Y-156835000D02*
X48770100Y-165374800D01*
X48770100Y-165374800D02*
X47640000Y-166504900D01*
X55265000Y-149215000D02*
X55265000Y-150340100D01*
X55265000Y-150340100D02*
X48770100Y-156835000D01*
X47640000Y-167630000D02*
X47640000Y-166504900D01*
%TO.N,Net-(IC38-Pad4)*%
X51529400Y-156615700D02*
X51529400Y-165314300D01*
X57805000Y-150340100D02*
X51529400Y-156615700D01*
X52720000Y-167630000D02*
X52720000Y-166504900D01*
X51529400Y-165314300D02*
X52720000Y-166504900D01*
X57805000Y-149215000D02*
X57805000Y-150340100D01*
%TO.N,Net-(IC20-Pad6)*%
X128900000Y-125720000D02*
X128900000Y-133340000D01*
%TO.N,USARTCLK*%
X74438300Y-113837200D02*
X74438300Y-100574000D01*
X78061100Y-157371000D02*
X78061100Y-117460000D01*
X79872400Y-159182300D02*
X78061100Y-157371000D01*
X78740000Y-168910000D02*
X79872400Y-167777600D01*
X79872400Y-167777600D02*
X79872400Y-159182300D01*
X84039600Y-77979600D02*
X83735400Y-77675400D01*
X74438300Y-100574000D02*
X84039600Y-90972700D01*
X84039600Y-90972700D02*
X84039600Y-77979600D01*
X78061100Y-117460000D02*
X74438300Y-113837200D01*
%TO.N,Net-(IC14-Pad1)*%
X79036200Y-138420000D02*
X79036200Y-123972100D01*
X85720000Y-114953400D02*
X85720000Y-111750000D01*
X84305200Y-116368200D02*
X85720000Y-114953400D01*
X79036200Y-138420000D02*
X80640000Y-138420000D01*
X78736100Y-148726000D02*
X78736100Y-138720100D01*
X84305200Y-118703100D02*
X84305200Y-116368200D01*
X78736100Y-138720100D02*
X79036200Y-138420000D01*
X80640000Y-151755000D02*
X80640000Y-150629900D01*
X80640000Y-150629900D02*
X78736100Y-148726000D01*
X79036200Y-123972100D02*
X84305200Y-118703100D01*
%TO.N,~{INDEX}*%
X119380000Y-117325100D02*
X119380000Y-118745000D01*
X116200000Y-114145100D02*
X119380000Y-117325100D01*
X116200000Y-113020000D02*
X116200000Y-114145100D01*
%TO.N,Net-(IC38-Pad13)*%
X60345000Y-149215000D02*
X60345000Y-150340100D01*
X60345000Y-150340100D02*
X52720000Y-157965100D01*
X52720000Y-157965100D02*
X52720000Y-160010000D01*
%TO.N,~{DIR}*%
X69846500Y-89749100D02*
X69846500Y-92218400D01*
X65410000Y-97780000D02*
X65410000Y-96654900D01*
X69846500Y-92218400D02*
X65410000Y-96654900D01*
%TO.N,~{STEP}*%
X60330000Y-97780000D02*
X60330000Y-94987400D01*
X60330000Y-94987400D02*
X62323800Y-92993600D01*
%TO.N,~{WDATA}*%
X125090000Y-126047400D02*
X125090000Y-125398400D01*
X122694800Y-125173900D02*
X122694800Y-142865100D01*
X125090000Y-125398400D02*
X124232400Y-124540800D01*
X130314800Y-126204700D02*
X130314800Y-125501600D01*
X124232400Y-124540800D02*
X123327900Y-124540800D01*
X148305700Y-75927400D02*
X146406000Y-77827100D01*
X125887800Y-126845200D02*
X125090000Y-126047400D01*
X130978700Y-126868600D02*
X130314800Y-126204700D01*
X164221700Y-68800800D02*
X157095100Y-75927400D01*
X123327900Y-124540800D02*
X122694800Y-125173900D01*
X157095100Y-75927400D02*
X148305700Y-75927400D01*
X126845800Y-126845200D02*
X125887800Y-126845200D01*
X122694800Y-142865100D02*
X118740000Y-146819900D01*
X118740000Y-147945000D02*
X118740000Y-146819900D01*
X129359900Y-124546700D02*
X128447600Y-124546700D01*
X127542300Y-126148700D02*
X126845800Y-126845200D01*
X146406000Y-112383400D02*
X131920800Y-126868600D01*
X128447600Y-124546700D02*
X127542300Y-125452000D01*
X131920800Y-126868600D02*
X130978700Y-126868600D01*
X127542300Y-125452000D02*
X127542300Y-126148700D01*
X130314800Y-125501600D02*
X129359900Y-124546700D01*
X146406000Y-77827100D02*
X146406000Y-112383400D01*
%TO.N,~{WGATE}*%
X126808900Y-146802200D02*
X127630000Y-147623300D01*
X173564800Y-77277700D02*
X184785000Y-66057500D01*
X128427800Y-149070200D02*
X131990000Y-149070200D01*
X148439700Y-132620500D02*
X148439700Y-77703300D01*
X148865300Y-77277700D02*
X173564800Y-77277700D01*
X127630000Y-147623300D02*
X127630000Y-148272400D01*
X124945100Y-147945000D02*
X124945100Y-147711800D01*
X127630000Y-148272400D02*
X128427800Y-149070200D01*
X148439700Y-77703300D02*
X148865300Y-77277700D01*
X124945100Y-147711800D02*
X125854700Y-146802200D01*
X125854700Y-146802200D02*
X126808900Y-146802200D01*
X123820000Y-147945000D02*
X124945100Y-147945000D01*
X131990000Y-149070200D02*
X148439700Y-132620500D01*
%TO.N,~{TRK0}*%
X125585100Y-118511800D02*
X125585100Y-118745000D01*
X127720300Y-116376600D02*
X125585100Y-118511800D01*
X53835200Y-100829700D02*
X52903500Y-101761400D01*
X154235200Y-74577100D02*
X147746200Y-74577100D01*
X147746200Y-74577100D02*
X144388900Y-77934400D01*
X129949300Y-116376600D02*
X127720300Y-116376600D01*
X52710000Y-91285100D02*
X53835200Y-92410300D01*
X144388900Y-101937000D02*
X129949300Y-116376600D01*
X124460000Y-118745000D02*
X125585100Y-118745000D01*
X159323200Y-69489100D02*
X154235200Y-74577100D01*
X159323200Y-69250900D02*
X159323200Y-69489100D01*
X53835200Y-92410300D02*
X53835200Y-100829700D01*
X52710000Y-90160000D02*
X52710000Y-91285100D01*
X144388900Y-77934400D02*
X144388900Y-101937000D01*
%TO.N,~{WRTPRO}*%
X173355000Y-65626500D02*
X173355000Y-66557800D01*
X154930400Y-75477300D02*
X148119200Y-75477300D01*
X173355000Y-66557800D02*
X172395000Y-67517800D01*
X174141600Y-64839900D02*
X173355000Y-65626500D01*
X145898500Y-77698000D02*
X145898500Y-102386500D01*
X179705000Y-66057500D02*
X178487400Y-64839900D01*
X172395000Y-67517800D02*
X162889900Y-67517800D01*
X162889900Y-67517800D02*
X154930400Y-75477300D01*
X148119200Y-75477300D02*
X145898500Y-77698000D01*
X145898500Y-102386500D02*
X129540000Y-118745000D01*
X178487400Y-64839900D02*
X174141600Y-64839900D01*
%TO.N,~{RDATA}*%
X147581200Y-102471200D02*
X147581200Y-77925100D01*
X166394900Y-76827600D02*
X177165000Y-66057500D01*
X121280000Y-113020000D02*
X121280000Y-116979900D01*
X121280000Y-116979900D02*
X121920000Y-117619900D01*
X147581200Y-77925100D02*
X148678700Y-76827600D01*
X148678700Y-76827600D02*
X166394900Y-76827600D01*
X121920000Y-118745000D02*
X121920000Y-117619900D01*
%TO.N,~{SIDE}*%
X130314800Y-130370400D02*
X130314800Y-145405100D01*
X146856100Y-113829100D02*
X130314800Y-130370400D01*
X130314800Y-145405100D02*
X128900000Y-146819900D01*
X174625000Y-66057500D02*
X164305000Y-76377500D01*
X128900000Y-147945000D02*
X128900000Y-146819900D01*
X148492200Y-76377500D02*
X146856100Y-78013600D01*
X164305000Y-76377500D02*
X148492200Y-76377500D01*
X146856100Y-78013600D02*
X146856100Y-113829100D01*
%TO.N,READY*%
X128125100Y-118534000D02*
X128125100Y-118745000D01*
X127000000Y-118745000D02*
X128125100Y-118745000D01*
X154637800Y-75027200D02*
X147932700Y-75027200D01*
X145064100Y-77895800D02*
X145064100Y-101998500D01*
X134625000Y-59550100D02*
X134795200Y-59720300D01*
X145064100Y-101998500D02*
X130223700Y-116838900D01*
X129820200Y-116838900D02*
X128125100Y-118534000D01*
X130223700Y-116838900D02*
X129820200Y-116838900D01*
X163968500Y-65696500D02*
X154637800Y-75027200D01*
X147932700Y-75027200D02*
X145064100Y-77895800D01*
X163968500Y-65607300D02*
X163968500Y-65696500D01*
X134625000Y-58425000D02*
X134625000Y-59550100D01*
X134795200Y-59720300D02*
X134795200Y-64811200D01*
%TO.N,~{8251CS}*%
X71140000Y-93568900D02*
X71140000Y-84350100D01*
X70470000Y-82555000D02*
X70470000Y-83680100D01*
X58900100Y-112843800D02*
X59849000Y-111894900D01*
X61440100Y-112554000D02*
X61440100Y-113263700D01*
X58900100Y-113020000D02*
X58900100Y-112843800D01*
X62321500Y-114145100D02*
X63334600Y-114145100D01*
X61440100Y-113263700D02*
X62321500Y-114145100D01*
X59849000Y-111894900D02*
X60781000Y-111894900D01*
X71140000Y-84350100D02*
X70470000Y-83680100D01*
X60781000Y-111894900D02*
X61440100Y-112554000D01*
X69127200Y-108352500D02*
X69127200Y-95581700D01*
X63334600Y-114145100D02*
X69127200Y-108352500D01*
X57775000Y-113020000D02*
X58900100Y-113020000D01*
X69127200Y-95581700D02*
X71140000Y-93568900D01*
%TO.N,Net-(C21-Pad1)*%
X120650000Y-156845000D02*
X120650000Y-158505000D01*
X120645000Y-154305000D02*
X120645000Y-155380100D01*
X128969900Y-156845000D02*
X120650000Y-156845000D01*
X120650000Y-155385100D02*
X120650000Y-156845000D01*
X120645000Y-155380100D02*
X120650000Y-155385100D01*
%TO.N,Net-(D1-Pad2)*%
X136525000Y-176530000D02*
X136525000Y-165960000D01*
X136525000Y-165960000D02*
X135255000Y-164690000D01*
%TO.N,Net-(D2-Pad2)*%
X126995000Y-165955000D02*
X126995000Y-176530000D01*
X125730000Y-164690000D02*
X126995000Y-165955000D01*
%TO.N,Net-(D3-Pad2)*%
X116205000Y-165960000D02*
X116205000Y-176530000D01*
X114935000Y-164690000D02*
X116205000Y-165960000D01*
%TO.N,~{DACK}*%
X70485000Y-37955100D02*
X69360300Y-39079800D01*
X70485000Y-36830000D02*
X70485000Y-37955100D01*
X69360300Y-39079800D02*
X69360300Y-56849800D01*
%TO.N,~{RAM_OE}*%
X81989400Y-109434300D02*
X81989400Y-94185800D01*
X83180000Y-111750000D02*
X83180000Y-110624900D01*
X81989400Y-94185800D02*
X83728300Y-92446900D01*
X83180000Y-110624900D02*
X81989400Y-109434300D01*
%TO.N,Net-(IC14-Pad2)*%
X93340000Y-117955100D02*
X93058700Y-117955100D01*
X83180000Y-150629900D02*
X79461400Y-146911300D01*
X83180000Y-130800000D02*
X83180000Y-129674900D01*
X83180000Y-151755000D02*
X83180000Y-150629900D01*
X86877700Y-125977200D02*
X83180000Y-129674900D01*
X79461400Y-146911300D02*
X79461400Y-139713300D01*
X93058700Y-117955100D02*
X86877700Y-124136100D01*
X93340000Y-116830000D02*
X93340000Y-117955100D01*
X86877700Y-124136100D02*
X86877700Y-125977200D01*
%TO.N,~{ROM_OE}*%
X92287900Y-91510300D02*
X93438300Y-90359900D01*
X95880000Y-116830000D02*
X95880000Y-115704900D01*
X93438300Y-90359900D02*
X93438300Y-80632800D01*
X94754900Y-101327400D02*
X92287900Y-98860400D01*
X92287900Y-98860400D02*
X92287900Y-91510300D01*
X93438300Y-80632800D02*
X93874600Y-80196500D01*
X94754900Y-114579800D02*
X94754900Y-101327400D01*
X95880000Y-115704900D02*
X94754900Y-114579800D01*
%TO.N,Net-(IC14-Pad5)*%
X89602400Y-126917500D02*
X89602400Y-131132600D01*
X84571000Y-138908100D02*
X87460300Y-141797400D01*
X87521200Y-141797400D02*
X89530000Y-143806200D01*
X89530000Y-149359900D02*
X90800000Y-150629900D01*
X87460300Y-141797400D02*
X87521200Y-141797400D01*
X89530000Y-143806200D02*
X89530000Y-149359900D01*
X90800000Y-151755000D02*
X90800000Y-150629900D01*
X88260000Y-124450000D02*
X88260000Y-125575100D01*
X84571000Y-136164000D02*
X84571000Y-138908100D01*
X89602400Y-131132600D02*
X84571000Y-136164000D01*
X88260000Y-125575100D02*
X89602400Y-126917500D01*
%TO.N,~{RAM_CE1}*%
X99444800Y-144525100D02*
X99444800Y-99899500D01*
X120015000Y-91275100D02*
X120034200Y-91294300D01*
X93340000Y-151755000D02*
X93340000Y-150629900D01*
X93340000Y-150629900D02*
X99444800Y-144525100D01*
X120034200Y-91294300D02*
X120034200Y-95473000D01*
X120015000Y-90150000D02*
X120015000Y-91275100D01*
%TO.N,Net-(IC14-Pad11)*%
X87134900Y-143946700D02*
X87134900Y-144135000D01*
X85813900Y-142625700D02*
X87134900Y-143946700D01*
X79496300Y-126718800D02*
X79496300Y-131475000D01*
X81990200Y-138894600D02*
X85721300Y-142625700D01*
X81990200Y-133968900D02*
X81990200Y-138894600D01*
X79496300Y-131475000D02*
X81990200Y-133968900D01*
X80640000Y-124450000D02*
X80640000Y-125575100D01*
X85721300Y-142625700D02*
X85813900Y-142625700D01*
X88260000Y-144135000D02*
X87134900Y-144135000D01*
X80640000Y-125575100D02*
X79496300Y-126718800D01*
%TO.N,~{MEMR1}*%
X85720000Y-129674900D02*
X86723100Y-129674900D01*
X86723100Y-129674900D02*
X88818700Y-127579300D01*
X85720000Y-130800000D02*
X85720000Y-129674900D01*
%TO.N,~{MEMW1}*%
X187451200Y-72730800D02*
X183517900Y-72730800D01*
X226690000Y-45973900D02*
X210772700Y-61891200D01*
X98322500Y-144972500D02*
X92070000Y-151225000D01*
X89530200Y-152115300D02*
X89530200Y-151377200D01*
X193769800Y-66412200D02*
X187451200Y-72730800D01*
X92070000Y-152076500D02*
X91262100Y-152884400D01*
X200550800Y-64692700D02*
X194575300Y-64692700D01*
X83413100Y-145260100D02*
X83180000Y-145260100D01*
X202448200Y-61891200D02*
X201295100Y-63044300D01*
X90299300Y-152884400D02*
X89530200Y-152115300D01*
X91262100Y-152884400D02*
X90299300Y-152884400D01*
X92070000Y-151225000D02*
X92070000Y-152076500D01*
X89530200Y-151377200D02*
X83413100Y-145260100D01*
X193769800Y-65498200D02*
X193769800Y-66412200D01*
X97066600Y-92017200D02*
X97066600Y-94164400D01*
X201295100Y-63044300D02*
X201295100Y-63948400D01*
X194575300Y-64692700D02*
X193769800Y-65498200D01*
X98322500Y-95420300D02*
X98322500Y-144972500D01*
X201295100Y-63948400D02*
X200550800Y-64692700D01*
X226690000Y-43805000D02*
X226690000Y-44930100D01*
X226690000Y-44930100D02*
X226690000Y-45973900D01*
X83180000Y-144135000D02*
X83180000Y-145260100D01*
X97066600Y-94164400D02*
X98322500Y-95420300D01*
X210772700Y-61891200D02*
X202448200Y-61891200D01*
%TO.N,RSTCT*%
X147325000Y-57299900D02*
X153759600Y-50865300D01*
X147325000Y-58425000D02*
X147325000Y-57299900D01*
X153759600Y-50865300D02*
X153759600Y-45372000D01*
%TO.N,Reset55*%
X119385000Y-49845600D02*
X115689500Y-53541100D01*
X120083900Y-110936600D02*
X120083900Y-117648900D01*
X120083900Y-117648900D02*
X120650000Y-118215000D01*
X120650000Y-118215000D02*
X120650000Y-119118100D01*
X119385000Y-43185000D02*
X119385000Y-49845600D01*
X126360000Y-125720000D02*
X126360000Y-124594900D01*
X116100900Y-102940300D02*
X115065400Y-103975800D01*
X115065400Y-103975800D02*
X115065400Y-105918100D01*
X116100900Y-66292700D02*
X116100900Y-102940300D01*
X120650000Y-119118100D02*
X126126800Y-124594900D01*
X115689500Y-65881300D02*
X116100900Y-66292700D01*
X126126800Y-124594900D02*
X126360000Y-124594900D01*
X115689500Y-53541100D02*
X115689500Y-65881300D01*
X115065400Y-105918100D02*
X120083900Y-110936600D01*
%TO.N,~{MREQ1}*%
X143938800Y-77747900D02*
X143938800Y-101349800D01*
X151018400Y-70668300D02*
X143938800Y-77747900D01*
X194940000Y-57775000D02*
X194940000Y-56649900D01*
X169808600Y-53438100D02*
X169808600Y-54772100D01*
X153912400Y-70668300D02*
X151018400Y-70668300D01*
X197480000Y-54109900D02*
X197480000Y-50155000D01*
X169808600Y-54772100D02*
X153912400Y-70668300D01*
X143938800Y-101349800D02*
X132855700Y-112432900D01*
X194940000Y-56649900D02*
X197480000Y-54109900D01*
%TO.N,~{MREQ}*%
X84518400Y-114366500D02*
X84518400Y-44000500D01*
X83180000Y-116830000D02*
X83180000Y-115704900D01*
X84518400Y-44000500D02*
X84460000Y-43942100D01*
X83180000Y-115704900D02*
X84518400Y-114366500D01*
%TO.N,~{ROM_CE}*%
X89530000Y-99699700D02*
X89530000Y-109354900D01*
X88260000Y-111750000D02*
X88260000Y-110624900D01*
X91111300Y-98118400D02*
X89530000Y-99699700D01*
X91864900Y-90660100D02*
X91111300Y-91413700D01*
X89530000Y-109354900D02*
X88260000Y-110624900D01*
X91864900Y-82176800D02*
X91864900Y-90660100D01*
X91111300Y-91413700D02*
X91111300Y-98118400D01*
%TO.N,~{IOWR}*%
X66767600Y-73023600D02*
X66767600Y-50354600D01*
X50170000Y-56194500D02*
X56009900Y-50354600D01*
X72524400Y-37980700D02*
X71755000Y-37211300D01*
X78611000Y-37980700D02*
X72524400Y-37980700D01*
X90802700Y-25033000D02*
X79375000Y-36460700D01*
X50170000Y-58425000D02*
X50170000Y-56194500D01*
X116845000Y-43185000D02*
X116845000Y-48041200D01*
X67930000Y-81429900D02*
X68443800Y-80916100D01*
X56009900Y-50354600D02*
X66767600Y-50354600D01*
X70043700Y-35676200D02*
X69070200Y-36649700D01*
X116845000Y-43185000D02*
X116845000Y-30534200D01*
X111343800Y-25033000D02*
X90802700Y-25033000D01*
X71755000Y-37211300D02*
X71755000Y-36481800D01*
X69070200Y-38733200D02*
X66767600Y-41035800D01*
X67930000Y-82555000D02*
X67930000Y-81429900D01*
X79375000Y-36460700D02*
X79375000Y-37216700D01*
X116845000Y-30534200D02*
X111343800Y-25033000D01*
X68443800Y-80916100D02*
X68443800Y-74699800D01*
X69070200Y-36649700D02*
X69070200Y-38733200D01*
X71755000Y-36481800D02*
X70949400Y-35676200D01*
X68443800Y-74699800D02*
X66767600Y-73023600D01*
X70949400Y-35676200D02*
X70043700Y-35676200D01*
X66767600Y-41035800D02*
X66767600Y-50354600D01*
X79375000Y-37216700D02*
X78611000Y-37980700D01*
%TO.N,~{fREADY}*%
X124945100Y-104652700D02*
X124945100Y-105400000D01*
X143488700Y-84879600D02*
X131445000Y-96923300D01*
X131445000Y-96923300D02*
X131445000Y-98152800D01*
X123820000Y-105400000D02*
X124945100Y-105400000D01*
X131445000Y-98152800D02*
X124945100Y-104652700D01*
X151835100Y-69215000D02*
X143488700Y-77561400D01*
X143488700Y-77561400D02*
X143488700Y-84879600D01*
X153670000Y-69215000D02*
X151835100Y-69215000D01*
%TO.N,fREADY*%
X126360000Y-105400000D02*
X125195900Y-106564100D01*
X153302700Y-65310100D02*
X153670000Y-65310100D01*
X123336500Y-106564100D02*
X122648300Y-105875900D01*
X152494900Y-67835600D02*
X152494900Y-66117900D01*
X122648300Y-104969900D02*
X128905000Y-98713200D01*
X143000000Y-82758600D02*
X143000000Y-77330500D01*
X153670000Y-64135000D02*
X153670000Y-65310100D01*
X122648300Y-105875900D02*
X122648300Y-104969900D01*
X143000000Y-77330500D02*
X152494900Y-67835600D01*
X152494900Y-66117900D02*
X153302700Y-65310100D01*
X128905000Y-98713200D02*
X128905000Y-96853600D01*
X125195900Y-106564100D02*
X123336500Y-106564100D01*
X128905000Y-96853600D02*
X143000000Y-82758600D01*
%TD*%
M02*
